<svg width="194" height="38" viewBox="0 0 194 38" fill="none" xmlns="http://www.w3.org/2000/svg">
<path d="M19.1545 12.3981C18.3462 9.83792 17.5028 9.83792 16.6243 12.3981L7.48747 36.2815C7.03063 37.4038 6.3278 37.9299 5.27355 37.9649H1.5134C0.142878 37.8948 -0.313963 37.0882 0.213161 35.4398L13.0398 3.13934C13.8481 1.70142 15.4646 1 17.8894 1C20.3141 1 21.8955 1.77156 22.6335 3.27962L35.7764 35.6152C36.3036 37.1232 35.8819 38 34.6871 38H30.7512C29.6618 37.9649 28.9238 37.4739 28.467 36.3166L19.1545 12.3981Z" fill="#E20613"/>
<path d="M83.7475 35.517L70.9372 3.27316C70.1837 1.76938 68.6423 1 66.3132 1C63.9498 1 62.3742 1.69943 61.5864 3.13327L50.6257 31.4603L40.8296 18.1711L51.5847 5.16163C51.9273 4.70699 52.167 4.32231 52.3383 4.04253C52.5096 3.65785 52.6123 3.30813 52.6123 2.92344C52.6123 2.64367 52.5438 2.36389 52.3725 2.08412C52.2013 1.80435 51.9273 1.55955 51.5847 1.41966C51.345 1.31474 51.0367 1.2448 50.6942 1.17486C50.3517 1.10491 49.9406 1.10491 49.4269 1.10491C48.9131 1.10491 48.5363 1.13989 48.1938 1.17486C47.8513 1.20983 47.543 1.27977 47.3032 1.34972C46.9949 1.45463 46.7209 1.59452 46.4812 1.76938C46.2414 1.94423 46.0701 2.15406 45.9331 2.32892L36 14.8138V22.3677L46.4127 36.6711C46.5839 36.9509 47.406 38 48.1938 38C48.5705 38 54.0166 38 54.0166 38C55.0442 37.965 55.7293 37.4405 56.1403 36.3214L65.0458 12.5057C65.9022 9.95274 66.7242 9.95274 67.512 12.5057L76.5888 36.3214C77.0341 37.4405 77.7534 37.965 78.8152 38H82.7542C84.0901 37.8951 84.2271 37.0208 83.7475 35.517Z" fill="#E30613"/>
<path fill-rule="evenodd" clip-rule="evenodd" d="M125.551 3.13867C123.41 3.13867 121.971 4.79201 121.971 6.72089C121.971 8.61534 123.41 10.2687 125.516 10.2687C127.657 10.2687 129.096 8.61534 129.096 6.72089V6.68645C129.096 4.79201 127.692 3.13867 125.551 3.13867ZM115.688 9.13148L116.179 8.54592C116.916 9.20037 117.618 9.51036 118.566 9.51036C119.514 9.51036 120.11 9.02814 120.11 8.33925V8.30481C120.11 7.65036 119.759 7.30592 118.285 6.99592C116.688 6.65533 115.95 6.14634 115.933 5.03604C115.952 3.98396 116.929 3.20703 118.25 3.20703C119.268 3.20703 120.005 3.48259 120.707 4.06814L120.251 4.6537C119.584 4.13703 118.952 3.89592 118.215 3.89592C117.302 3.89592 116.741 4.37814 116.741 4.99814V5.03259C116.741 5.68703 117.092 6.03148 118.636 6.37592C120.181 6.72036 120.918 7.27148 120.918 8.30481V8.33925C120.918 9.51036 119.935 10.2681 118.531 10.2681C117.443 10.2337 116.53 9.88925 115.688 9.13148ZM115.933 5.03604L115.933 5.06703V4.99814L115.933 5.03604ZM111.967 3.24201H111.229L108.035 10.1653H108.843L109.685 8.33978H113.511L114.318 10.1653H115.161L111.967 3.24201ZM111.581 4.13672L113.16 7.61561H109.966L111.581 4.13672ZM128.324 6.72022C128.324 5.13577 127.166 3.86133 125.551 3.86133C123.937 3.86133 122.813 5.10133 122.813 6.68577V6.72022C122.813 8.27022 123.972 9.54466 125.587 9.54466C127.166 9.54466 128.324 8.30466 128.324 6.72022ZM133.8 3.13867C131.729 3.13867 130.255 4.75756 130.255 6.72089C130.255 8.71867 131.729 10.2687 133.765 10.3031C135.029 10.3031 135.836 9.82089 136.573 9.09756L136.047 8.58089C135.38 9.20089 134.748 9.57978 133.8 9.57978C132.256 9.57978 131.097 8.33978 131.097 6.75534V6.72089C131.097 5.13645 132.256 3.89645 133.8 3.89645C134.748 3.89645 135.415 4.27534 136.011 4.82645L136.538 4.24089C135.836 3.58645 135.064 3.13867 133.8 3.13867Z" fill="black"/>
<path d="M137.767 3.27734H138.574V10.1662H137.767V3.27734Z" fill="black"/>
<path fill-rule="evenodd" clip-rule="evenodd" d="M150.824 3.13867C148.753 3.13867 147.279 4.75756 147.279 6.72089C147.279 8.71867 148.789 10.2687 150.789 10.3031C152.053 10.3031 152.86 9.82089 153.597 9.09756L153.071 8.58089C152.404 9.20089 151.772 9.57978 150.824 9.57978C149.28 9.57978 148.122 8.33978 148.122 6.75534V6.72089C148.122 5.13645 149.28 3.89645 150.824 3.89645C151.772 3.89645 152.439 4.27534 153.036 4.82645L153.562 4.24089C152.86 3.58645 152.088 3.13867 150.824 3.13867ZM142.926 3.24201H143.664L146.858 10.1653H146.015L145.208 8.33978H141.382L140.54 10.1653H139.732L142.926 3.24201ZM144.892 7.61561L143.313 4.13672L141.698 7.61561H144.892Z" fill="black"/>
<path d="M154.721 3.27734H159.775V4.00068H155.493V6.3429H159.319V7.06623H155.493V9.47734H159.81V10.2007H154.686V3.27734H154.721Z" fill="black"/>
<path d="M108.632 15.0564H109.439V19.1553L113.441 15.0564H114.459L111.44 18.0531L114.564 21.9108H113.581L110.878 18.5697L109.404 20.0508V21.9453H108.597V15.0564H108.632Z" fill="black"/>
<path fill-rule="evenodd" clip-rule="evenodd" d="M118.32 14.918C116.178 14.918 114.739 16.5713 114.739 18.5002C114.739 20.3946 116.178 22.048 118.285 22.048C120.426 22.048 121.865 20.3946 121.865 18.5002V18.4657C121.865 16.5713 120.461 14.918 118.32 14.918ZM118.285 15.6406C119.9 15.6406 121.058 16.9151 121.058 18.4995C121.058 20.084 119.935 21.324 118.32 21.324C116.705 21.324 115.547 20.0495 115.547 18.4995V18.4651C115.547 16.8806 116.67 15.6406 118.285 15.6406Z" fill="black"/>
<path d="M123.304 15.0564H124.112L126.674 18.8108L129.237 15.0564H130.044V21.9453H129.237V16.3653L126.674 20.0508H126.639L124.077 16.3653V21.9453H123.304V15.0564Z" fill="black"/>
<path d="M131.659 19.0522V15.0566H132.467V19.0178C132.467 20.4989 133.274 21.3255 134.608 21.3255C135.907 21.3255 136.714 20.5678 136.714 19.0522V15.0566H137.521V18.9833C137.521 20.9811 136.363 22.0144 134.608 22.0144C132.818 22.0489 131.659 21.0155 131.659 19.0522Z" fill="black"/>
<path d="M139.1 15.0564H139.837L144.26 20.5675V15.0564H145.033V21.9453H144.401L139.873 16.2964V21.9453H139.1V15.0564Z" fill="black"/>
<path d="M146.823 15.0566H147.631V21.9455H146.823V15.0566Z" fill="black"/>
<path d="M149.421 15.0566H150.228V19.1555L154.23 15.0566H155.248L152.229 18.0533L155.388 21.9455H154.405L151.703 18.6044L150.228 20.0855V21.9455H149.421V15.0566Z" fill="black"/>
<path fill-rule="evenodd" clip-rule="evenodd" d="M166.34 14.3684H167.077L168.165 13.1973H167.463L166.726 13.7828L165.989 13.1973H165.252L166.34 14.3684ZM163.251 18.5021C163.251 16.5388 164.725 14.9199 166.796 14.9199C168.06 14.9199 168.832 15.3677 169.534 16.0221L169.008 16.6077C168.411 16.0566 167.744 15.6777 166.796 15.6777C165.252 15.6777 164.093 16.9177 164.093 18.5021C164.093 20.0866 165.252 21.3266 166.796 21.3266C167.744 21.3266 168.376 20.9477 169.043 20.3277L169.569 20.8444C168.832 21.5677 168.025 22.0499 166.761 22.0499C164.725 22.0499 163.251 20.4999 163.251 18.5021ZM159.636 15.0234H158.898L155.704 21.9468H156.511L157.354 20.1212H161.18L161.987 21.9468H162.83L159.636 15.0234ZM159.249 15.918L160.864 19.3969H157.635L159.249 15.918Z" fill="black"/>
<path d="M170.692 15.0564H171.43L175.852 20.5675V15.0564H176.625V21.9453H175.993L171.465 16.2964V21.9453H170.692V15.0564Z" fill="black"/>
<path fill-rule="evenodd" clip-rule="evenodd" d="M179.503 13.1973L180.311 13.5417L179.152 14.4373H178.52L179.503 13.1973ZM178.415 15.0566H179.222V21.9455H178.415V15.0566ZM184.242 14.9199C182.171 14.9199 180.696 16.5388 180.696 18.5021C180.696 20.4999 182.206 22.0499 184.206 22.0499C185.47 22.0499 186.278 21.5677 187.015 20.8444L186.488 20.3277C185.821 20.9477 185.189 21.3266 184.242 21.3266C182.697 21.3266 181.539 20.0866 181.539 18.5021C181.539 16.9177 182.697 15.6777 184.242 15.6777C185.189 15.6777 185.856 16.0566 186.453 16.6077L186.98 16.0221C186.278 15.3677 185.505 14.9199 184.242 14.9199Z" fill="black"/>
<path d="M188.138 15.0566H188.945V18.1222H192.982V15.0566H193.789V21.9455H192.982V18.8455H188.945V21.9455H188.138V15.0566Z" fill="black"/>
<path fill-rule="evenodd" clip-rule="evenodd" d="M119.057 26.7324C116.951 26.7324 115.547 28.4202 115.547 30.3146C115.547 32.278 116.916 33.828 119.057 33.8624C120.251 33.8624 121.198 33.3802 121.865 32.7946V30.0391H118.987V30.728H121.128V32.4502C120.637 32.8291 119.9 33.1391 119.092 33.1391C117.372 33.1391 116.319 31.9335 116.319 30.2802V30.2458C116.319 28.6958 117.443 27.4213 118.987 27.4213C119.97 27.4213 120.602 27.7658 121.128 28.2135L121.655 27.628C120.953 27.0769 120.251 26.7324 119.057 26.7324ZM111.229 26.8008H111.967L115.161 33.7241H114.318L113.511 31.8986H109.685L108.843 33.7241H108.035L111.229 26.8008ZM113.16 31.1762L111.581 27.6973L109.966 31.1762H113.16Z" fill="black"/>
<path d="M123.48 26.8359H128.535V27.5593H124.253V29.9015H128.079V30.6248H124.253V33.0359H128.57V33.7593H123.445V26.8359H123.48Z" fill="black"/>
<path d="M129.903 26.8359H130.64L135.063 32.347V26.8359H135.836V33.7248H135.204L130.676 28.0759V33.7248H129.903V26.8359Z" fill="black"/>
<path d="M139.416 27.5593H137.064V26.8359H142.575V27.5593H140.224V33.7248H139.416V27.5593Z" fill="black"/>
<path fill-rule="evenodd" clip-rule="evenodd" d="M143.699 30.8315V26.8359H144.507V30.797C144.507 32.2782 145.314 33.1048 146.648 33.1048C147.947 33.1048 148.754 32.347 148.754 30.8315V26.8359H149.561V30.7626C149.561 32.7604 148.403 33.7937 146.648 33.7937C144.893 33.8282 143.699 32.7948 143.699 30.8315ZM151.141 26.8359H154.159C155.037 26.8359 155.704 27.077 156.16 27.5248C156.511 27.8693 156.687 28.3515 156.687 28.8682V28.9026C156.687 30.0393 155.879 30.6937 154.791 30.9004L156.932 33.7248H155.95L153.914 31.0382H151.913V33.7248H151.105V26.8359H151.141ZM155.88 28.9364C155.88 29.8319 155.142 30.3486 154.089 30.3486H151.913V27.5586H154.089C155.213 27.5586 155.88 28.0408 155.88 28.9019V28.9364Z" fill="black"/>
<path d="M96 1V37" stroke="#C6C6C6" stroke-linecap="round" stroke-linejoin="round"/>
</svg>
