<svg width="0" height="0" style="position:absolute"><symbol fill="none" viewBox="0 0 194 38" id="icon--logo" xmlns="http://www.w3.org/2000/svg"><path d="M19.154 12.398c-.808-2.56-1.651-2.56-2.53 0L7.487 36.282c-.456 1.122-1.16 1.648-2.213 1.683h-3.76c-1.371-.07-1.828-.877-1.3-2.525L13.04 3.14C13.848 1.7 15.465 1 17.89 1c2.424 0 4.005.772 4.744 2.28l13.142 32.335c.528 1.508.106 2.385-1.089 2.385h-3.936c-1.09-.035-1.827-.526-2.284-1.683l-9.313-23.919z" fill="#E20613"/><path d="M83.748 35.517L70.938 3.273C70.183 1.77 68.641 1 66.312 1c-2.363 0-3.939.7-4.727 2.133L50.626 31.46 40.83 18.171l10.755-13.01c.342-.454.582-.839.753-1.118.172-.385.274-.735.274-1.12 0-.28-.068-.56-.24-.839a1.668 1.668 0 00-.787-.664c-.24-.105-.548-.175-.89-.245-.343-.07-.754-.07-1.268-.07s-.89.035-1.233.07c-.343.035-.651.105-.89.175a3.053 3.053 0 00-.823.42c-.24.174-.41.384-.548.559L36 14.814v7.554L46.413 36.67c.17.28.993 1.329 1.78 1.329h5.824c1.027-.035 1.712-.56 2.123-1.679l8.906-23.815c.856-2.553 1.678-2.553 2.466 0l9.077 23.815c.445 1.12 1.164 1.644 2.226 1.679h3.94c1.335-.105 1.472-.98.993-2.483z" fill="#E30613"/><path fill-rule="evenodd" clip-rule="evenodd" d="M125.551 3.139c-2.141 0-3.58 1.653-3.58 3.582 0 1.894 1.439 3.548 3.545 3.548 2.141 0 3.58-1.654 3.58-3.548v-.035c0-1.894-1.404-3.547-3.545-3.547zm-9.863 5.992l.491-.585c.737.654 1.439.964 2.387.964s1.544-.482 1.544-1.17v-.035c0-.655-.351-1-1.825-1.31-1.597-.34-2.335-.849-2.352-1.959.019-1.052.996-1.829 2.317-1.829 1.018 0 1.755.276 2.457.861l-.456.586c-.667-.517-1.299-.758-2.036-.758-.913 0-1.474.482-1.474 1.102v.035c0 .654.351.998 1.895 1.343 1.545.344 2.282.895 2.282 1.929v.034c0 1.171-.983 1.93-2.387 1.93-1.088-.035-2.001-.38-2.843-1.138zm.245-4.095v.031-.069.038zm-3.966-1.794h-.738l-3.194 6.923h.808l.842-1.825h3.826l.807 1.825h.843l-3.194-6.923zm-.386.895l1.579 3.479h-3.194l1.615-3.48zm16.743 2.583c0-1.584-1.158-2.859-2.773-2.859-1.614 0-2.738 1.24-2.738 2.825v.034c0 1.55 1.159 2.825 2.774 2.825 1.579 0 2.737-1.24 2.737-2.825zM133.8 3.14c-2.071 0-3.545 1.619-3.545 3.582 0 1.998 1.474 3.548 3.51 3.582 1.264 0 2.071-.482 2.808-1.205l-.526-.517c-.667.62-1.299.999-2.247.999-1.544 0-2.703-1.24-2.703-2.825v-.034c0-1.585 1.159-2.825 2.703-2.825.948 0 1.615.38 2.211.93l.527-.585c-.702-.655-1.474-1.102-2.738-1.102z" fill="#000"/><path d="M137.767 3.277h.807v6.89h-.807v-6.89z" fill="#000"/><path fill-rule="evenodd" clip-rule="evenodd" d="M150.824 3.139c-2.071 0-3.545 1.619-3.545 3.582 0 1.998 1.51 3.548 3.51 3.582 1.264 0 2.071-.482 2.808-1.205l-.526-.517c-.667.62-1.299.999-2.247.999-1.544 0-2.702-1.24-2.702-2.825v-.034c0-1.585 1.158-2.825 2.702-2.825.948 0 1.615.38 2.212.93l.526-.585c-.702-.655-1.474-1.102-2.738-1.102zm-7.898.103h.738l3.194 6.923h-.843l-.807-1.825h-3.826l-.842 1.825h-.808l3.194-6.923zm1.966 4.374l-1.579-3.48-1.615 3.48h3.194z" fill="#000"/><path d="M154.721 3.277h5.054v.724h-4.282v2.342h3.826v.723h-3.826v2.411h4.317v.724h-5.124V3.277h.035zM108.632 15.056h.807v4.1l4.002-4.1h1.018l-3.019 2.997 3.124 3.858h-.983l-2.703-3.341-1.474 1.48v1.895h-.807v-6.889h.035z" fill="#000"/><path fill-rule="evenodd" clip-rule="evenodd" d="M118.32 14.918c-2.142 0-3.581 1.653-3.581 3.582 0 1.895 1.439 3.548 3.546 3.548 2.141 0 3.58-1.653 3.58-3.548v-.034c0-1.895-1.404-3.548-3.545-3.548zm-.035.723c1.615 0 2.773 1.274 2.773 2.859 0 1.584-1.123 2.824-2.738 2.824s-2.773-1.275-2.773-2.825v-.034c0-1.584 1.123-2.824 2.738-2.824z" fill="#000"/><path d="M123.304 15.056h.808l2.562 3.755 2.563-3.755h.807v6.89h-.807v-5.58l-2.563 3.685h-.035l-2.562-3.686v5.58h-.773v-6.889zM131.659 19.052v-3.995h.808v3.96c0 1.482.807 2.309 2.141 2.309 1.299 0 2.106-.758 2.106-2.274v-3.995h.807v3.926c0 1.998-1.158 3.031-2.913 3.031-1.79.035-2.949-.998-2.949-2.962zM139.1 15.056h.737l4.423 5.511v-5.51h.773v6.888h-.632l-4.528-5.649v5.65h-.773v-6.89zM146.823 15.057h.808v6.888h-.808v-6.888zM149.421 15.057h.807v4.098l4.002-4.098h1.018l-3.019 2.996 3.159 3.892h-.983l-2.702-3.34-1.475 1.48v1.86h-.807v-6.888z" fill="#000"/><path fill-rule="evenodd" clip-rule="evenodd" d="M166.34 14.368h.737l1.088-1.17h-.702l-.737.585-.737-.586h-.737l1.088 1.171zm-3.089 4.134c0-1.963 1.474-3.582 3.545-3.582 1.264 0 2.036.448 2.738 1.102l-.526.586c-.597-.551-1.264-.93-2.212-.93-1.544 0-2.703 1.24-2.703 2.824 0 1.585 1.159 2.825 2.703 2.825.948 0 1.58-.38 2.247-1l.526.517c-.737.724-1.544 1.206-2.808 1.206-2.036 0-3.51-1.55-3.51-3.548zm-3.615-3.479h-.738l-3.194 6.924h.807l.843-1.826h3.826l.807 1.826h.843l-3.194-6.924zm-.387.895l1.615 3.479h-3.229l1.614-3.479z" fill="#000"/><path d="M170.692 15.056h.738l4.422 5.511v-5.51h.773v6.888h-.632l-4.528-5.649v5.65h-.773v-6.89z" fill="#000"/><path fill-rule="evenodd" clip-rule="evenodd" d="M179.503 13.197l.808.345-1.159.895h-.632l.983-1.24zm-1.088 1.86h.807v6.888h-.807v-6.888zm5.827-.137c-2.071 0-3.546 1.619-3.546 3.582 0 1.998 1.51 3.548 3.51 3.548 1.264 0 2.072-.482 2.809-1.206l-.527-.516c-.667.62-1.299.999-2.246.999-1.545 0-2.703-1.24-2.703-2.825 0-1.584 1.158-2.824 2.703-2.824.947 0 1.614.379 2.211.93l.527-.586c-.702-.654-1.475-1.102-2.738-1.102z" fill="#000"/><path d="M188.138 15.057h.807v3.065h4.037v-3.065h.807v6.888h-.807v-3.1h-4.037v3.1h-.807v-6.888z" fill="#000"/><path fill-rule="evenodd" clip-rule="evenodd" d="M119.057 26.732c-2.106 0-3.51 1.688-3.51 3.583 0 1.963 1.369 3.513 3.51 3.547a4.213 4.213 0 002.808-1.067v-2.756h-2.878v.689h2.141v1.722a3.418 3.418 0 01-2.036.69c-1.72 0-2.773-1.207-2.773-2.86v-.034c0-1.55 1.124-2.825 2.668-2.825.983 0 1.615.345 2.141.793l.527-.586c-.702-.551-1.404-.896-2.598-.896zm-7.828.069h.738l3.194 6.923h-.843l-.807-1.825h-3.826l-.842 1.825h-.808l3.194-6.923zm1.931 4.375l-1.579-3.479-1.615 3.48h3.194z" fill="#000"/><path d="M123.48 26.836h5.055v.723h-4.282v2.342h3.826v.724h-3.826v2.41h4.317v.724h-5.125v-6.923h.035zM129.903 26.836h.737l4.423 5.511v-5.511h.773v6.889h-.632l-4.528-5.65v5.65h-.773v-6.89zM139.416 27.56h-2.352v-.724h5.511v.723h-2.351v6.166h-.808v-6.166z" fill="#000"/><path fill-rule="evenodd" clip-rule="evenodd" d="M143.699 30.831v-3.995h.808v3.961c0 1.481.807 2.308 2.141 2.308 1.299 0 2.106-.758 2.106-2.273v-3.996h.807v3.927c0 1.997-1.158 3.03-2.913 3.03-1.755.035-2.949-.998-2.949-2.962zm7.442-3.995h3.018c.878 0 1.545.241 2.001.689.351.344.527.827.527 1.343v.035c0 1.136-.808 1.79-1.896 1.997l2.141 2.825h-.982l-2.036-2.687h-2.001v2.687h-.808v-6.89h.036zm4.739 2.1c0 .896-.738 1.413-1.791 1.413h-2.176v-2.79h2.176c1.124 0 1.791.482 1.791 1.343v.034z" fill="#000"/><path d="M96 1v36" stroke="#C6C6C6" stroke-linecap="round" stroke-linejoin="round"/></symbol></svg>