<?xml version="1.0" encoding="utf-8"?>
<!-- Generator: Adobe Illustrator 23.0.1, SVG Export Plug-In . SVG Version: 6.00 Build 0)  -->
<svg version="1.1" id="Layer_1" xmlns="http://www.w3.org/2000/svg" xmlns:xlink="http://www.w3.org/1999/xlink" x="0px" y="0px"
	 viewBox="0 0 92 70" style="enable-background:new 0 0 92 70;" xml:space="preserve">
<style type="text/css">
	.st0{enable-background:new    ;}
	.st1{fill:#FFFFFF;}
	.st2{fill:none;}
</style>
<g class="st0">
	<path class="st1" d="M5.4,56.6l-2.9-6.2v5c0,0.5,0,0.7,0.1,0.9c0.1,0.2,0.3,0.2,0.6,0.2h0.3v0.2H1v-0.2h0.3c0.3,0,0.5-0.1,0.7-0.3
		C2,56,2,55.7,2,55.3v-4.8c0-0.3,0-0.6-0.1-0.7c-0.1-0.1-0.1-0.2-0.3-0.3c-0.1-0.1-0.4-0.1-0.7-0.1v-0.2h2.1L5.8,55l2.6-5.8h2.1v0.2
		h-0.3c-0.3,0-0.5,0.1-0.7,0.3c-0.1,0.1-0.1,0.4-0.1,0.8v4.8c0,0.5,0.1,0.7,0.2,0.9c0.1,0.2,0.3,0.2,0.6,0.2h0.3v0.2H7.4v-0.2h0.3
		c0.3,0,0.5-0.1,0.7-0.3c0.1-0.1,0.1-0.4,0.1-0.8v-5l-2.9,6.2H5.4z"/>
	<path class="st1" d="M12.8,51.4v4c0,0.3,0,0.5,0.1,0.6c0,0.1,0.1,0.2,0.2,0.2c0.1,0.1,0.3,0.1,0.5,0.1v0.2h-2.4v-0.2
		c0.2,0,0.4,0,0.5-0.1c0.1,0,0.2-0.1,0.2-0.2c0-0.1,0.1-0.3,0.1-0.6v-1.9c0-0.5,0-0.9,0-1.1c0-0.1-0.1-0.2-0.1-0.2s-0.1-0.1-0.2-0.1
		c-0.1,0-0.2,0-0.4,0.1L11.1,52l1.5-0.6H12.8z M12.4,48.8c0.2,0,0.3,0.1,0.4,0.2s0.2,0.2,0.2,0.4s-0.1,0.3-0.2,0.4s-0.2,0.2-0.4,0.2
		c-0.2,0-0.3-0.1-0.4-0.2s-0.2-0.2-0.2-0.4s0.1-0.3,0.2-0.4S12.2,48.8,12.4,48.8z"/>
	<path class="st1" d="M18.5,54.7c-0.1,0.7-0.4,1.2-0.8,1.5c-0.4,0.4-0.8,0.5-1.3,0.5c-0.6,0-1.1-0.2-1.5-0.7
		c-0.4-0.5-0.6-1.1-0.6-1.9c0-0.8,0.2-1.4,0.7-1.9c0.5-0.5,1-0.7,1.7-0.7c0.5,0,0.9,0.1,1.2,0.4s0.5,0.5,0.5,0.8
		c0,0.1,0,0.2-0.1,0.3c-0.1,0.1-0.2,0.1-0.4,0.1c-0.2,0-0.4-0.1-0.5-0.2c-0.1-0.1-0.1-0.2-0.1-0.4c0-0.2-0.1-0.4-0.2-0.5
		c-0.1-0.1-0.3-0.2-0.5-0.2c-0.4,0-0.7,0.1-0.9,0.4c-0.3,0.4-0.4,0.8-0.4,1.4c0,0.6,0.1,1.1,0.4,1.6c0.3,0.5,0.7,0.7,1.2,0.7
		c0.4,0,0.7-0.1,1-0.4c0.2-0.2,0.4-0.5,0.6-0.9L18.5,54.7z"/>
	<path class="st1" d="M20.6,48.8v3.7c0.4-0.4,0.7-0.7,1-0.9c0.2-0.1,0.5-0.2,0.7-0.2c0.3,0,0.5,0.1,0.7,0.2c0.2,0.2,0.4,0.4,0.5,0.7
		c0.1,0.2,0.1,0.7,0.1,1.3v1.8c0,0.3,0,0.5,0.1,0.7c0,0.1,0.1,0.2,0.2,0.2c0.1,0.1,0.2,0.1,0.5,0.1v0.2h-2.5v-0.2H22
		c0.2,0,0.4,0,0.5-0.1c0.1-0.1,0.2-0.2,0.2-0.3c0-0.1,0-0.2,0-0.5v-1.8c0-0.5,0-0.9-0.1-1.1s-0.1-0.3-0.3-0.4
		c-0.1-0.1-0.3-0.1-0.4-0.1c-0.2,0-0.4,0-0.6,0.1c-0.2,0.1-0.4,0.3-0.7,0.6v2.6c0,0.3,0,0.6,0.1,0.6c0,0.1,0.1,0.2,0.2,0.2
		s0.3,0.1,0.5,0.1v0.2H19v-0.2c0.2,0,0.4,0,0.5-0.1c0.1,0,0.1-0.1,0.2-0.2c0-0.1,0.1-0.3,0.1-0.6v-4.5c0-0.6,0-0.9,0-1.1
		s-0.1-0.2-0.1-0.3c-0.1,0-0.1-0.1-0.2-0.1c-0.1,0-0.2,0-0.4,0.1l-0.1-0.2l1.5-0.6H20.6z"/>
	<path class="st1" d="M27.6,55.8c-0.5,0.4-0.8,0.6-1,0.7c-0.2,0.1-0.4,0.1-0.6,0.1c-0.3,0-0.6-0.1-0.9-0.4c-0.2-0.2-0.3-0.5-0.3-0.9
		c0-0.2,0.1-0.5,0.2-0.6c0.1-0.2,0.4-0.5,0.8-0.7s1-0.5,1.8-0.8V53c0-0.5-0.1-0.8-0.2-1c-0.2-0.2-0.4-0.3-0.7-0.3
		c-0.2,0-0.4,0.1-0.5,0.2c-0.1,0.1-0.2,0.3-0.2,0.4l0,0.3c0,0.2,0,0.3-0.1,0.4c-0.1,0.1-0.2,0.1-0.3,0.1c-0.1,0-0.2,0-0.3-0.1
		C25,53,25,52.8,25,52.7c0-0.3,0.2-0.6,0.5-0.9c0.3-0.3,0.8-0.4,1.3-0.4c0.4,0,0.8,0.1,1.1,0.2c0.2,0.1,0.4,0.3,0.5,0.5
		c0.1,0.2,0.1,0.5,0.1,1v1.7c0,0.5,0,0.8,0,0.9s0,0.2,0.1,0.2c0,0,0.1,0.1,0.1,0.1c0.1,0,0.1,0,0.2,0c0.1,0,0.2-0.2,0.4-0.4v0.3
		c-0.4,0.5-0.8,0.8-1.2,0.8c-0.2,0-0.3-0.1-0.4-0.2C27.7,56.4,27.6,56.1,27.6,55.8z M27.6,55.5v-1.9C27,53.8,26.7,54,26.5,54
		c-0.3,0.2-0.5,0.3-0.6,0.5c-0.1,0.2-0.2,0.4-0.2,0.6c0,0.3,0.1,0.5,0.2,0.7c0.2,0.2,0.3,0.3,0.5,0.3C26.8,56,27.1,55.8,27.6,55.5z"
		/>
	<path class="st1" d="M31.5,48.8v6.6c0,0.3,0,0.5,0.1,0.6c0,0.1,0.1,0.2,0.2,0.2c0.1,0.1,0.3,0.1,0.5,0.1v0.2h-2.5v-0.2
		c0.2,0,0.4,0,0.5-0.1c0.1,0,0.1-0.1,0.2-0.2s0.1-0.3,0.1-0.6v-4.5c0-0.6,0-0.9,0-1c0-0.1-0.1-0.2-0.1-0.3c-0.1,0-0.1-0.1-0.2-0.1
		c-0.1,0-0.2,0-0.4,0.1l-0.1-0.2l1.5-0.6H31.5z"/>
	<path class="st1" d="M40.4,49v2.6h-0.2c-0.1-0.5-0.2-0.9-0.4-1.2c-0.2-0.3-0.4-0.5-0.7-0.7c-0.3-0.2-0.6-0.3-1-0.3
		c-0.4,0-0.7,0.1-0.9,0.3c-0.2,0.2-0.4,0.5-0.4,0.8c0,0.2,0.1,0.4,0.2,0.6c0.2,0.3,0.8,0.6,1.6,1.1c0.7,0.4,1.2,0.7,1.4,0.9
		c0.3,0.2,0.4,0.4,0.6,0.7c0.1,0.3,0.2,0.6,0.2,0.8c0,0.6-0.2,1-0.7,1.5s-1,0.6-1.7,0.6c-0.2,0-0.4,0-0.6,0c-0.1,0-0.3-0.1-0.7-0.2
		c-0.4-0.1-0.6-0.2-0.7-0.2c-0.1,0-0.2,0-0.2,0.1s-0.1,0.2-0.1,0.3h-0.2v-2.5h0.2c0.1,0.5,0.2,0.9,0.4,1.2c0.2,0.3,0.4,0.5,0.7,0.7
		c0.3,0.2,0.7,0.3,1.1,0.3c0.5,0,0.8-0.1,1.1-0.4s0.4-0.5,0.4-0.9c0-0.2-0.1-0.4-0.2-0.6s-0.3-0.4-0.5-0.5c-0.1-0.1-0.5-0.3-1.2-0.7
		s-1.1-0.6-1.4-0.8s-0.5-0.4-0.6-0.7c-0.1-0.3-0.2-0.5-0.2-0.8c0-0.5,0.2-1,0.6-1.4c0.4-0.4,0.9-0.6,1.6-0.6c0.4,0,0.8,0.1,1.3,0.3
		c0.2,0.1,0.3,0.1,0.4,0.1c0.1,0,0.2,0,0.2-0.1c0.1-0.1,0.1-0.2,0.1-0.3H40.4z M38.9,48.6h-1l-1-1.8H37l1.5,1.2l1.3-1.2h0.2
		L38.9,48.6z"/>
	<path class="st1" d="M43.3,52.5c0.4-0.4,0.6-0.6,0.6-0.6c0.2-0.1,0.3-0.2,0.5-0.3c0.2-0.1,0.4-0.1,0.6-0.1c0.3,0,0.6,0.1,0.8,0.3
		c0.2,0.2,0.4,0.4,0.5,0.8c0.4-0.4,0.7-0.7,1-0.9s0.5-0.2,0.8-0.2c0.3,0,0.5,0.1,0.7,0.2c0.2,0.1,0.4,0.4,0.5,0.7
		c0.1,0.2,0.1,0.5,0.1,1v2.2c0,0.3,0,0.5,0.1,0.6c0,0.1,0.1,0.1,0.2,0.2c0.1,0.1,0.3,0.1,0.5,0.1v0.2h-2.5v-0.2h0.1
		c0.2,0,0.4,0,0.5-0.1c0.1-0.1,0.1-0.2,0.2-0.3c0-0.1,0-0.2,0-0.5v-2.2c0-0.4,0-0.7-0.1-0.9c-0.1-0.2-0.4-0.3-0.7-0.3
		c-0.2,0-0.4,0-0.6,0.1c-0.2,0.1-0.4,0.3-0.7,0.5l0,0.1l0,0.2v2.4c0,0.3,0,0.6,0.1,0.6c0,0.1,0.1,0.2,0.2,0.2
		c0.1,0.1,0.3,0.1,0.5,0.1v0.2h-2.5v-0.2c0.3,0,0.5,0,0.6-0.1s0.2-0.2,0.2-0.3c0-0.1,0-0.2,0-0.5v-2.2c0-0.4-0.1-0.7-0.2-0.9
		c-0.2-0.2-0.4-0.3-0.7-0.3c-0.2,0-0.4,0.1-0.6,0.2c-0.3,0.2-0.5,0.3-0.7,0.5v2.7c0,0.3,0,0.5,0.1,0.6c0,0.1,0.1,0.2,0.2,0.2
		c0.1,0,0.3,0.1,0.5,0.1v0.2h-2.5v-0.2c0.2,0,0.4,0,0.5-0.1c0.1,0,0.2-0.1,0.2-0.2c0-0.1,0.1-0.3,0.1-0.6v-1.9c0-0.6,0-0.9,0-1.1
		c0-0.1-0.1-0.2-0.1-0.2c-0.1,0-0.1-0.1-0.2-0.1c-0.1,0-0.2,0-0.4,0.1L41.6,52l1.5-0.6h0.2V52.5z"/>
	<path class="st1" d="M51.4,53.4c0,0.7,0.2,1.3,0.5,1.7c0.4,0.4,0.8,0.6,1.3,0.6c0.3,0,0.6-0.1,0.9-0.3c0.2-0.2,0.4-0.5,0.6-0.9
		l0.2,0.1c-0.1,0.5-0.3,1-0.7,1.4c-0.4,0.4-0.8,0.6-1.4,0.6c-0.6,0-1.1-0.2-1.5-0.7c-0.4-0.5-0.6-1.1-0.6-1.9c0-0.9,0.2-1.5,0.7-2
		c0.4-0.5,1-0.7,1.7-0.7c0.6,0,1,0.2,1.4,0.6c0.4,0.4,0.5,0.9,0.5,1.5H51.4z M51.4,53.1h2.3c0-0.3-0.1-0.5-0.1-0.7
		c-0.1-0.2-0.2-0.4-0.4-0.5c-0.2-0.1-0.4-0.2-0.6-0.2c-0.3,0-0.6,0.1-0.8,0.4C51.6,52.4,51.4,52.7,51.4,53.1z"/>
	<path class="st1" d="M57,51.4v1.1c0.4-0.8,0.8-1.1,1.3-1.1c0.2,0,0.4,0.1,0.5,0.2c0.1,0.1,0.2,0.3,0.2,0.4c0,0.1,0,0.3-0.1,0.4
		c-0.1,0.1-0.2,0.1-0.3,0.1c-0.1,0-0.3-0.1-0.4-0.2c-0.2-0.1-0.3-0.2-0.4-0.2c-0.1,0-0.1,0-0.2,0.1c-0.2,0.1-0.3,0.4-0.5,0.7v2.4
		c0,0.3,0,0.5,0.1,0.6c0,0.1,0.1,0.2,0.3,0.2s0.3,0.1,0.5,0.1v0.2h-2.6v-0.2c0.3,0,0.4,0,0.6-0.1c0.1-0.1,0.2-0.2,0.2-0.3
		c0-0.1,0-0.2,0-0.5v-1.9c0-0.6,0-0.9,0-1c0-0.1-0.1-0.2-0.1-0.2c-0.1-0.1-0.1-0.1-0.2-0.1c-0.1,0-0.2,0-0.4,0.1L55.3,52l1.5-0.6H57
		z"/>
	<path class="st1" d="M60.7,48.8v3.7c0.4-0.4,0.7-0.7,1-0.9c0.2-0.1,0.5-0.2,0.7-0.2c0.3,0,0.5,0.1,0.7,0.2c0.2,0.2,0.4,0.4,0.5,0.7
		c0.1,0.2,0.1,0.7,0.1,1.3v1.8c0,0.3,0,0.5,0.1,0.7c0,0.1,0.1,0.2,0.2,0.2c0.1,0.1,0.2,0.1,0.5,0.1v0.2H62v-0.2h0.1
		c0.2,0,0.4,0,0.5-0.1c0.1-0.1,0.2-0.2,0.2-0.3c0-0.1,0-0.2,0-0.5v-1.8c0-0.5,0-0.9-0.1-1.1s-0.1-0.3-0.3-0.4
		c-0.1-0.1-0.3-0.1-0.4-0.1c-0.2,0-0.4,0-0.6,0.1c-0.2,0.1-0.4,0.3-0.7,0.6v2.6c0,0.3,0,0.6,0.1,0.6c0,0.1,0.1,0.2,0.2,0.2
		c0.1,0.1,0.3,0.1,0.5,0.1v0.2h-2.5v-0.2c0.2,0,0.4,0,0.5-0.1c0.1,0,0.1-0.1,0.2-0.2c0-0.1,0.1-0.3,0.1-0.6v-4.5c0-0.6,0-0.9,0-1.1
		s-0.1-0.2-0.1-0.3c-0.1,0-0.1-0.1-0.2-0.1c-0.1,0-0.2,0-0.4,0.1L59,49.4l1.5-0.6H60.7z"/>
	<path class="st1" d="M67.3,51.4c0.8,0,1.4,0.3,1.8,0.9c0.4,0.5,0.6,1.1,0.6,1.7c0,0.4-0.1,0.9-0.3,1.4c-0.2,0.5-0.5,0.8-0.9,1
		c-0.4,0.2-0.8,0.3-1.3,0.3c-0.8,0-1.4-0.3-1.8-0.9c-0.4-0.5-0.6-1.1-0.6-1.7c0-0.5,0.1-0.9,0.3-1.4c0.2-0.5,0.5-0.8,0.9-1
		C66.5,51.5,66.9,51.4,67.3,51.4z M67.1,51.8c-0.2,0-0.4,0.1-0.6,0.2c-0.2,0.1-0.4,0.3-0.5,0.6c-0.1,0.3-0.2,0.7-0.2,1.1
		c0,0.7,0.1,1.4,0.4,1.9c0.3,0.5,0.7,0.8,1.1,0.8c0.4,0,0.6-0.1,0.9-0.4c0.2-0.3,0.3-0.8,0.3-1.5c0-0.9-0.2-1.6-0.6-2.1
		C67.9,51.9,67.5,51.8,67.1,51.8z"/>
	<path class="st1" d="M70.2,51.6h2.4v0.2h-0.2c-0.1,0-0.3,0-0.3,0.1C72,51.9,72,52,72,52.1c0,0.1,0,0.3,0.1,0.5l1.2,2.8l1.2-2.9
		c0.1-0.2,0.1-0.4,0.1-0.5c0-0.1,0-0.1,0-0.1c0-0.1-0.1-0.1-0.2-0.1c-0.1,0-0.2,0-0.4,0v-0.2h1.6v0.2c-0.2,0-0.3,0.1-0.4,0.1
		c-0.1,0.1-0.2,0.3-0.3,0.5l-1.8,4.3h-0.2l-1.8-4.2c-0.1-0.2-0.2-0.3-0.2-0.4c-0.1-0.1-0.2-0.2-0.3-0.2c-0.1,0-0.2-0.1-0.4-0.1V51.6
		z"/>
	<path class="st1" d="M79.3,51.4v1.7h-0.2c-0.1-0.5-0.3-0.9-0.5-1.1c-0.2-0.2-0.5-0.3-0.8-0.3c-0.3,0-0.5,0.1-0.6,0.2
		c-0.2,0.1-0.2,0.3-0.2,0.4c0,0.2,0.1,0.4,0.2,0.5c0.1,0.1,0.3,0.3,0.7,0.5l0.8,0.4c0.7,0.4,1.1,0.8,1.1,1.4c0,0.5-0.2,0.8-0.5,1.1
		c-0.3,0.3-0.7,0.4-1.2,0.4c-0.3,0-0.7-0.1-1-0.2c-0.1,0-0.2-0.1-0.3-0.1c-0.1,0-0.1,0-0.2,0.1h-0.2v-1.8h0.2
		c0.1,0.5,0.3,0.9,0.6,1.2c0.3,0.3,0.6,0.4,1,0.4c0.3,0,0.5-0.1,0.6-0.2s0.2-0.3,0.2-0.5c0-0.3-0.1-0.5-0.3-0.6
		c-0.2-0.2-0.5-0.4-1.1-0.6c-0.5-0.3-0.9-0.5-1-0.7c-0.2-0.2-0.2-0.5-0.2-0.8c0-0.4,0.1-0.8,0.4-1c0.3-0.3,0.6-0.4,1.1-0.4
		c0.2,0,0.4,0,0.7,0.1c0.2,0.1,0.3,0.1,0.4,0.1c0.1,0,0.1,0,0.1,0c0,0,0.1-0.1,0.1-0.2H79.3z"/>
	<path class="st1" d="M81.9,48.8v5l1.3-1.2c0.3-0.2,0.4-0.4,0.5-0.5c0,0,0-0.1,0-0.1c0-0.1,0-0.1-0.1-0.2c-0.1-0.1-0.2-0.1-0.3-0.1
		v-0.2h2.2v0.2c-0.3,0-0.5,0.1-0.7,0.1s-0.4,0.2-0.7,0.4l-1.3,1.2l1.3,1.6c0.4,0.4,0.6,0.7,0.7,0.9c0.2,0.2,0.3,0.3,0.5,0.3
		c0.1,0,0.2,0.1,0.5,0.1v0.2h-2.4v-0.2c0.1,0,0.2,0,0.3-0.1s0.1-0.1,0.1-0.2c0-0.1-0.1-0.2-0.2-0.4l-1.5-2v1.7c0,0.3,0,0.5,0.1,0.6
		c0,0.1,0.1,0.2,0.2,0.2s0.3,0.1,0.5,0.1v0.2h-2.5v-0.2c0.3,0,0.4,0,0.6-0.1c0.1,0,0.1-0.1,0.2-0.2c0.1-0.1,0.1-0.3,0.1-0.6v-4.6
		c0-0.6,0-0.9,0-1.1c0-0.1-0.1-0.2-0.1-0.3s-0.1-0.1-0.2-0.1c-0.1,0-0.2,0-0.3,0.1l-0.1-0.2l1.5-0.6H81.9z"/>
	<path class="st1" d="M85.7,51.6H88v0.2h-0.1c-0.2,0-0.3,0-0.4,0.1s-0.1,0.2-0.1,0.3c0,0.1,0.1,0.3,0.2,0.6l1.2,2.5l1.1-2.8
		C90,52.3,90,52.2,90,52c0-0.1,0-0.1,0-0.1c0,0-0.1-0.1-0.1-0.1c-0.1,0-0.2,0-0.3,0v-0.2h1.6v0.2c-0.1,0-0.2,0-0.3,0.1
		c-0.1,0-0.2,0.1-0.2,0.2c0,0.1-0.1,0.2-0.2,0.4l-2,5c-0.2,0.5-0.5,0.9-0.8,1.1C87.3,58.9,87,59,86.7,59c-0.2,0-0.4-0.1-0.5-0.2
		C86,58.7,86,58.5,86,58.4c0-0.2,0.1-0.3,0.2-0.4c0.1-0.1,0.2-0.1,0.4-0.1c0.1,0,0.3,0,0.5,0.1c0.1,0.1,0.2,0.1,0.3,0.1
		c0.1,0,0.2-0.1,0.4-0.2c0.1-0.1,0.3-0.3,0.4-0.7l0.4-0.9l-1.8-3.8c-0.1-0.1-0.1-0.3-0.3-0.4c-0.1-0.1-0.2-0.2-0.2-0.3
		c-0.1-0.1-0.2-0.1-0.4-0.2V51.6z M89.6,49L88,50.9h-0.2l0.6-1.9H89.6z"/>
</g>
<g class="st0">
	<path class="st1" d="M20.6,67v-0.1h0.2c0.2,0,0.4-0.1,0.5-0.2c0.1-0.1,0.1-0.3,0.1-0.6v-3.3c0-0.3,0-0.5-0.1-0.6
		C21.1,62.1,21,62,20.8,62h-0.2v-0.1h2.1c0.8,0,1.3,0.1,1.7,0.3s0.7,0.5,1,0.9c0.2,0.4,0.4,0.9,0.4,1.4c0,0.7-0.2,1.3-0.6,1.8
		c-0.5,0.5-1.2,0.8-2.2,0.8H20.6z M22,66.7c0.3,0.1,0.6,0.1,0.8,0.1c0.6,0,1.1-0.2,1.5-0.6s0.6-1,0.6-1.7c0-0.7-0.2-1.3-0.6-1.7
		s-0.9-0.6-1.5-0.6c-0.2,0-0.5,0-0.8,0.1V66.7z"/>
	<path class="st1" d="M28.2,66.5c-0.4,0.3-0.6,0.4-0.7,0.5c-0.1,0.1-0.3,0.1-0.4,0.1c-0.2,0-0.4-0.1-0.6-0.2
		c-0.2-0.2-0.2-0.4-0.2-0.6c0-0.2,0-0.3,0.1-0.4c0.1-0.2,0.3-0.3,0.5-0.5s0.7-0.3,1.3-0.6v-0.1c0-0.3-0.1-0.6-0.2-0.7
		c-0.1-0.1-0.3-0.2-0.5-0.2c-0.2,0-0.3,0-0.4,0.1c-0.1,0.1-0.1,0.2-0.1,0.3l0,0.2c0,0.1,0,0.2-0.1,0.3c-0.1,0.1-0.1,0.1-0.2,0.1
		c-0.1,0-0.2,0-0.2-0.1s-0.1-0.2-0.1-0.3c0-0.2,0.1-0.4,0.3-0.6c0.2-0.2,0.5-0.3,0.9-0.3c0.3,0,0.6,0.1,0.8,0.2
		c0.1,0.1,0.3,0.2,0.3,0.4c0,0.1,0.1,0.3,0.1,0.7v1.2c0,0.3,0,0.5,0,0.6c0,0.1,0,0.1,0.1,0.1c0,0,0.1,0,0.1,0c0,0,0.1,0,0.1,0
		c0.1,0,0.2-0.1,0.3-0.3v0.2c-0.3,0.4-0.6,0.6-0.8,0.6c-0.1,0-0.2,0-0.3-0.1C28.3,66.9,28.2,66.7,28.2,66.5z M28.2,66.3V65
		c-0.4,0.2-0.6,0.3-0.7,0.3c-0.2,0.1-0.3,0.2-0.4,0.3s-0.1,0.3-0.1,0.4c0,0.2,0.1,0.3,0.2,0.5c0.1,0.1,0.2,0.2,0.4,0.2
		C27.7,66.7,27.9,66.5,28.2,66.3z"/>
	<path class="st1" d="M30.7,64.2c0.4-0.5,0.8-0.7,1.2-0.7c0.2,0,0.4,0,0.5,0.1s0.2,0.2,0.3,0.5c0.1,0.2,0.1,0.4,0.1,0.7v1.5
		c0,0.2,0,0.4,0.1,0.4c0,0.1,0.1,0.1,0.1,0.1c0.1,0,0.2,0.1,0.3,0.1V67h-1.7v-0.1h0.1c0.2,0,0.3,0,0.3-0.1c0.1,0,0.1-0.1,0.1-0.2
		c0,0,0-0.2,0-0.4v-1.4c0-0.3,0-0.5-0.1-0.7c-0.1-0.1-0.2-0.2-0.4-0.2c-0.3,0-0.6,0.2-0.9,0.5v1.8c0,0.2,0,0.4,0,0.4
		c0,0.1,0.1,0.1,0.1,0.2c0.1,0,0.2,0.1,0.4,0.1V67h-1.7v-0.1h0.1c0.2,0,0.3,0,0.4-0.1c0.1-0.1,0.1-0.3,0.1-0.5V65c0-0.4,0-0.7,0-0.8
		S30,64,30,64c0,0-0.1,0-0.2,0c-0.1,0-0.2,0-0.3,0.1l-0.1-0.1l1-0.4h0.2V64.2z M31.7,63H31l-0.7-1.2h0.1l1,0.8l0.9-0.8h0.1L31.7,63z
		"/>
	<path class="st1" d="M35.3,63.5c0.5,0,0.9,0.2,1.3,0.6c0.3,0.3,0.4,0.7,0.4,1.2c0,0.3-0.1,0.6-0.2,0.9c-0.1,0.3-0.4,0.6-0.6,0.7
		c-0.3,0.2-0.6,0.2-0.9,0.2c-0.5,0-0.9-0.2-1.2-0.6c-0.3-0.3-0.4-0.7-0.4-1.2c0-0.3,0.1-0.6,0.2-0.9s0.4-0.5,0.6-0.7
		S35,63.5,35.3,63.5z M35.2,63.7c-0.1,0-0.3,0-0.4,0.1s-0.2,0.2-0.3,0.4c-0.1,0.2-0.1,0.5-0.1,0.8c0,0.5,0.1,0.9,0.3,1.3
		s0.5,0.5,0.8,0.5c0.2,0,0.4-0.1,0.6-0.3c0.2-0.2,0.2-0.5,0.2-1c0-0.6-0.1-1.1-0.4-1.5C35.7,63.8,35.4,63.7,35.2,63.7z"/>
	<path class="st1" d="M37.3,63.6h1.6v0.1h-0.1c-0.1,0-0.2,0-0.2,0.1c-0.1,0-0.1,0.1-0.1,0.2c0,0.1,0,0.2,0.1,0.3l0.8,1.9l0.8-2
		c0.1-0.1,0.1-0.2,0.1-0.3c0,0,0-0.1,0-0.1c0,0-0.1-0.1-0.1-0.1c0,0-0.1,0-0.3,0v-0.1H41v0.1c-0.1,0-0.2,0-0.3,0.1
		c-0.1,0.1-0.2,0.2-0.2,0.4l-1.2,3h-0.2l-1.2-2.9c-0.1-0.1-0.1-0.2-0.2-0.3c-0.1-0.1-0.1-0.1-0.2-0.1c0,0-0.1,0-0.3-0.1V63.6z"/>
	<path class="st1" d="M41.1,63.6h1.6v0.1h-0.1c-0.1,0-0.2,0-0.3,0.1c-0.1,0-0.1,0.1-0.1,0.2c0,0.1,0,0.2,0.1,0.4l0.8,1.7l0.8-1.9
		c0-0.1,0.1-0.2,0.1-0.3c0,0,0-0.1,0-0.1c0,0-0.1,0-0.1-0.1c0,0-0.1,0-0.2,0v-0.1h1.1v0.1c-0.1,0-0.2,0-0.2,0.1s-0.1,0.1-0.2,0.2
		c0,0-0.1,0.1-0.1,0.3L43,67.7c-0.1,0.3-0.3,0.6-0.5,0.8c-0.2,0.2-0.4,0.3-0.6,0.3c-0.1,0-0.3,0-0.4-0.1s-0.1-0.2-0.1-0.3
		c0-0.1,0-0.2,0.1-0.3c0.1-0.1,0.2-0.1,0.3-0.1c0.1,0,0.2,0,0.3,0.1c0.1,0,0.2,0.1,0.2,0.1c0.1,0,0.2,0,0.2-0.1s0.2-0.2,0.3-0.5
		l0.2-0.6l-1.2-2.6c0-0.1-0.1-0.2-0.2-0.3c-0.1-0.1-0.1-0.1-0.2-0.2c-0.1,0-0.2-0.1-0.3-0.1V63.6z M43.8,61.8l-1.1,1.3h-0.1l0.4-1.3
		H43.8z"/>
	<path class="st1" d="M46.9,63.9l1.1-0.4h0.1v0.8c0.2-0.3,0.4-0.5,0.5-0.6c0.2-0.1,0.4-0.2,0.6-0.2c0.3,0,0.6,0.1,0.9,0.4
		c0.3,0.3,0.4,0.8,0.4,1.3c0,0.6-0.2,1.1-0.5,1.5c-0.3,0.3-0.6,0.5-1.1,0.5c-0.2,0-0.3,0-0.5-0.1c-0.1,0-0.2-0.1-0.3-0.2v1.1
		c0,0.2,0,0.4,0,0.5c0,0.1,0.1,0.1,0.2,0.2c0.1,0,0.2,0.1,0.4,0.1v0.1h-1.8v-0.1h0.1c0.1,0,0.3,0,0.4-0.1c0,0,0.1-0.1,0.1-0.1
		c0-0.1,0-0.2,0-0.5v-3.3c0-0.2,0-0.4,0-0.4c0-0.1-0.1-0.1-0.1-0.1s-0.1,0-0.2,0c-0.1,0-0.1,0-0.2,0.1L46.9,63.9z M48.1,64.5v1.3
		c0,0.3,0,0.5,0,0.6c0,0.1,0.1,0.3,0.3,0.4c0.1,0.1,0.3,0.2,0.5,0.2c0.3,0,0.5-0.1,0.6-0.3c0.2-0.3,0.3-0.6,0.3-1.1
		c0-0.5-0.1-0.9-0.3-1.2c-0.2-0.2-0.4-0.3-0.6-0.3c-0.1,0-0.2,0-0.4,0.1C48.4,64.1,48.3,64.3,48.1,64.5z"/>
	<path class="st1" d="M52.7,63.5c0.5,0,0.9,0.2,1.3,0.6c0.3,0.3,0.4,0.7,0.4,1.2c0,0.3-0.1,0.6-0.2,0.9s-0.4,0.6-0.6,0.7
		c-0.3,0.2-0.6,0.2-0.9,0.2c-0.5,0-0.9-0.2-1.2-0.6c-0.3-0.3-0.4-0.7-0.4-1.2c0-0.3,0.1-0.6,0.2-0.9s0.4-0.5,0.6-0.7
		S52.4,63.5,52.7,63.5z M52.6,63.7c-0.1,0-0.3,0-0.4,0.1s-0.2,0.2-0.3,0.4c-0.1,0.2-0.1,0.5-0.1,0.8c0,0.5,0.1,0.9,0.3,1.3
		s0.5,0.5,0.8,0.5c0.2,0,0.4-0.1,0.6-0.3c0.2-0.2,0.2-0.5,0.2-1c0-0.6-0.1-1.1-0.4-1.5C53.1,63.8,52.8,63.7,52.6,63.7z"/>
	<path class="st1" d="M55.9,63.5v0.8c0.3-0.5,0.6-0.8,0.9-0.8c0.1,0,0.3,0,0.3,0.1c0.1,0.1,0.1,0.2,0.1,0.3c0,0.1,0,0.2-0.1,0.2
		c-0.1,0.1-0.1,0.1-0.2,0.1c-0.1,0-0.2,0-0.3-0.1S56.4,64,56.4,64c0,0-0.1,0-0.1,0.1c-0.1,0.1-0.2,0.3-0.4,0.5v1.7
		c0,0.2,0,0.3,0.1,0.4c0,0.1,0.1,0.1,0.2,0.2c0.1,0,0.2,0.1,0.4,0.1V67h-1.8v-0.1c0.2,0,0.3,0,0.4-0.1c0.1,0,0.1-0.1,0.1-0.2
		c0,0,0-0.2,0-0.4v-1.3c0-0.4,0-0.6,0-0.7c0-0.1,0-0.1-0.1-0.2S55,64,55,64c-0.1,0-0.2,0-0.3,0.1l0-0.1l1-0.4H55.9z"/>
	<path class="st1" d="M59.4,66.5C59,66.8,58.8,67,58.7,67c-0.1,0.1-0.3,0.1-0.4,0.1c-0.2,0-0.4-0.1-0.6-0.2
		c-0.2-0.2-0.2-0.4-0.2-0.6c0-0.2,0-0.3,0.1-0.4c0.1-0.2,0.3-0.3,0.5-0.5c0.3-0.2,0.7-0.3,1.3-0.6v-0.1c0-0.3-0.1-0.6-0.2-0.7
		c-0.1-0.1-0.3-0.2-0.5-0.2c-0.2,0-0.3,0-0.4,0.1c-0.1,0.1-0.1,0.2-0.1,0.3l0,0.2c0,0.1,0,0.2-0.1,0.3c-0.1,0.1-0.1,0.1-0.2,0.1
		c-0.1,0-0.2,0-0.2-0.1c-0.1-0.1-0.1-0.2-0.1-0.3c0-0.2,0.1-0.4,0.3-0.6c0.2-0.2,0.5-0.3,0.9-0.3c0.3,0,0.6,0.1,0.8,0.2
		c0.1,0.1,0.3,0.2,0.3,0.4c0,0.1,0.1,0.3,0.1,0.7v1.2c0,0.3,0,0.5,0,0.6c0,0.1,0,0.1,0.1,0.1c0,0,0.1,0,0.1,0c0,0,0.1,0,0.1,0
		c0.1,0,0.2-0.1,0.3-0.3v0.2c-0.3,0.4-0.6,0.6-0.8,0.6c-0.1,0-0.2,0-0.3-0.1S59.4,66.7,59.4,66.5z M59.4,66.3V65
		c-0.4,0.2-0.6,0.3-0.7,0.3c-0.2,0.1-0.3,0.2-0.4,0.3c-0.1,0.1-0.1,0.3-0.1,0.4c0,0.2,0.1,0.3,0.2,0.5c0.1,0.1,0.2,0.2,0.4,0.2
		C58.8,66.7,59.1,66.5,59.4,66.3z"/>
	<path class="st1" d="M63.3,66.6c-0.2,0.2-0.3,0.3-0.5,0.4c-0.2,0.1-0.3,0.1-0.5,0.1c-0.4,0-0.7-0.2-1-0.5c-0.3-0.3-0.4-0.7-0.4-1.2
		s0.2-1,0.5-1.4c0.3-0.4,0.7-0.6,1.2-0.6c0.3,0,0.6,0.1,0.8,0.3v-0.6c0-0.4,0-0.6,0-0.7c0-0.1,0-0.2-0.1-0.2c0,0-0.1,0-0.2,0
		c-0.1,0-0.2,0-0.3,0.1l0-0.1l1-0.4h0.2v4c0,0.4,0,0.7,0,0.7c0,0.1,0,0.2,0.1,0.2c0,0,0.1,0.1,0.1,0.1c0.1,0,0.2,0,0.3-0.1l0,0.1
		l-1,0.4h-0.2V66.6z M63.3,66.4v-1.8c0-0.2-0.1-0.3-0.1-0.5c-0.1-0.1-0.2-0.2-0.3-0.3c-0.1-0.1-0.2-0.1-0.4-0.1
		c-0.2,0-0.4,0.1-0.6,0.3c-0.2,0.3-0.3,0.6-0.3,1.1c0,0.5,0.1,0.9,0.3,1.2s0.5,0.4,0.7,0.4C62.9,66.7,63.1,66.6,63.3,66.4z"/>
	<path class="st1" d="M67.7,65.7c-0.1,0.5-0.3,0.8-0.5,1.1c-0.3,0.2-0.6,0.4-0.9,0.4c-0.4,0-0.7-0.2-1-0.5c-0.3-0.3-0.4-0.8-0.4-1.3
		c0-0.5,0.2-1,0.5-1.3c0.3-0.3,0.7-0.5,1.2-0.5c0.3,0,0.6,0.1,0.8,0.3c0.2,0.2,0.3,0.4,0.3,0.6c0,0.1,0,0.2-0.1,0.2
		c-0.1,0.1-0.1,0.1-0.3,0.1c-0.1,0-0.3,0-0.3-0.1c0-0.1-0.1-0.2-0.1-0.3s-0.1-0.3-0.2-0.3c-0.1-0.1-0.2-0.1-0.4-0.1
		c-0.3,0-0.5,0.1-0.6,0.3c-0.2,0.2-0.3,0.6-0.3,1c0,0.4,0.1,0.8,0.3,1.1c0.2,0.3,0.5,0.5,0.8,0.5c0.2,0,0.5-0.1,0.7-0.3
		c0.1-0.1,0.3-0.3,0.4-0.6L67.7,65.7z"/>
	<path class="st1" d="M68.7,64.9c0,0.5,0.1,0.9,0.4,1.2s0.5,0.4,0.9,0.4c0.2,0,0.4-0.1,0.6-0.2c0.2-0.1,0.3-0.3,0.4-0.6l0.1,0.1
		c-0.1,0.3-0.2,0.7-0.5,0.9c-0.3,0.3-0.6,0.4-1,0.4c-0.4,0-0.8-0.2-1.1-0.5c-0.3-0.3-0.4-0.8-0.4-1.3c0-0.6,0.2-1.1,0.5-1.4
		c0.3-0.3,0.7-0.5,1.1-0.5c0.4,0,0.7,0.1,1,0.4c0.2,0.3,0.4,0.6,0.4,1H68.7z M68.7,64.6h1.6c0-0.2,0-0.4-0.1-0.5
		c-0.1-0.1-0.2-0.3-0.3-0.3c-0.1-0.1-0.3-0.1-0.4-0.1c-0.2,0-0.4,0.1-0.6,0.2S68.8,64.4,68.7,64.6z"/>
</g>
<g>
	<polygon class="st1" points="73.3,4.9 73.3,4.9 73.3,4.9 	"/>
	<path class="st1" d="M19.1,27.4L19.1,27.4L19.1,27.4z"/>
	<path class="st1" d="M86.4,44.5L86.4,44.5L86.4,44.5z"/>
	<path class="st1" d="M56.9,29.9c-1.4,2.3-4.5,5.5-10.9,8.2c-6.4-2.7-9.4-6-10.9-8.2c-1.6-2.5-1.6-4.3-1.6-4.3v-5.5
		c0,0,0,0.1-0.1,0.1l0,0l0,0l-0.1,0.1c0.1,0.2,0.1,0.5-0.1,0.9c-0.2,0.3-0.9,0.6-1.6,0.7v3.7c0,0.3,0.2,8.6,14,14.4l0.4,0.1l0.4-0.1
		c13.8-5.8,14-14,14-14.4v-3.7c-0.7-0.1-1.4-0.4-1.6-0.7c-0.2-0.3-0.2-0.7-0.1-0.9l-0.1-0.1l0,0l0,0c0,0,0-0.1-0.1-0.1v5.5
		C58.5,25.6,58.4,27.4,56.9,29.9z"/>
	<polygon class="st1" points="59.7,17.5 59.7,17.5 59.7,17.5 59.7,17.5 	"/>
	<path class="st1" d="M33.2,17c0.1,0.2,0.2,0.3,0.3,0.4V9.1c2.4,0.4,8.2,0.7,12.5-3.5c4.3,4.2,10.1,3.9,12.5,3.5v8.4
		c0.1-0.1,0.2-0.2,0.3-0.4c0.4-0.4,1-0.6,1.6-0.6V8V6.8l-1.1,0.3c-0.1,0-7.8,1.9-12.5-3.4L46,2.8l-0.7,0.8C40.6,8.9,32.9,7.1,32.8,7
		l-1.1-0.3v9.7C32.3,16.5,32.9,16.6,33.2,17z"/>
	<polygon class="st1" points="32.3,17.5 32.3,17.5 32.3,17.5 	"/>
	<path class="st1" d="M46.3,6.9L46,6.6l-0.3,0.3C41.9,10.6,35,10.1,35,10.1h-0.5v15.8l0,0c0,0.3,0.7,6.2,11.3,11.3l0.2,0.1l0.2-0.1
		c10.9-5.2,11.3-11,11.3-11.3V10H57C57,10.1,50.1,10.8,46.3,6.9z M56.6,25.9c0,0.1-0.1,1.5-1.4,3.4c-1.2,1.8-3.9,4.5-9.2,7.1
		c-9.7-4.7-10.6-10.2-10.6-10.5V11c1.6,0,7.1,0,10.6-3.2c3.5,3.3,9,3.2,10.7,3.1v15H56.6z"/>
	<path class="st1" d="M48,17c0.1,0,0.1,0,0.2,0.1l0,0h0.1l0,0l0,0l1.4-3.5v8.1c0,0.7-0.1,1.1-0.2,1.3c-0.2,0.3-0.5,0.5-1,0.5h-0.3
		v0.2h4.3v-0.2h-0.3c-0.4,0-0.8-0.1-1-0.4C51,22.9,51,22.5,51,21.7v-7.6c0-0.7,0.1-1.1,0.2-1.3l0,0c0.2-0.3,0.5-0.5,1-0.5h0.3v-0.2
		h-2.8l-1.9,4.7C47.9,16.9,47.9,16.9,48,17L48,17z"/>
	<path class="st1" d="M48,17L48,17L48,17z"/>
	<path class="st1" d="M48.3,17.1L48.3,17.1L48.3,17.1z"/>
	<path class="st1" d="M48.2,17L48.2,17L48.2,17z"/>
	<path class="st1" d="M47.7,18.1C47.6,18.1,47.6,18.1,47.7,18.1c-0.1-0.1-0.2-0.1-0.2-0.2L46,21.3l-3.8-9.2h-2.8v0.2
		c0.4,0,0.7,0.1,0.9,0.2c0.2,0.1,0.3,0.3,0.4,0.4c0.1,0.2,0.2,0.6,0.2,1.1v7.6c0,0.7-0.1,1.1-0.2,1.3c-0.2,0.3-0.5,0.5-1,0.5h-0.3
		v0.2h3.5v-0.2h-0.3c-0.4,0-0.8-0.1-1-0.4c-0.1-0.2-0.2-0.6-0.2-1.4v-8.1l2,4.8l0.1,0.2l0,0l2.1,5.1h0.2l0.5-1.2l0,0l1.7-4.1
		C47.8,18.2,47.7,18.2,47.7,18.1z"/>
	<path class="st1" d="M47.6,18C47.6,18.1,47.6,18.1,47.6,18C47.6,18.1,47.6,18.1,47.6,18z"/>
	<path class="st1" d="M44.5,17.3c0.4-0.2,0.9-0.2,1.5-0.2c0.4,0.1,0.8,0.2,1.2,0.5c0.1,0,0.1,0.1,0.2,0.1c0.2,0.1,0.3,0.2,0.4,0.3
		l0.1,0.1c0.2,0.2,0.4,0.5,0.5,0.8c0.3,0.6,0.5,1.3,0.6,2.2h0.2v-4.8H49c-0.1,0.3-0.2,0.5-0.3,0.6s-0.3,0.2-0.5,0.2l0,0V17v0.1
		c-0.2,0-0.4-0.1-0.7-0.2h-0.1c-0.6-0.3-1.1-0.4-1.7-0.5c-0.6-0.1-1.2,0-1.8,0.2L44.5,17.3z"/>
	<path class="st1" d="M46,16.5c0.5,0.1,1.1,0.2,1.7,0.5h0.1c0.3,0.1,0.5,0.2,0.7,0.2v-0.1v0.1l0,0c0.2,0,0.3-0.1,0.5-0.2
		c0.1-0.1,0.2-0.3,0.3-0.6h0.2v4.8h-0.2c-0.1-0.9-0.3-1.7-0.6-2.2c-0.1-0.3-0.3-0.5-0.5-0.8l-0.1-0.1c-0.1-0.1-0.3-0.2-0.4-0.3
		c-0.1,0-0.1-0.1-0.2-0.1c-0.4-0.2-0.8-0.4-1.2-0.5c-0.6-0.1-1.1,0-1.5,0.2l-0.3-0.7C44.7,16.4,45.3,16.4,46,16.5z"/>
	<polygon class="st1" points="46.7,15.5 48.5,12.2 48.3,12.2 46.1,14.4 43.4,12.2 43.3,12.2 45,15.5 	"/>
	<path class="st1" d="M43.4,12.2l2.7,2.2l2.2-2.2h0.1l-1.8,3.3H45l-1.8-3.3H43.4z"/>
	<path class="st1" d="M48.9,24.3c-0.4-0.4-1.3-0.9-2.5-1.6c-0.1,0-0.1-0.1-0.2-0.1l-0.5,1.1h-0.3l-0.9-2.3c-0.4-0.3-0.8-0.6-1-0.9
		c-0.3-0.4-0.4-0.8-0.4-1.2c0-0.3,0.1-0.6,0.2-0.8l-0.4-1.1c0,0,0,0-0.1,0.1c-0.7,0.7-1.1,1.6-1.1,2.6c0,0.6,0.1,1.1,0.4,1.6
		c0.2,0.5,0.6,0.9,1.1,1.3s1.3,0.9,2.4,1.6c0.2,0.1,0.4,0.2,0.5,0.3c0.8,0.5,1.3,0.8,1.5,1c0.4,0.3,0.7,0.7,0.8,1
		c0.2,0.3,0.2,0.6,0.3,1l0,0V28c0,0.6-0.2,1.2-0.7,1.7s-1.1,0.7-2,0.7l0,0c-0.7,0-1.4-0.2-1.9-0.5c-0.6-0.3-1-0.8-1.3-1.3
		c-0.1-0.2-0.2-0.4-0.3-0.7c-0.1-0.4-0.3-0.9-0.4-1.6h-0.2V31h0.2c0-0.3,0.1-0.5,0.2-0.6c0.1-0.1,0.3-0.2,0.4-0.2
		c0.2,0,0.6,0.1,1.2,0.3c0.6,0.2,1,0.3,1.2,0.4c0.3,0,0.5,0.1,0.8,0.1c0.1,0,0.1,0,0.2,0c1.2,0,2.2-0.4,2.9-1.1
		c0.6-0.6,0.9-1.3,1.1-2.1c0-0.2,0.1-0.5,0.1-0.7c0-0.6-0.1-1.1-0.4-1.6C49.7,25.1,49.3,24.7,48.9,24.3z"/>
	<path class="st1" d="M50.2,27.9c-0.1,0.8-0.5,1.5-1.1,2.1c-0.8,0.8-1.7,1.1-2.9,1.1c-0.1,0-0.2,0-0.2,0c-0.3,0-0.6,0-0.8-0.1
		c-0.2,0-0.6-0.2-1.2-0.4c-0.6-0.2-1-0.3-1.2-0.3s-0.3,0.1-0.4,0.2c-0.1,0.1-0.2,0.3-0.2,0.6H42v-4.7h0.2c0.1,0.6,0.2,1.1,0.4,1.6
		c0.1,0.3,0.2,0.5,0.3,0.7c0.3,0.5,0.7,0.9,1.3,1.3c0.6,0.3,1.2,0.5,1.9,0.5l0,0c0.8,0,1.5-0.2,2-0.7s0.7-1,0.7-1.7V28l0,0
		c0-0.3-0.1-0.6-0.3-1s-0.5-0.7-0.8-1c-0.2-0.2-0.7-0.5-1.5-1c-0.2-0.1-0.3-0.2-0.5-0.3c-1.1-0.7-1.9-1.2-2.4-1.6s-0.8-0.8-1.1-1.3
		c-0.2-0.5-0.4-1-0.4-1.6c0-1,0.4-1.9,1.1-2.6c0,0,0,0,0.1-0.1l0.4,1.1c-0.1,0.3-0.2,0.5-0.2,0.8c0,0.4,0.1,0.9,0.4,1.2
		c0.2,0.3,0.5,0.5,1,0.9l0.9,2.3h0.3l0.5-1.1c0.1,0,0.1,0.1,0.2,0.1c1.2,0.7,2.1,1.3,2.5,1.6c0.4,0.4,0.8,0.8,1,1.3s0.4,1,0.4,1.6
		C50.3,27.5,50.3,27.7,50.2,27.9z"/>
	<path class="st1" d="M30.4,7.6c0.2-0.3,0.4-0.5,0.5-0.7c0.2-0.2,0.3-0.4,0.4-0.5C31.5,6.1,31.6,6,31.6,6s-0.1,0-0.3,0.3
		c-0.1,0.1-0.3,0.3-0.4,0.5C30.7,7,30.6,7.3,30.4,7.6C30.2,7.8,30,8,29.9,8.3v0.1C30.1,8.1,30.3,7.8,30.4,7.6z"/>
	<path class="st1" d="M44.7,40.8c-0.5-0.2-1-0.4-1.5-0.6c-0.5-0.2-1.1-0.4-1.7-0.7c-1.1-0.5-2.3-1.1-3.5-1.9
		c-1.2-0.7-2.4-1.6-3.5-2.5c-0.6-0.5-1.1-1-1.7-1.5c-0.5-0.5-1.1-1.1-1.6-1.7c-1-1.2-1.8-2.4-2.5-3.8c-0.3-0.7-0.6-1.4-0.8-2
		l-0.2-0.5c0-0.2-0.1-0.4-0.1-0.5c0-0.2-0.1-0.4-0.1-0.5c0-0.2-0.1-0.4-0.1-0.5c-0.1-0.4-0.1-0.7-0.2-1.1c0-0.1,0-0.2,0-0.3
		c-0.1,0.1-0.2,0.2-0.3,0.3v0.1c0.1,0.4,0.1,0.7,0.2,1.1c0,0.2,0.1,0.4,0.1,0.5c0,0.2,0.1,0.4,0.1,0.5c0,0.2,0.1,0.4,0.1,0.5
		l0.2,0.5c0.2,0.7,0.5,1.4,0.8,2.1c0.7,1.4,1.6,2.6,2.6,3.8c0.5,0.6,1,1.1,1.6,1.7c0.6,0.5,1.1,1,1.7,1.5c1.2,1,2.4,1.8,3.6,2.5
		c1.2,0.7,2.4,1.3,3.6,1.8C42.7,40.1,43.8,40.5,44.7,40.8c0.4,0.1,0.8,0.3,1.2,0.4c0,0,0.1,0,0.1-0.1C45.6,41.1,45.2,40.9,44.7,40.8
		z"/>
	<path class="st1" d="M47.2,41.7c1.4,0.4,2.2,0.6,2.2,0.6S48.7,42.1,47.2,41.7c-0.3-0.2-0.7-0.3-1.1-0.4c-0.1,0-0.1,0-0.1,0
		C46.4,41.4,46.9,41.6,47.2,41.7z"/>
	<path class="st1" d="M35.8,40c-4.4,1.6-13,0.3-15.4-0.5c0,0,12.1,4.3,20.4,0.8C40.9,40.4,38.7,38.9,35.8,40z"/>
	<path class="st1" d="M37.4,38.8c0,0-1.7-1.5-4.1-0.9c-1.9,0.4-4.2,0.7-5.7,0.4l-0.1,0.1C28.9,39.2,32.1,40.3,37.4,38.8z"/>
	<path class="st1" d="M31.9,34.3c0,0-1.5-2-4.5-2.1c-2.8-0.1-3.8-0.3-4.5-1.1c0,0,0,0,0,0.1C23.3,32.1,25.5,34.6,31.9,34.3z"/>
	<path class="st1" d="M23.2,29.7c1.2,0.7,3.1,1.4,6,1.6c0,0-1.1-2.2-4-2.7c-0.8-0.1-1.5-0.3-2.1-0.4C23.2,28.7,23.2,29.1,23.2,29.7z
		"/>
	<path class="st1" d="M27.7,28.8c0,0-0.9-2.2-3.7-3c-0.8-0.2-1.5-0.4-2-0.6c-0.4,0.2-0.8,0.4-1,0.5C22,26.9,23.9,28.2,27.7,28.8z"/>
	<path class="st1" d="M23.5,23.6c0,0.2,0,0.6-0.4,1L23,24.7c0.9,0.6,2.2,1.1,3.8,1.5c0,0-0.4-1.9-2.6-3c-0.1,0-0.1,0.1-0.2,0.1
		C23.8,23.4,23.6,23.5,23.5,23.6z"/>
	<path class="st1" d="M25,23.1c0.4,0.2,0.8,0.3,1.2,0.5c0,0,0-0.2-0.1-0.4C25.8,23.1,25.4,23.1,25,23.1z"/>
	<path class="st1" d="M64.8,22.6c0,0.1,0,0.2,0,0.3c-0.1,0.3-0.1,0.7-0.2,1.1c0,0.2-0.1,0.4-0.1,0.5c0,0.2-0.1,0.4-0.1,0.5
		c0,0.2-0.1,0.4-0.1,0.5L64,26.1c-0.2,0.7-0.5,1.4-0.8,2c-0.7,1.3-1.5,2.6-2.5,3.8c-0.5,0.6-1,1.1-1.6,1.7c-0.5,0.5-1.1,1-1.7,1.5
		c-1.2,0.9-2.3,1.8-3.5,2.5s-2.4,1.4-3.5,1.9c-0.6,0.3-1.1,0.5-1.7,0.7c-0.5,0.2-1,0.4-1.5,0.6c-0.4,0.2-0.9,0.3-1.2,0.4
		c-0.1,0-0.1,0-0.1,0.1c-0.4,0.1-0.8,0.3-1.1,0.4c-1.4,0.5-2.2,0.7-2.2,0.7s0.8-0.2,2.2-0.6c0.4-0.1,0.8-0.2,1.2-0.4h0.1
		c0.4-0.1,0.7-0.2,1.2-0.4c1-0.3,2.1-0.7,3.2-1.2c1.2-0.5,2.4-1.1,3.6-1.8c1.2-0.7,2.4-1.6,3.6-2.5c0.6-0.5,1.2-1,1.7-1.5
		c0.6-0.5,1.1-1.1,1.6-1.7c1-1.2,1.9-2.5,2.6-3.8c0.3-0.7,0.6-1.4,0.8-2.1l0.2-0.5c0-0.2,0.1-0.4,0.1-0.5c0-0.2,0.1-0.4,0.1-0.5
		c0-0.2,0.1-0.4,0.1-0.5c0.1-0.4,0.1-0.7,0.2-1.1v-0.1C65,22.8,64.9,22.7,64.8,22.6z"/>
	<path class="st1" d="M61.6,7.5c-0.2-0.3-0.4-0.5-0.5-0.7c-0.2-0.2-0.3-0.4-0.4-0.5c-0.2-0.3-0.4-0.4-0.4-0.4s0.1,0.2,0.3,0.4
		c0.1,0.1,0.3,0.3,0.4,0.5C61.2,7,61.4,7.3,61.6,7.5C61.7,7.8,61.8,8,62,8.3V8.2C61.9,8,61.8,7.7,61.6,7.5z"/>
	<path class="st1" d="M58.7,37.9c-2.4-0.6-4.1,0.9-4.1,0.9c5.3,1.4,8.5,0.4,9.9-0.4l-0.1-0.1C62.9,38.7,60.6,38.3,58.7,37.9z"/>
	<path class="st1" d="M65.7,35.2C66,35,66.4,35,66.8,35c1-0.7,1.5-1.3,1.5-1.3c-0.9,0.8-3.1,1.7-6.1,1.3c-2.9-0.3-4.7,1.4-4.7,1.4
		c3,0.6,5.3,0.3,7.1-0.4C64.8,35.8,65.2,35.4,65.7,35.2z"/>
	<path class="st1" d="M64.7,32.2c-3,0.1-4.5,2.1-4.5,2.1c6.4,0.4,8.5-2.2,9.1-3.1c0,0,0,0,0-0.1C68.5,31.9,67.4,32.1,64.7,32.2z"/>
	<path class="st1" d="M68.9,28.3c-0.5,0.1-1.2,0.2-2.1,0.3c-2.9,0.5-4,2.7-4,2.7c2.9-0.2,4.8-0.9,6-1.6
		C68.8,29.1,68.8,28.7,68.9,28.3z"/>
	<path class="st1" d="M68,25.8c-2.9,0.7-3.7,3-3.7,3c3.7-0.6,5.7-1.9,6.7-3c-0.2-0.1-0.6-0.3-1-0.5C69.5,25.4,68.9,25.6,68,25.8z"/>
	<path class="st1" d="M68.5,23.6c-0.1-0.1-0.3-0.2-0.5-0.3c-0.1,0-0.2-0.1-0.2-0.1c-2.1,1.1-2.6,3-2.6,3c1.6-0.4,2.8-0.9,3.8-1.5
		c-0.1,0-0.1-0.1-0.1-0.1C68.5,24.2,68.5,23.8,68.5,23.6z"/>
	<path class="st1" d="M65.9,23.1c-0.1,0.3-0.1,0.4-0.1,0.4c0.4-0.1,0.8-0.3,1.2-0.5C66.6,23.1,66.2,23.1,65.9,23.1z"/>
	<path class="st1" d="M84.6,6.8L84.6,6.8C84.5,6.8,84.5,6.8,84.6,6.8C84.5,6.8,84.6,6.8,84.6,6.8z"/>
	<path class="st1" d="M89,27.1c0.1,0,0.1-0.1,0.2-0.1c0.1-0.1,0.3-0.2,0.6-0.3c0.1-0.2,0.2-0.6,0.2-1.2c-0.1-1.5-1.6-2.5-2.4-3.1
		c-0.3-0.2-0.7-0.4-1.2-0.7c-1.4-0.8-3.2-1.8-3.7-2.8c-0.6-1.2-0.2-1.9,0-2.2c0,0,0,0,0-0.1c0.2-0.3,0.8-0.6,1.1-0.6
		c0.4,0,0.6,0.3,0.7,0.3l0.1,0.1v0.1c0,0.1-0.1,2.1,1.9,2.5c1.4,0.3,2.3,0,2.7-0.3c-0.1,0-0.8-0.4-1-0.5c0,0,0,0-0.1,0l0,0
		c-0.1,0-0.2-0.1-0.3-0.1h-0.1c-0.1,0-0.1-0.1-0.2-0.1l0,0c0,0,0,0-0.1-0.1l-0.1-0.1c-0.1-0.1-0.1-0.1-0.1-0.2l0,0
		c0-0.1-0.1-0.1-0.1-0.2c0,0,0-0.1-0.1-0.1l0,0c0-0.1,0-0.1,0-0.2v-0.7l0.5,0.5c0,0,0,0,0.1,0.1l0.1,0.1c0,0,0,0,0.1,0.1
		c0,0,0,0,0.1,0c0,0,0,0,0.1,0c0,0,0.1,0,0.1,0.1l0.2,0.1c0,0,0.1,0,0.1,0.1h0.1l0,0c0-0.1-0.1-0.1-0.1-0.2s-0.1-0.2-0.1-0.3
		c-0.2-0.5-0.5-1.4-1.4-1.7c-1.1-0.3-1.6,0-1.6,0l-0.2,0.1L85,15.3c0,0-0.4-0.3-1.4,0c-1.1,0.4-1.8,1.7-1.6,3
		c0.3,1.4,2.9,3.8,4.2,4.6c1,0.6,1.7,1.7,1.8,2.6c0.1,0.5-0.1,0.8-0.3,1.1c-0.5,0.6-1.7,0.5-3.4-0.2l0,0c-0.2-0.1-0.5-0.4-1-1.1
		c-0.4-0.5-0.9-1.2-1.2-1.3c-0.2-0.1-0.5-0.1-0.8-0.2c-0.7-0.1-1.5-0.3-1.9-0.6c-0.4-0.3-1-1.4-1.3-2.1l0,0h-0.2
		c-0.1,0-0.3,0-0.4-0.1c-0.1,0-0.1,0-0.2,0s-0.1,0-0.2-0.1c-0.1,0-0.3-0.1-0.4-0.1c-0.2-0.1-0.3-0.1-0.4-0.2s-0.2-0.1-0.4-0.2
		l-0.3-0.2l0,0c0,0,0,0-0.1,0l0,0c0,0,0,0-0.1,0h-0.1h-0.1c0,0,0,0-0.1,0l0,0c0,0,0,0-0.1,0l0,0l0,0l0,0h-0.1c0,0,0,0-0.1,0l0,0l0,0
		h-0.2V20c0-0.2,0.2-0.3,0.4-0.3l0,0c0.1,0,0.1,0,0.2,0l0,0h0.1l0,0h0.1l0,0h0.1h0.1c0,0,0.1,0,0.2,0.1l0.2,0.1c0,0,0.1,0,0.1,0.1
		c0,0,0,0,0.1,0c0.1,0.1,0.2,0.1,0.3,0.2c0.1,0.1,0.2,0.1,0.3,0.1c0.1,0,0.2,0.1,0.4,0.1c0.1,0,0.2,0.1,0.3,0.1
		c0.1,0,0.2,0.1,0.3,0.1c0.1,0,0.1,0,0.2,0c0.1-0.1,0.2-0.2,0.2-0.2c0-0.1,0-0.2,0-0.3c-0.1-0.1-0.2-0.3-0.3-0.5l-0.1-0.1
		c-0.1-0.1-0.2-0.3-0.3-0.5c-0.1-0.2-0.3-0.5-0.4-0.8c0-0.2-0.1-0.3-0.1-0.5c0-0.1,0-0.2,0-0.2v-0.1c0,0,0,0,0-0.1s0-0.1,0-0.2l0,0
		c0,0-0.1,0-0.1,0.1h-0.1c0,0-0.1,0-0.2,0.1c-0.1,0-0.3,0.1-0.4,0.1s-0.3,0-0.5,0h-0.1c-0.1,0-0.2,0-0.3,0h-0.1c-0.1,0-0.2,0-0.4,0
		h-0.1h-0.1h-0.1h-0.1h-0.1h-0.1h-0.1H74c-0.1,0-0.2,0.1-0.3,0.1l-0.1,0.1c0,0,0,0-0.1,0.1l0,0c0,0,0,0,0,0.1l0,0l0,0c0,0,0,0,0,0.1
		s-0.1,0.1-0.1,0.2c-0.4-0.1-0.4,0-0.4,0L72.7,19l0,0l0,0h0.1l0.1,0.5h-0.1c0,0-0.1,0-0.2,0.1s-0.2,0.2-0.4,0.3
		c-0.1,0.1-0.2,0.2-0.3,0.2c-0.1,0.1-0.1,0.1-0.2,0.2s-0.2,0.2-0.3,0.3c-0.1,0-0.1,0.1-0.2,0.1l-0.1,0.1c-0.1,0-0.1,0-0.1,0.1h-0.1
		h-0.1l0,0l0,0l0,0l0,0l0,0h-0.2l0,0c-0.1,0-0.2-0.1-0.3-0.1c-0.2-0.1-0.3-0.3-0.4-0.4c-0.1-0.2-0.2-0.3-0.3-0.4l-0.1-0.2l0,0h-0.2
		c-0.2,0-0.3,0-0.5,0.1c-0.4,0-0.7,0-1,0c-0.1,0-0.1,0-0.2,0h-0.1c-0.1,0-0.1,0-0.2,0l0,0h-0.1c-0.1,0-0.1,0-0.2,0s-0.2-0.1-0.3-0.1
		l-0.1-0.1l-0.1-0.1c-0.1,0-0.1-0.1-0.2-0.2S66,19.2,65.9,19c-0.1-0.1-0.1-0.2-0.2-0.3v-0.1c0,0,0-0.1-0.1-0.1l0,0l0,0l0,0
		c-0.3-0.1-0.7-0.2-1-0.3c-0.1,0.1-0.4,0.1-0.6,0.1c-0.3,0-0.7-0.2-1.2-0.5c-0.4-0.2-0.8-0.5-1.2-0.6c-0.8-0.2-1.9-0.2-2.3,0.2l0,0
		c0.1,0,0.2-0.1,0.3-0.1h0.3c0,0,0,0,0.1,0s0.3,0,0.4,0c0.1,0,0.2,0.1,0.3,0.1s0.2,0.1,0.3,0.1c0.3,0.2,0.5,0.3,0.5,0.4l0.6,0.6
		l-1-0.3c-0.1,0-0.2-0.1-0.3-0.1s-0.1,0-0.2,0c-0.1,0-0.2,0-0.2,0c-0.1,0-0.2,0-0.2,0l0,0h-0.1h-0.2c-0.1,0-0.1,0-0.2,0h-0.1h-0.1
		h-0.1h-0.1h-0.1l0,0c-0.1,0.1-0.2,0.4-0.2,0.7c0,0.2,0.1,0.4,0.2,0.6c0.1-0.1,0.1-0.2,0.2-0.3c0.1-0.1,0.2-0.2,0.3-0.3
		c0.1,0,0.1-0.1,0.2-0.1l0,0H60l0.1-0.1h0.1l0,0h0.2h0.1c0.1,0,0.2,0,0.3,0h0.1H61l0,0c0.1,0,0.2,0,0.2,0.1l0,0
		c0.1,0,0.1,0.1,0.2,0.1c0.1,0,0.1,0.1,0.1,0.1l0.1,0.1l0.5,0.7L61,19.5l0,0l0,0h-0.1l0,0h-0.1c0,0,0,0-0.1,0c0,0,0,0-0.1,0h-0.1
		h-0.1h-0.1h-0.1h-0.1H60l0,0l0,0c0,0-0.1,0-0.1,0.1l0,0c-0.1,0-0.1,0.1-0.2,0.1l0,0l-0.1,0.1l-0.1,0.1L59.4,20l0,0l0,0
		c0,0-0.1,0.3,0,0.6c0.2,0.3,1.6,0.6,2,0.5c0.1,0,0.2,0,0.3-0.1c0,0,0-0.1,0.1-0.1l0,0c0-0.1,0.1-0.1,0.1-0.2l0,0l0.1-0.1l0.1-0.1
		l0.1-0.1h0.1c0,0,0.1,0,0.1-0.1l0,0c0,0,0,0,0.1,0s0.1,0,0.2-0.1l0,0c0.1,0,0.1,0,0.2-0.1l0,0c0.1,0,0.1,0,0.2,0l0,0
		c0.1,0,0.1,0,0.2,0c0.1,0,0.3,0,0.3,0c0.1,0,0.1,0,0.1,0l0.6,0.1l-0.6,0.3c0,0,0,0-0.1,0.1c-0.1,0-0.2,0.1-0.3,0.1l-0.4,0.2h-0.1
		h-0.1h-0.1h-0.1h-0.1c0,0,0,0-0.1,0l0,0c0,0-0.1,0-0.1,0.1c0,0,0,0-0.1,0c0.1,0.1,0.2,0.2,0.4,0.2c0.3,0,1.5,0.1,2,0.1l0.1-0.1l0,0
		l0.1-0.1c0,0,0,0,0.1-0.1c0,0,0,0,0.1-0.1H65c0,0,0,0,0.1-0.1l0,0c0.1,0,0.1-0.1,0.2-0.1l0,0l0.1-0.1l0,0l0.1-0.1l0.1-0.1l0.1-0.1
		l0,0l0,0l0.5-0.5l-0.1,0.7v0.1l0,0v0.1l0,0c0,0,0,0,0,0.1v0.1c0,0.1-0.1,0.1-0.1,0.2s-0.1,0.1-0.1,0.2s-0.1,0.1-0.1,0.2l0,0
		c0,0,0,0-0.1,0.1l-0.1,0.1c0,0,0,0-0.1,0l-0.1,0.1l0,0c0.1,0.1,0.3,0.2,0.5,0.2c0.3,0,0.7,0,1.4,0c0.1,0,0.1-0.1,0.2-0.1
		c0.1-0.1,0.1-0.1,0.2-0.2l0.1-0.1l0.1-0.1l0.2-0.2c0.1-0.1,0.2-0.1,0.2-0.2c0.2-0.1,0.3-0.2,0.4-0.3c0.1-0.1,0.2-0.2,0.3-0.2l0,0
		c0.1-0.1,0.2-0.1,0.2-0.1l0.8-0.4l-0.5,0.7c0,0,0,0.1-0.1,0.1l0,0L69.3,21c0,0,0,0-0.1,0.1c0,0,0,0.1-0.1,0.1
		c-0.1,0.1-0.2,0.3-0.4,0.4c-0.1,0.1-0.1,0.1-0.2,0.2L68.3,22c0,0-0.1,0-0.1,0.1l0,0c0,0,0.1,0.1,0.2,0.1c0.2,0.1,0.4,0.2,0.5,0.3
		c0.1,0,0.2,0,0.3,0l1.3-0.2c0.1,0,0.1,0,0.2,0l0.2-0.1c0,0,0.1,0,0.1-0.1h0.1c0.1,0,0.2-0.1,0.4-0.2l0.6-0.3l1-0.5
		c0.1,0,0.2-0.1,0.2-0.1c0.1,0,0.1,0,0.1-0.1c0,0,0.1,0,0.1-0.1c0.1-0.1,0.2-0.1,0.2-0.1l1.5-0.7L74,21.1c0,0-0.1,0.1-0.2,0.2
		s-0.1,0.1-0.2,0.2l0,0c-0.1,0.1-0.2,0.2-0.3,0.2l0,0c-0.1,0.1-0.2,0.2-0.4,0.2c0,0-0.1,0-0.1,0.1c-0.1,0.1-0.2,0.1-0.3,0.2
		c-0.1,0-0.1,0.1-0.2,0.1c-0.1,0.1-0.2,0.1-0.3,0.2c0,0-0.1,0-0.1,0.1c-0.1,0.1-0.3,0.1-0.4,0.2h-0.1c-0.1,0-0.1,0.1-0.2,0.1
		L70.9,23c-0.1,0-0.2,0-0.3,0h-0.3c-0.1,0-0.3,0-0.4,0h-0.1c-0.2,0-0.3,0-0.5,0h-0.1c0,0.1,0.1,0.3,0.2,0.4c0.3,0.3,1.7,0.9,2.2,1.2
		h0.1v0.1c0.1,0.2,0.2,0.7,0.4,0.9c0.1,0.1,0.2,0.3,0.3,0.4l0,0c0.1,0,0.2,0.1,0.2,0.1s0.1,0,0.1,0.1h0.1l0,0h0.1c0,0,0.1,0,0.1,0.1
		h0.1h0.1c0.1,0,0.1,0.1,0.2,0.1s0.1,0,0.2,0.1h0.1c0,0,0,0,0.1,0c0,0,0.1,0,0.1,0.1l0.8,0.4l-0.4,0.1l0.4,0.3
		c0.2,0.1,0.3,0.3,0.5,0.4c0.1,0.1,0.3,0.3,0.4,0.6l0,0c0,0.1,0,0.1,0.1,0.2v0.1l0.1,0.3c0,0.1,0,0.2,0,0.3c0,0,0,0,0.1,0
		s0.2,0.1,0.3,0.1c0.1,0,0.2,0.1,0.3,0.1c0.1,0,0.2,0.1,0.3,0.2c0,0,0.1,0.1,0.2,0.1l0,0c0,0,0.1,0,0.1,0.1l0,0
		c0.1,0.1,0.1,0.1,0.2,0.2s0.2,0.2,0.2,0.2l0.1,0.1l0,0l0,0l0,0l0.1,0.1l0.1,0.2v0.1c0,0.1,0.1,0.1,0.1,0.2v0.1
		c0,0.1,0.1,0.1,0.1,0.2v0.1v0.1c0.4,0.1,0.6,0.4,0.7,0.7c0.1,0.6,0.4,1,0.9,1.4c0.2,0.1,0.4,0.3,0.6,0.4c0.3,0.2,0.6,0.4,0.9,0.7
		s0.6,0.7,0.7,0.9c0.2,0,0.6,0,0.9,0.1h0.2c0.1,0,0.2,0,0.3,0c0,0,0.1,0,0.2,0s0.1,0,0.2,0s0.2,0,0.3,0H84h0.2c0.1,0,0.2,0,0.3-0.1
		l0.3-0.1c0.1,0,0.1,0,0.2-0.1h0.1l0.3-0.1c0.1,0,0.1-0.1,0.1-0.1l0.9-0.3l-0.6,0.7c0,0,0,0.1-0.1,0.1c-0.1,0.1-0.2,0.2-0.4,0.3
		c-0.1,0-0.2,0.1-0.2,0.1c-0.1,0.1-0.2,0.1-0.3,0.1l0,0c-0.1,0-0.2,0.1-0.3,0.1l0,0L84,37.4c-0.1,0-0.2,0-0.3,0h-0.1
		c0.1,0.2,0.2,0.4,0.3,0.5c0,0.1,0.1,0.1,0.1,0.2c0.2,0.5,0.6,1.3,0.4,2c-0.1,0.6-0.5,0.9-0.8,1.2c-0.1,0.1-0.3,0.3-0.4,0.4
		c-0.3,0.4-0.4,0.8-0.4,0.8l-0.1,0.2h-0.2c-0.1,0-0.6,0-0.8,0.8c-0.2,0.9,0.3,1.4,0.4,1.5c0.3,0.2,1,0.2,1.2,0.1c0,0,0.1,0,0.1-0.1
		l0,0l0,0c0-0.1-0.1-0.1-0.1-0.2v-0.1c0-0.1,0-0.1,0-0.2v-0.1v-0.1v-0.1v-0.1c0,0,0-0.1,0-0.2c0-0.1,0-0.2,0.1-0.2
		c0-0.1,0.1-0.1,0.1-0.2l0,0c0-0.1,0.1-0.1,0.2-0.1c0,0,0.1,0,0.1-0.1l1.1-1l-0.8,1.5l0,0c0,0,0,0,0,0.1l0,0V44l0,0v0.1v0.1l0,0v0.1
		l0,0v0.1v0.1v0.1v0.1v0.1v0.1V45v0.1c0.2,0.1,0.5,0.3,1,0.3c0.2,0,0.4,0,0.7-0.1v-0.2V45v-0.1v-0.2v-0.1v-0.1v-0.1v-0.1l0,0
		c0,0,0,0,0-0.1v-0.1l0,0V44c0-0.1,0-0.1,0-0.1c0-0.1,0-0.1,0-0.1l0-0.8l0.6,0.3c0,0,0,0,0.1,0l0,0c0,0,0.1,0,0.1,0.1l0.1,0.1
		l0.1,0.1v0.1c0,0.1,0.1,0.1,0.1,0.2l0,0c0,0.1,0,0.1,0.1,0.2c0,0,0,0,0,0.1v0.1l0,0v0.1l0,0l0,0v0.2c0.2-0.2,0.4-0.3,0.5-0.5
		c0.2-0.4,0.3-1.2,0.4-1.9c0-0.4,0.1-0.8,0.1-1.1c-0.1,0-0.1-0.1-0.2-0.2l-0.1-0.1l-0.1-0.1l-0.1-0.1l-0.1-0.1
		c0-0.1-0.1-0.2-0.1-0.3s0-0.2-0.1-0.2c0-0.1,0-0.3-0.1-0.4c0-0.1,0-0.2,0-0.3s0-0.1,0-0.1l0.1-0.6l0.3,0.5c0,0,0,0,0.1,0.1
		c0,0.1,0.1,0.2,0.1,0.3s0.1,0.2,0.1,0.4L88,40c0,0,0,0.1,0.1,0.2c0,0,0,0,0,0.1l0.1,0.1l0,0c0-0.2,0.1-0.4,0.3-0.4
		c0.2-0.1,0.4,0,0.5,0.1V40c-0.1-0.1-0.1-0.1-0.2-0.2v-0.1l-0.1-0.1l0,0l0,0l0,0l0,0l0,0c0,0-0.1,0-0.1-0.1l0,0l-0.1-0.1L88,39.1
		l0.5-0.2h0.1l0,0h0.1c0,0,0.1,0,0.2,0H89h0.1c0.1,0,0.1,0.1,0.2,0.1l0,0l0.1,0.1l0,0l0,0l0.1-0.1l0.1-0.1c-0.1-0.1-0.1-0.1-0.2-0.2
		c-0.1,0-0.1-0.1-0.2-0.1l0,0h-0.1H89h-0.1h-0.1c-0.1,0-0.1,0-0.2,0s-0.1,0-0.1,0h-0.6l0.4-0.4c0,0,0,0,0.1-0.1s0.2-0.1,0.3-0.2
		c0,0,0.1-0.1,0.2-0.1s0.1-0.1,0.2-0.1s0.2,0,0.2-0.1h0.1l0,0c-0.2,0-0.4-0.1-0.5-0.1s-0.1-0.1-0.1-0.1l-0.5,0.2l0.1-0.5
		c0.1-0.2,0.2-0.9,0.1-1.2c-0.1-0.2-0.8-0.8-1.3-1.2c-0.6-0.5-1.2-0.9-1.5-1.3c-0.7-0.8-0.5-3.5-0.5-3.8v-0.3l0.3,0.1
		c0,0,0.5,0.1,1.1,0.1c0.2,0,0.3,0,0.4,0l-0.1-0.1c-0.2-0.2-0.4-0.4-0.5-0.6c-0.1-0.1-0.1-0.2-0.1-0.2c0-0.1,0-0.1,0-0.1V28l0.4,0.3
		c0,0,0,0,0.1,0.1c0,0,0.1,0.1,0.2,0.1c0.1,0.1,0.2,0.1,0.2,0.2l0.1,0.1c0,0,0,0,0.1,0.1l0,0l0.2,0.1c0,0,0,0,0.1,0.1l0,0
		c0.3,0,0.7,0,0.9-0.1c0.2-0.1,0.3-0.1,0.4-0.2c-0.1,0-0.2,0-0.4,0c-0.3,0-0.7-0.1-0.9-0.2c-0.1-0.1-0.2-0.1-0.3-0.1
		c-0.1,0-0.1-0.1-0.1-0.1L86.8,28h0.7c0,0,0,0,0.1,0s0.2,0,0.3,0l0,0c0.1,0,0.2,0,0.4,0h0.2h0.1h0.1H89h0.1l0,0
		c0.2-0.1,0.4-0.2,0.6-0.3l0.1-0.1c-0.1,0-0.2,0-0.2,0c-0.1,0-0.2,0-0.3,0c-0.1,0-0.1,0-0.1,0l-0.6-0.1l0.5-0.3
		C88.9,27.1,89,27.1,89,27.1z M80.7,25.4C80.7,25.5,80.7,25.5,80.7,25.4C80.7,25.5,80.7,25.5,80.7,25.4L80.7,25.4c0,0.1,0,0.1,0,0.1
		v0.1v0.1v0.1v0.1V26l-0.1,0.2c0,0.1,0,0.2,0,0.2v0.1v0.1v0.1c0,0.1,0,0.1,0,0.2s-0.1,0.3-0.1,0.4s-0.1,0.2-0.1,0.3
		c0,0.1,0,0.1,0,0.1l-0.2,0.7L80,27.7v-0.1c0-0.1,0-0.2,0-0.3c0-0.3,0-0.7,0.1-1c0-0.1,0-0.2,0.1-0.3c0-0.1,0.1-0.2,0.1-0.3
		c0-0.1,0.1-0.2,0.1-0.2c0-0.1,0.1-0.1,0.1-0.2l0,0c0-0.1,0.1-0.1,0.1-0.1l0,0l0,0l0,0l0,0l0,0c0.1,0,0.1-0.1,0.1-0.1l0.6-0.3
		L81,25.4C80.8,25.3,80.8,25.4,80.7,25.4L80.7,25.4z M81.7,25.5L81.7,25.5v0.1l0,0c0,0,0,0,0,0.1l0,0c0,0,0,0,0,0.1l0,0
		c0,0,0,0,0,0.1c0,0,0,0,0,0.1l0,0c0,0.1,0,0.2,0,0.3l0,0c0,0,0,0,0,0.1v0.1l0,0v0.1c0,0.1,0,0.2,0,0.3c0,0.1,0,0.2,0,0.2
		c0,0.1,0,0.1,0,0.1l-0.1,0.4l-0.3-0.3c0,0,0,0-0.1-0.1c0,0-0.1-0.1-0.1-0.2C81,26.8,81,26.5,81,26.3c0-0.1,0-0.3,0.1-0.4
		c0-0.1,0-0.1,0.1-0.2l0,0c0-0.1,0.1-0.1,0.1-0.1l0,0l0.1-0.1l0,0l0.1-0.1c0.1,0,0.1,0,0.1,0l0.4-0.1L81.7,25.5z M83.6,29.9
		c0,0.1,0,0.3,0,0.4l0,0c0,0.2-0.1,0.5-0.1,0.7s-0.1,0.3-0.1,0.5c0,0.1-0.1,0.2-0.1,0.2l-0.4,1l-0.1-1c0,0,0-0.1,0-0.2s0-0.3,0-0.5
		s0-0.4,0-0.6l0,0c0-0.1,0-0.2,0-0.3v-0.3v-0.3v-0.1c0-0.1,0-0.1,0-0.2s0-0.1,0-0.2s0-0.1,0-0.2s0-0.1,0-0.2s0-0.1,0-0.2v-0.1
		l-0.4-1.7l0.7,0.9c0,0,0.2,0.2,0.3,0.6c0,0.1,0.1,0.2,0.1,0.3l0,0c0,0.1,0.1,0.2,0.1,0.3v0.1c0,0.1,0,0.1,0,0.2v0.2
		c0,0.1,0,0.2,0,0.3v0.1l0,0c0,0,0,0,0,0.1V29.9z"/>
	<path class="st1" d="M73.3,4.9L73.3,4.9L73.3,4.9z"/>
	<path class="st1" d="M80.5,4.1L80.5,4.1l0.7,0.1h0.1c0.1,0,0.1,0,0.1,0c0.1,0,0.2,0.1,0.3,0.2c0.1,0.1,0.2,0.2,0.3,0.3
		c0.2,0.2,0.3,0.4,0.5,0.7c0,0.1,0.1,0.1,0.1,0.1v0.1l0.1,0.1c0.1,0.1,0.2,0.1,0.3,0.2c0.1,0,0.2,0.1,0.3,0.1c0.1,0,0.1,0,0.2,0.1
		c0,0,0,0,0.1,0l0,0C83.5,6,83.5,6,83.4,5.9s-0.1-0.2-0.2-0.2c-0.1-0.1-0.1-0.2-0.1-0.2c0-0.1-0.1-0.1-0.1-0.2l0,0
		c-0.1-0.1-0.1-0.2-0.2-0.3c0-0.1-0.1-0.1-0.1-0.1L82.4,4l-0.2-0.1l0,0H82c-0.1,0-0.2,0-0.2-0.1l0,0h-0.1h-0.1c0,0-0.1,0-0.2,0
		c0,0,0,0-0.1,0h-0.2H81h-0.1h-0.1c0,0,0,0-0.1,0h-0.2h-0.1h-0.1h-0.1C80.3,3.9,80.3,4,80.5,4.1C80.4,3.9,80.5,4,80.5,4.1z"/>
	<path class="st1" d="M79.1,4.8L79.1,4.8L79.1,4.8L79.1,4.8l0.2-0.1h0.1l0,0l0,0l0,0l0,0l0,0l0.1-0.1l0.1-0.1c0,0,0-0.1,0.1-0.1l0,0
		l-0.1-0.1l0,0l0,0l0,0l0,0l-0.1-0.1c0-0.1-0.1-0.1-0.2-0.2l-0.1-0.1l0,0c-0.1,0-0.1-0.1-0.2-0.1l-0.1-0.1l0,0l0,0
		c0,0-0.1,0-0.1-0.1h-0.1l0,0l0,0l0,0l0,0l0,0h-0.1l0,0c0,0,0,0-0.1,0c0,0,0,0-0.1,0c0,0,0,0-0.1,0l0,0c-0.1,0-0.1,0-0.2,0l0,0
		c0,0,0,0-0.1,0l0,0h-0.1l0,0c-0.1,0-0.1,0.1-0.2,0.1c-0.1,0.1-0.3,0.2-0.4,0.3l-0.4,0.3c0,0,0.1,0,0.1,0.1l0-0.2
		c0.1,0,0.1,0.1,0.2,0.1l0,0c0,0,0.1,0,0.1,0.1l0.1,0.1c0.1,0.1,0.1,0.1,0.2,0.2c0,0,0,0,0.1,0.1l0,0c0,0,0,0,0.1,0.1l0,0L79.1,4.8
		C79,4.8,79.1,4.8,79.1,4.8z"/>
	<g>
		<path class="st1" d="M84.3,8.8c0-0.6,0-1.1,0-1.3l0,0l-0.5-0.4l0,0l0,0L83.7,7l0,0c-0.1-0.1-0.2-0.1-0.4-0.2c-0.1,0-0.1,0-0.2-0.1
			c-0.1,0-0.2-0.1-0.3-0.1c-0.2-0.1-0.4-0.2-0.5-0.3l0,0l-0.1-0.1l0,0L81.9,6c0-0.1-0.1-0.2-0.1-0.3l-0.2-0.4
			c-0.1-0.1-0.1-0.2-0.2-0.3c-0.1-0.1-0.1-0.2-0.2-0.2c-0.1-0.1-0.1-0.1-0.1-0.1H81l-0.6-0.2l0,0c0,0.1-0.1,0.1-0.1,0.2
			c-0.1,0.1-0.1,0.1-0.1,0.2C80.1,5,80.1,5,80,5.1L79.9,5c0,0,0,0-0.1,0.1l0,0l-0.1,0.1l0,0h-0.1h-0.1h-0.1h-0.1l0,0h-0.1h-0.1H79
			l-1.1-0.3l0,0C77.9,5,78,5.1,78,5.2l0.1,0.1c0,0.1,0,0.1,0,0.1l0.1,0.3c0,0.1,0,0.1,0,0.2V6c0,0.1,0,0.2,0.1,0.3v0.1
			c0,0.1,0,0.1,0,0.2s0,0.2,0,0.3c0,0.1,0,0.1,0,0.2l0,0v0.1l0,0v0.1L78,8.8l-0.4-1l0,0c0,0.1,0,0.1-0.1,0.2l-0.1,0.1l-0.2,0.3
			l-0.1,0.1c0,0,0,0,0,0.1l0,0L77,8.7l-0.1,0.2L76.8,9l0,0c0,0.1-0.1,0.1-0.2,0.2c-0.1,0.1-0.2,0.2-0.3,0.3L76,9.1
			c0,0,0.1-0.1,0.2-0.3c0-0.1,0.1-0.1,0.1-0.2c0,0,0-0.1,0.1-0.1c0,0,0-0.1,0.1-0.1l0.1-0.2c0,0,0-0.1,0.1-0.1V8c0,0,0,0,0-0.1
			c0,0,0-0.1,0.1-0.1l0.1-0.3V7.4V7.3l0,0l0,0V7.2l0,0V7.1c0-0.1,0-0.1,0-0.1c0-0.1,0-0.1,0-0.1c0-0.1,0-0.1-0.1-0.1l-0.1-0.1
			l-1-1.2L77,6l0,0l0.2,0.1h0.1h0.1l0,0l0,0l-0.1-0.3V5.7V5.6c0,0,0-0.1-0.1-0.1c0,0,0,0,0-0.1c0,0,0-0.1-0.1-0.1c0,0,0,0,0-0.1
			L77,5.1c0,0,0-0.1-0.1-0.1l-0.1-0.1l0,0l0,0l-0.1-0.1c0,0,0,0-0.1-0.1h-0.1c-0.1,0-0.1-0.1-0.2-0.1s-0.1-0.1-0.2-0.1H76h-0.1
			c-0.2-0.1-0.3-0.1-0.4-0.2l0.1-0.5c0.1,0,0.2,0,0.3,0.1l0,0C76,3.9,76.1,4,76.2,4c0,0,0,0,0.1,0l0.3-0.5c0.1-0.2,0.2-0.3,0.4-0.4
			l0,0C77.1,3,77.1,3,77.2,2.9l0.1-0.1l0,0c0,0,0.1,0,0.1-0.1l0,0h0.1h0.1h0.1l0,0c0.1,0,0.1,0,0.2,0l0,0H78h0.1c0.1,0,0.1,0,0.1,0
			l0,0l0,0l0,0h0.1c0,0,0,0,0.1,0s0.1,0,0.2,0.1l0,0h0.1l0.1,0.1C78.9,3,79,3,79,3.1c0.1,0.1,0.1,0.1,0.2,0.2h0.5h0.1
			c0,0,0.1,0,0.2-0.1c0.1,0,0.1,0,0.2-0.1l0,0c0.1,0,0.2,0,0.3,0c0.1,0,0.1,0,0.2,0l0,0h0.2c0.1,0,0.2,0,0.3,0l0,0
			c0.1,0,0.2,0,0.3,0.1l0,0c0.1,0,0.2,0.1,0.3,0.1L82,3.4l0.1,0.1c0.2,0.1,0.3,0.2,0.5,0.3c0.1,0,0.1,0.1,0.2,0.1h0.1
			c0,0,0.1,0,0.2,0.1c-0.1-0.4-0.3-0.8-0.6-1.1c-0.4-0.3-1.1-0.7-1.7-1l0,0l0,0L80.7,2l0,0c0,0-0.1,0-0.1,0.1l0,0c0,0-0.1,0-0.1,0.1
			l0,0l-0.3,0.1c-0.1,0-0.1,0-0.2,0.1c-0.1,0-0.1,0-0.2,0.1l0,0c-0.2,0-0.3,0.1-0.5,0.1c-0.1,0-0.2,0-0.3,0c-0.1,0-0.1,0-0.1,0
			l-0.7-0.1l0.6-0.3c0,0,0,0,0.1-0.1C79,2.1,79.1,2,79.2,2h0.1c0.1,0,0.2-0.1,0.3-0.1h0.1h0.1c0.1,0,0.1,0,0.2-0.1l0.3-0.1h0.1h0.1
			l0.1-0.1c-0.1-0.2-0.1-0.3-0.1-0.3s-0.1-0.1-0.1-0.2c-0.1,0.1-0.2,0.2-0.3,0.2c-0.2,0.1-0.5,0-0.9-0.1S78.4,0.9,78.1,1
			c-0.4,0-0.8,0.2-1,0.3L77,1.4c0,0,0,0.1-0.1,0.1v0.1c0,0,0,0,0,0.1l-0.1,0.2l-0.1,0.2c0,0.1-0.1,0.1-0.2,0.2
			c-0.1,0.1-0.1,0.1-0.2,0.1h-0.1c-0.1,0-0.1,0.1-0.2,0.1C75.9,1.9,75.8,2,75.7,2h-0.1h-0.1l-0.1,0.1h-0.1l0,0l0,0l-0.1,0.1
			c-0.1,0.1-0.1,0.1-0.2,0.2c-0.1,0.1-0.2,0.3-0.2,0.4c0,0.1-0.1,0.2-0.1,0.2l-0.4,0.9h0.2l-0.4,0.7c0,0,0,0.1-0.1,0.1l-0.1,0.1
			c-0.1,0.1-0.1,0.1-0.2,0.2c0,0-0.1,0-0.1,0.1c-0.1,0-0.1,0-0.2,0c0,0-0.1,0-0.2,0l0,0c0,0.1-0.1,0.2-0.1,0.3l-0.3,0.8l-0.1-0.8
			c0-0.1,0-0.3,0-0.4s0.1-0.2,0.1-0.3c0,0,0,0,0-0.1l0,0l0,0c0,0,0,0,0-0.1V4.4l0,0c0-0.1,0-0.2,0-0.3c0-0.1,0.1-0.1,0.1-0.2
			c0.1,0,0.1-0.1,0.2-0.1c0.1-0.1,0.3-0.2,0.4-0.2l0.8-0.1V3c0,0,0-0.1,0-0.2c0-0.1,0-0.2,0-0.2c0-0.1,0-0.2,0.1-0.3
			c0-0.1,0.1-0.2,0.2-0.4c0-0.1,0.1-0.1,0.1-0.2c0.1-0.1,0.1-0.1,0.2-0.2L75,1.4h0.1c0.1,0,0.1-0.1,0.2-0.1l0,0c0.1,0,0.1,0,0.2-0.1
			c0.1,0,0.1,0,0.2-0.1c0,0,0.1,0,0.1-0.1c0,0,0,0,0.1,0l0,0c0,0,0,0,0.1-0.1l0,0l0.1-0.1c-0.1,0-0.3,0.1-0.5,0.1
			c-0.9,0.2-1.6,0.7-1.7,1.2s-0.1,0.8-0.1,0.8v0.3h-0.3c0,0-0.5,0-0.8,0.2C72.4,3.7,72.2,4,72.2,4l-0.1,0.1L72,4
			c0,0-0.6-0.1-1.2,0.4c-0.7,0.6-0.9,0.8-0.9,1c0,0.1,0,0.2,0.1,0.3c0-0.1,0-0.1,0-0.2s0-0.1,0.1-0.2c0-0.1,0.1-0.1,0.2-0.2
			c0,0,0.1,0,0.2-0.1h0.1c0.1,0,0.2,0,0.2,0h0.1l0,0l0,0l0,0l0,0l0,0l0,0C71,5,71,4.9,71,4.9l0.1-0.1l0.4-0.2V5c0,0,0,0,0,0.1
			s0,0.1-0.1,0.2c0,0,0,0.1-0.1,0.1c0,0.1-0.1,0.1-0.1,0.1l0,0l0,0c0,0,0,0-0.1,0.1C71,5.6,71,5.7,71,5.7c-0.1,0-0.1,0-0.2,0h-0.1
			h-0.2l0,0l0,0l0,0v0.1l-0.2,0.3c0,0.1,0.1,0.1,0.1,0.2l0.1,0.1l-0.1,0.1c0,0-0.1,0.2-0.1,0.3c0,0,0,0.1,0.1,0.2c0,0,0.1,0,0.2,0
			s0.2,0,0.3,0c0,0,0.1,0,0.2,0h0.1l0,0h0.1c0,0,0.1,0,0.2,0.1l0.2,0.2c0,0,0,0,0.1,0h0.1H72h0.1l0,0c0.1,0,0.1,0,0.2,0s0.1,0,0.1,0
			l0,0h0.1l0.2,0.1l0.1,0.1l0,0C72.9,7.8,73,7.9,73.1,8l0.8,0.7l-1-0.3c-0.1,0-0.2,0-0.2-0.1h-0.1h-0.1c0,0,0,0-0.1,0h-0.2l0,0l0,0
			l0,0l0,0l0,0l0,0L71.8,9l-0.5-0.6l0,0l0,0l0,0l0,0l0,0l0,0L70.9,8l0,0l0,0l0,0l0,0l0,0h-0.1c-0.1,0-0.2,0-0.2-0.1
			c-0.1,0-0.1,0-0.2,0c-0.2,0.1-0.2,0.3-0.2,0.4c0,0.3,0.1,0.6,0.2,0.8c0.1,0,0.1,0,0.2,0s0.2,0.1,0.3,0.1c0,0,0,0,0.1,0l0,0
			C70.9,9,71.2,8.8,71.5,9c0.1,0,0.1,0.1,0.2,0.2c0.2,0.1,0.4,0.3,0.5,0.3s0.2,0,0.2-0.1c0.2-0.1,0.5-0.2,0.8,0
			c0.5,0.3,0.7,0.7,0.6,1.1c-0.2,0.4-1,0.8-1.5,0.8c0,0-0.1,0-0.2,0c-0.4,0-1.1-0.1-1.4,0.2c-0.2,0.1-0.3,0.3-0.4,0.6
			c0.1,0,0.1,0,0.2,0h0.1c0.1,0,0.2,0,0.3,0.1l1.9,0.4c0.1,0,0.2,0,0.2,0c0.1,0,0.2,0,0.3,0.1h0.1h0.1l0,0h0.1l1.5-0.1l-1.5,0.6
			h-0.1c-0.1,0-0.2,0-0.3,0l0,0c-0.1,0-0.2,0-0.4,0c-0.2,0-0.5,0-0.8-0.1h-0.1c-0.1,0-0.2,0-0.3-0.1c-0.1,0-0.3-0.1-0.5-0.1
			l-0.5-0.1c-0.1,0-0.2,0-0.3-0.1c-0.1,0-0.1,0-0.2,0H70c-0.1,0-0.2,0-0.3-0.1c-0.1,0-0.1,0-0.1,0c-0.1,0-0.1,0-0.2,0h-0.1
			c-0.1,0-0.1,0-0.2,0.1s-0.3,0.2-0.5,0.4c-0.7,0.6-1,0.8-1.2,0.7c-0.5-0.2-0.3-1.6-0.3-1.7c0-0.1,0-0.2,0-0.3c0,0,0,0.1-0.1,0.1
			c-0.1,0.1-0.2,0.2-0.2,0.3c-0.1,0.1-0.2,0.1-0.2,0.2c-0.1,0-0.1,0.1-0.1,0.1l-0.4,0.2l0.1-0.5c0,0,0,0,0-0.1s0-0.1,0.1-0.2
			c0-0.1,0.1-0.2,0.1-0.3c0,0,0-0.1,0.1-0.1v-0.1c0,0,0,0,0-0.1v-0.1l0,0l0,0c0-0.3,0.1-0.8,0-1.1c0-0.6-0.3-1.7-0.6-2.1
			C66,7.4,65,6.7,64.6,6.5c0,0,0,0,0.1,0.1c0.1,0,0.1,0.1,0.2,0.2c0,0,0.1,0.1,0.1,0.3c0.1,0.1,0.1,0.2,0.1,0.3
			c0,0.1,0.1,0.1,0.1,0.1L65.4,8l-0.5-0.2c0,0,0,0-0.1-0.1c-0.1,0-0.1-0.1-0.2-0.1c-0.1-0.1-0.2-0.1-0.3-0.2l0,0l-0.1-0.1l0,0
			c-0.1,0-0.1-0.1-0.2-0.1L63.9,7c0,0,0,0-0.1,0l0,0c-0.1,0-0.1-0.1-0.2-0.1l0,0c-0.2,0-0.4,0-0.5,0.1s-0.2,0.3-0.3,0.6l0,0
			c0.1,0,0.1,0,0.2,0c0,0,0,0,0.1,0s0.2,0,0.2,0c0.1,0,0.2,0,0.2,0c0.1,0,0.1,0,0.2,0l0,0c0.1,0,0.1,0,0.2,0s0.2,0.1,0.4,0.1
			c0.1,0,0.2,0.1,0.3,0.2c0.1,0,0.3,0.1,0.4,0.2s0.1,0.2,0.2,0.2l0.6,0.9l-0.9-0.5c0,0-0.1,0-0.1-0.1c-0.1,0-0.2-0.1-0.4-0.1
			c-0.2-0.1-0.4-0.1-0.6-0.1c-0.1,0-0.2,0-0.3,0h-0.2h-0.1h-0.1H63l-0.4,0.1h-0.1l0,0c-0.1,0.2-0.1,0.6,0,1c0.1,0.3,0.2,0.6,0.5,0.8
			h0.1c0.1,0,0.1,0,0.2,0l0.7,0.1c0.1,0,0.2,0,0.3,0l0,0c0.2,0,0.3,0,0.4,0.1l0,0c0.1,0,0.2,0,0.2,0l1,0.2l-1,0.3c0,0-0.1,0-0.2,0
			s-0.2,0-0.5,0.1c-0.2,0-0.4,0-0.6,0c-0.1,0-0.1,0-0.2,0c0,0.2-0.1,0.5,0,0.8c0.2,0.5,0.8,1.2,0.8,1.2l0.1,0.1l-0.1,0.1
			c0,0-0.2,0.7-0.2,1.1c0,0.5,0,1.3-0.2,1.6c0,0.1-0.1,0.1-0.1,0.2c0.1,0,0.1,0,0.2,0l0,0l0,0l0.1-0.1l0,0l0,0c0,0,0,0,0.1-0.1l0,0
			l0,0l0,0l0.1-0.1l0,0c0,0,0-0.1,0.1-0.1l0.2-0.2c0-0.1,0.1-0.1,0.1-0.1l0.4-0.4v0.6v0.1c0,0.1,0,0.2-0.1,0.3c0,0.1,0,0.1-0.1,0.2
			c0,0.1-0.1,0.1-0.1,0.2s-0.1,0.1-0.1,0.2l0,0c0,0,0,0.1-0.1,0.1l-0.1,0.1l0,0l0,0c0,0,0,0-0.1,0l0,0h-0.1l0,0c0,0-0.1,0-0.1,0.1
			c0.1,0.1,0.1,0.1,0.2,0.2s0.2,0.2,0.3,0.3c0.3,0.1,0.5,0.1,0.8,0.2l0.2,0.1l0,0l0,0h0.1h0.1l0,0c0.1,0.1,0.2,0.1,0.2,0.2l0.1,0.1
			c0.1,0.1,0.1,0.1,0.2,0.2s0.2,0.2,0.3,0.2l0.1,0.1l0.2,0.1H67h0.1l0,0h0.1h0.1h0.1h0.1h0.2c0.3,0,0.6,0,0.9,0l0.1-0.2l0,0l0.1-0.4
			c0-0.1,0.1-0.3,0.1-0.4l0,0c0-0.1,0-0.1,0.1-0.2v-0.1c0,0,0-0.1,0.1-0.1l0.1-0.2c0,0,0-0.1,0.1-0.1l0.1-0.2l0.1-0.2l-0.2,0.1
			C69,16.9,69,17,68.9,17l-1.5,0.9l0.6-1.2c0.1-0.1,0.1-0.3,0.2-0.4s0.2-0.3,0.2-0.4c0.1-0.1,0.2-0.2,0.3-0.4
			c0.1-0.1,0.2-0.3,0.3-0.4l0.1-0.1c0.1-0.1,0.2-0.2,0.3-0.3l0.2-0.2l0.2-0.2l0.1-0.1l0,0c0,0,0,0,0.1,0l0.1-0.1l0.2-0.1l0.1-0.1
			c0,0,0,0,0.1,0l0.1-0.1h0.1l0,0c0,0,0,0,0.1,0c0,0,0.1,0,0.1-0.1c0.1-0.1,0.3-0.1,0.5-0.2c0.1,0,0.2-0.1,0.4-0.1h0.1
			c0.1,0,0.3,0,0.4,0s0.2,0,0.2,0h0.1c0.1,0,0.1,0,0.2,0s0.3,0,0.4,0s0.3,0,0.5,0.1c0.2,0,0.3,0.1,0.4,0.1L73.9,14
			c-0.3,0-0.6,0-0.9,0c-0.1,0-0.3,0-0.4,0s-0.1,0-0.2,0h-0.1c-0.1,0-0.1,0-0.2,0s-0.3,0-0.4,0.1h-0.1c-0.1,0-0.2,0-0.3,0.1l0,0
			c-0.1,0-0.2,0.1-0.3,0.1h-0.1c0,0-0.1,0-0.1,0.1c0,0,0,0-0.1,0h-0.1l-0.1,0.1c0,0,0,0-0.1,0c0,0-0.1,0-0.1,0.1l-0.2,0.1L70,14.8
			c0,0,0,0-0.1,0.1c0,0,0,0-0.1,0L69.7,15l0.3,0.2l-0.1,0.1c-0.1,0.1-0.1,0.2-0.2,0.3v0.1l-0.1,0.1l0.3-0.1H70l0.2-0.1
			c0.1,0,0.1-0.1,0.2-0.1l0.1-0.1c0.1,0,1.2-0.7,2.1-0.7c0.2,0,0.4,0,0.6,0h0.1h0.1h0.1c0.1,0,0.2,0,0.3,0c0.2,0,0.4,0,0.7,0
			c0.3,0,0.5-0.1,0.7-0.1s0.5-0.1,0.7-0.2c0.3-0.1,0.4-0.2,0.6-0.3l0,0l0,0l0.1-0.1l0.2-0.2l0.1-0.1l0.1-0.1
			c0.1-0.1,0.1-0.1,0.2-0.2c0,0,0.1-0.1,0.1-0.2l0.1-0.1c0.1-0.1,0.2-0.2,0.2-0.3s0.1-0.1,0.1-0.2L80,9.7l-1,2.1
			c0,0-0.1,0.1-0.2,0.3s-0.3,0.5-0.5,0.8L78.2,13c-0.1,0.1-0.2,0.3-0.3,0.4l-0.1,0.1c0,0.1-0.1,0.1-0.1,0.2
			c-0.1,0.1-0.1,0.1-0.2,0.2L77.4,14c0,0-0.1,0.1-0.1,0.2L77,14.5l0,0.1c0,0-0.1,0-0.1,0.1l0,0c-0.2,0.1-0.5,0.3-0.8,0.4
			c-0.3,0.1-0.5,0.1-0.8,0.2c-0.3,0-0.5,0.1-0.8,0.1s-0.5,0-0.7,0c-0.1,0-0.1,0-0.2,0h-0.1h-0.1h-0.1h-0.1c-0.1,0-0.2,0-0.2,0h-0.1
			h-0.1l-0.2,0.1l-0.2,0.1c-0.1,0-0.1,0-0.2,0.1c-0.1,0-0.1,0-0.1,0L72,15.4L71.1,16c-0.1,0.1-0.2,0.2-0.3,0.2l0,0c0,0,0,0-0.1,0
			l-0.1,0.1l-0.3,0.3l-0.1,0.1L70,17.1l-0.1,0.2v0.1c0,0,0,0,0,0.1l0,0c0,0,0,0,0.1,0h0.1l0.1-0.1h0.1c0,0,0.1,0,0.1-0.1l0.2-0.1
			l0.2,0.4l-0.2,0.1c0,0-0.1,0-0.1,0.1h-0.1l-0.1,0.1L70.2,18c-0.1-0.1-0.2,0-0.2,0c-0.3,0.2-0.5,0.4-0.7,0.5l-0.4,0.3
			c0.1,0,0.2,0,0.2,0l0.4-0.1l0,0l0,0l0.2,0.1l0,0c0,0,0.1,0,0.1,0.1l0,0c0.1,0.1,0.1,0.1,0.1,0.2l0.1,0.3c0.1,0.1,0.1,0.2,0.2,0.4
			c0.1,0.1,0.2,0.2,0.2,0.3c0,0,0,0,0.1,0l0,0l0,0l0,0h0.1l0.1-0.1c0.1-0.1,0.2-0.1,0.3-0.2l0,0c0.2-0.1,0.4-0.3,0.5-0.4
			c0.2-0.1,0.3-0.2,0.5-0.3c0.1,0,0.2-0.1,0.2-0.1l-0.1-1c0,0,0,0,0-0.1l0,0c0,0,0-0.1,0-0.2s0-0.2,0.1-0.3c0,0,0-0.1,0.1-0.1l0,0
			l0,0c0,0,0.1-0.1,0.1-0.2l0,0l0.1-0.1l0.1-0.1l0,0c0.1-0.1,0.3-0.2,0.5-0.3c0.1,0,0.1,0,0.2-0.1c0,0,0,0,0.1,0l0,0
			c0.1,0,0.2,0,0.2,0l0,0c0.1,0,0.1,0,0.2,0h0.1c0.1,0,0.1,0,0.2,0h0.1c0.2,0,0.3,0,0.5,0c0.1,0,0.2,0,0.3,0c0.1,0,0.1,0,0.2,0
			s0.1,0,0.2,0s0.2,0,0.3,0c0.1,0,0.2,0,0.3,0h0.1c0,0,0,0,0.1,0c0,0,0,0,0.1,0l0,0h0.1l0,0l0,0c0,0,0,0,0.1,0l0,0l0,0l1.1-0.9v0.1
			l0.1-0.1l0.1-0.1c0.2-0.2,0.5-0.4,0.7-0.7c0.1-0.1,0.2-0.2,0.2-0.3l0,0v-0.1l0.1-0.3c0.2-0.7,0.4-1.2,0.6-1.7s0.4-0.9,0.6-1.2
			c0.1-0.2,0.2-0.3,0.3-0.3c0.3-0.2,0.8-0.4,0.8-0.4l-0.3,0.6l-0.1,0.1v0.1c0,0,0,0,0,0.1c0,0-0.1,0.1-0.2,0.2
			c-0.1,0.2-0.3,0.6-0.5,1.1c-0.1,0.2-0.1,0.5-0.2,0.8c-0.1,0.2-0.1,0.4-0.2,0.6l-0.2,0.6c0,0.1,0,0.1-0.1,0.2
			c0,0.1-0.1,0.2-0.1,0.2s0,0,0,0.1l0,0c0,0,0,0,0,0.1s-0.1,0.1-0.1,0.2c-0.2,0.3-0.5,0.5-0.7,0.7l-0.1,0.1
			c-0.2,0.2-0.5,0.4-0.7,0.7l-0.1,0.1l-0.1,0.1l-0.1,0.1c0,0,0,0,0,0.1l0,0l0,0v0.1c0,0.1,0,0.1-0.1,0.1l0,0v0.1c0,0,0,0,0,0.1
			c0,0,0,0,0,0.1V18l0,0c0,0.1,0,0.2,0.1,0.4c0.1,0.3,0.2,0.5,0.3,0.7l0.3,0.6c0.1,0.1,0.1,0.2,0.2,0.4c0.1,0,0.3,0,0.4,0
			s0.3-0.1,0.4-0.1c-0.1-0.2-0.1-0.6,0-0.9c0.1-0.5,0.5-1.6,1.2-2.2c0.4-0.3,0.5-0.6,0.5-0.8V16c0-0.1-0.1-0.2-0.1-0.4
			c0-0.1-0.1-0.3-0.1-0.4l0,0c0-0.1,0-0.1,0-0.2c0-0.1,0-0.2,0-0.2c0-0.2,0-0.3,0.1-0.5c0.1-0.3,0.2-0.6,0.3-0.9
			c0.1-0.1,0.1-0.3,0.2-0.4c0.1-0.1,0.1-0.2,0.2-0.3c0.1-0.2,0.2-0.3,0.3-0.4c0.1-0.1,0.1-0.2,0.1-0.2l0.8-0.8l-0.7,1.8
			c-0.1,0.2-0.2,0.4-0.2,0.6c-0.1,0.3-0.2,0.5-0.2,0.8c0,0.1-0.1,0.3-0.1,0.4c0,0.1,0,0.1,0,0.2c0,0,0,0.1,0,0.2c0,0.1,0,0.2,0,0.4
			c0,0.1,0,0.2,0,0.3v0.1l0,0c0,0,0,0,0.1,0c0-0.2,0-0.5,0.2-0.9c0.2-0.5,0.6-1,0.8-1.3v-0.1c0-0.1,0-0.1,0-0.2l0,0c0,0,0-0.1,0-0.2
			c0-0.1,0-0.2,0-0.3l0,0c0-0.1,0-0.2,0-0.3s0-0.2,0.1-0.3c0.1-0.2,0.1-0.4,0.2-0.5s0.2-0.2,0.2-0.3c0.1-0.1,0.1-0.1,0.1-0.1
			l0.6-0.4l-0.2,0.7c0,0,0,0,0,0.1s0,0.2-0.1,0.3l-0.1,0.5c0,0.1,0,0.1,0,0.2c0,0.1,0,0.2,0,0.2l0,0c0,0.1,0,0.1,0,0.2l0,0
			c0,0,0,0,0,0.1c0,0,0,0,0,0.1v0.1l0,0c0.1,0,0.2,0,0.4-0.1c0.3-0.1,0.5-0.3,0.6-0.4c-0.2-0.2-0.4-0.5-0.3-0.9c0-0.3,0.1-0.6,0.2-1
			C84.1,9.8,84.3,9.3,84.3,8.8z"/>
		<path class="st1" d="M73.7,4l0.7-0.1l-0.1-0.5L73.7,4L73.7,4z"/>
	</g>
	<path class="st1" d="M76.6,32.4c0.3,0,0.6,0,0.8,0l0,0c0-0.1-0.1-0.1-0.1-0.2l-0.1-0.1L77,32l0,0l0,0l0,0l0,0l0,0
		c-0.1-0.1-0.1-0.1-0.2-0.1l0,0c0,0-0.1-0.1-0.2-0.1l0,0c-0.1-0.1-0.2-0.1-0.2-0.1c-0.1-0.1-0.2-0.1-0.2-0.1c-0.1,0-0.2-0.1-0.3-0.1
		c0,0-0.1,0-0.1-0.1c-0.1,0-0.1,0-0.1-0.1c-0.1,0-0.2-0.1-0.3-0.1l-0.3-0.1v-0.3c0-0.2,0-0.4,0-0.6v-0.3c0,0,0,0,0-0.1
		c0,0,0,0,0-0.1l0,0c0,0,0,0,0-0.1l0,0v-0.1c0,0,0-0.1-0.1-0.1c0-0.1-0.1-0.1-0.1-0.2c-0.1-0.1-0.1-0.1-0.2-0.2s-0.1-0.1-0.2-0.2
		L73.7,28c-0.1,0-0.2,0-0.3,0c-0.1,0-0.1,0-0.2,0l0,0c-0.1,0-0.1,0-0.2,0l-0.2-0.1h-0.1c-0.1,0-0.1-0.1-0.2-0.1h-0.1
		c-0.1,0-0.1-0.1-0.2-0.1s-0.1-0.1-0.2-0.1c0,0-0.1,0-0.1-0.1c-1.1,0-1.7,0.1-1.9,0.2c-0.4,0.3-0.9,0.7-0.7,2.1
		c0.1,0.8,0.5,1.9,0.9,2.7c0.3,0.7,0.5,1.2,0.5,1.5c0,0.7-1.1,2-1.6,2.1c-0.2,0-0.4-0.1-0.8-0.2c-0.7-0.2-1.7-0.6-2.3-0.3
		c-1.1,0.5-1.3,1.3-1.3,1.9c0,0.2,0.1,0.5,0.3,0.8c0,0,0,0,0-0.1c0.1-0.1,0.1-0.2,0.2-0.3c0-0.1,0.1-0.1,0.1-0.2
		c0-0.1,0.1-0.1,0.1-0.2c0-0.1,0.1-0.1,0.1-0.2l0.1-0.1l0.1-0.1c0,0,0,0,0.1-0.1l0.2-0.2l0.1-0.1c0.1,0,0.1-0.1,0.2-0.1
		c0,0,0,0,0.1,0l0,0h0.1c0.1,0,0.1,0,0.2,0s0.3,0,0.4,0s0.3,0,0.4,0s0.2,0.1,0.3,0.1c0.1,0,0.2,0.1,0.2,0.1c0.1,0.1,0.2,0.1,0.2,0.1
		l0.9,0.7L68,37.4c0,0-0.1,0-0.2,0h-0.1h-0.1c-0.1,0-0.2,0-0.2,0c-0.1,0-0.2,0-0.3,0H67l0,0h-0.1l0,0c0,0,0,0-0.1,0l0,0
		c0,0,0,0-0.1,0c0,0,0,0-0.1,0l-0.1,0.1l-0.1,0.1l0,0l0,0l-0.1,0.1l-0.1,0.1c-0.1,0.1-0.1,0.2-0.2,0.3s-0.1,0.2-0.2,0.3l-0.1,0.2
		c0.1,0.1,0.2,0.2,0.3,0.2c0.1,0,0.1,0.1,0.1,0.1c0.3,0.3,1.1,0.4,1.6,0.4h0.1c0.2,0,0.9-0.2,1.5-0.4c0.4-0.2,0.8-0.3,1.1-0.4
		c0.7-0.2,2.5-0.3,3-0.3c0.1-0.3,0.3-0.7,0.6-0.9c0.2-0.1,0.4-0.2,0.9-0.6c0.1-0.1,0.2-0.2,0.2-0.2c-0.1-0.2-0.2-0.8-0.2-1v-0.1
		c0,0,0-0.1-0.1-0.1c-0.1-0.1-0.1-0.1-0.2-0.2L74.4,35l-0.1-0.1c0,0-0.1,0-0.1-0.1c0,0-0.1,0-0.1-0.1c0,0-0.1,0-0.1-0.1l-0.1-0.1
		c-0.1,0-0.1-0.1-0.1-0.1L73,34.2h0.9c0,0,0.1,0,0.2,0h0.1c0,0,0.1,0,0.2,0h0.1c0.1,0,0.1,0,0.2,0.1c0,0,0,0,0.1,0s0.1,0.1,0.2,0.1
		h0.1c0.1,0,0.1,0.1,0.2,0.2l0,0c0.1,0.1,0.2,0.2,0.2,0.2l0,0l0,0c0.1,0.1,0.2,0.1,0.3,0.2c0,0,0,0,0.1,0c0-0.2-0.1-0.3-0.1-0.4
		c-0.1-0.1-0.3-0.2-0.4-0.4l-0.1-0.1L75.2,34l-0.1-0.1c-0.1-0.1-0.2-0.1-0.3-0.2l-0.1-0.1c-0.1-0.1-0.2-0.1-0.3-0.2l0,0
		C74,33.6,74,33.6,74,33.6L73.4,33l0.8,0.1c0,0,0.1,0,0.2,0s0.2,0.1,0.4,0.1c0.1,0,0.2,0.1,0.2,0.1c0.1,0,0.2,0.1,0.3,0.1
		c0.1,0,0.2,0.1,0.3,0.1c0.1,0,0.1,0.1,0.2,0.1c0-0.2,0-0.3-0.1-0.4c0-0.1-0.1-0.2-0.1-0.2l-0.4,0c-0.2-0.1-0.3-0.2-0.5-0.3
		c-0.1-0.1-0.2-0.2-0.3-0.2c-0.1-0.1-0.1-0.1-0.1-0.1l-0.7-0.5l0.9,0.1c0,0,0.1,0,0.2,0s0.2,0.1,0.4,0.1c0.1,0,0.2,0.1,0.2,0.1
		c0.1,0,0.2,0.1,0.3,0.1c0.1,0,0.2,0.1,0.2,0.1C76,32.4,76.3,32.4,76.6,32.4z"/>
	<path class="st1" d="M59.7,17.5L59.7,17.5L59.7,17.5z"/>
	<line class="st2" x1="72.1" y1="6.1" x2="72.1" y2="6.1"/>
	<line class="st2" x1="69.5" y1="18.7" x2="69.5" y2="18.7"/>
	<path class="st1" d="M7.5,6.8L7.5,6.8C7.4,6.8,7.4,6.8,7.5,6.8C7.4,6.8,7.5,6.8,7.5,6.8z"/>
	<path class="st1" d="M32.3,17.5L32.3,17.5L32.3,17.5z"/>
	<path class="st1" d="M21.3,20.1L21.3,20.1L21.3,20.1z"/>
	<path class="st1" d="M56,40c-2.9-1.1-5.1,0.4-5.1,0.4c8.3,3.4,20.4-0.8,20.4-0.8C69,40.3,60.4,41.6,56,40z"/>
</g>
<polygon class="st1" points="18.7,4.9 18.7,4.9 18.7,4.9 "/>
<polygon class="st1" points="5.6,44.5 5.5,44.6 5.5,44.5 "/>
<polygon class="st1" points="32.3,17.5 32.3,17.5 32.3,17.5 32.3,17.5 "/>
<path class="st1" d="M35.3,10.9"/>
<path class="st1" d="M35.3,25.9"/>
<path class="st1" d="M34.3,35.3c-0.6-0.5-1.2-1-1.7-1.5c-0.6-0.5-1.1-1.1-1.6-1.7c-1-1.2-1.9-2.5-2.6-3.8c-0.3-0.7-0.6-1.4-0.8-2.1
	l-0.2-0.5c0-0.2-0.1-0.4-0.1-0.5c0-0.2-0.1-0.4-0.1-0.5c0-0.2-0.1-0.4-0.1-0.5C27,23.7,27,23.4,26.9,23v-0.1
	c0.1-0.1,0.2-0.2,0.3-0.3c0,0.1,0,0.2,0,0.3c0.1,0.3,0.1,0.7,0.2,1.1c0,0.2,0.1,0.4,0.1,0.5c0,0.2,0.1,0.4,0.1,0.5
	c0,0.2,0.1,0.4,0.1,0.5l0.2,0.5c0.2,0.7,0.5,1.4,0.8,2c0.7,1.3,1.5,2.6,2.5,3.8c0.5,0.6,1,1.1,1.6,1.7c0.5,0.5,1.1,1,1.7,1.5"/>
<path class="st1" d="M30.4,7.5c0.2-0.3,0.4-0.5,0.5-0.7c0.2-0.2,0.3-0.4,0.4-0.5c0.2-0.3,0.4-0.4,0.4-0.4S31.6,6,31.3,6.3
	c-0.1,0.1-0.3,0.3-0.4,0.5S30.6,7.3,30.4,7.5C30.3,7.8,30.2,8,30,8.3V8.2C30.1,8,30.2,7.7,30.4,7.5z"/>
<path class="st1" d="M37.4,38.8c-5.3,1.4-8.5,0.4-9.9-0.4l0.1-0.1c1.5,0.3,3.8,0,5.7-0.4"/>
<path class="st1" d="M34.6,36.5c-3,0.6-5.3,0.3-7.1-0.4c-0.3-0.4-0.7-0.8-1.2-1C26,35,25.6,35,25.2,35c-1-0.7-1.5-1.3-1.5-1.3
	c0.9,0.8,3.1,1.7,6.1,1.3C32.8,34.8,34.6,36.5,34.6,36.5"/>
<path class="st1" d="M27.3,32.2c3,0.1,4.5,2.1,4.5,2.1c-6.4,0.4-8.5-2.2-9.1-3.1c0,0,0,0,0-0.1C23.5,31.9,24.6,32.1,27.3,32.2z"/>
<path class="st1" d="M23.1,28.3c0.5,0.1,1.2,0.2,2.1,0.3c2.9,0.5,4,2.7,4,2.7c-2.9-0.2-4.8-0.9-6-1.6C23.2,29.1,23.2,28.7,23.1,28.3
	z"/>
<path class="st1" d="M23.9,25.8c2.9,0.7,3.7,3,3.7,3c-3.7-0.6-5.7-1.9-6.7-3c0.2-0.1,0.6-0.3,1-0.5C22.5,25.4,23.1,25.6,23.9,25.8z"
	/>
<path class="st1" d="M23.5,23.6c0.1-0.1,0.3-0.2,0.5-0.3c0.1,0,0.2-0.1,0.2-0.1c2.1,1.1,2.6,3,2.6,3c-1.6-0.4-2.8-0.9-3.8-1.5
	c0.1,0,0.1-0.1,0.1-0.1C23.5,24.2,23.5,23.8,23.5,23.6z"/>
<path class="st1" d="M26.1,23.1c0.1,0.3,0.1,0.4,0.1,0.4c-0.4-0.1-0.8-0.3-1.2-0.5C25.4,23.1,25.8,23.1,26.1,23.1z"/>
<path class="st1" d="M7.4,6.8L7.4,6.8C7.5,6.8,7.5,6.8,7.4,6.8C7.5,6.8,7.4,6.8,7.4,6.8z"/>
<path class="st1" d="M3.1,27.1l0.5,0.3L3,27.6H2.9c-0.1,0-0.2,0-0.3,0s-0.2,0-0.2,0l0.1,0.1C2.6,27.8,2.8,27.9,3,28l0,0h0.1h0.3h0.1
	h0.1h0.2c0.1,0,0.3,0,0.4,0l0,0c0.1,0,0.2,0,0.3,0c0.1,0,0.1,0,0.1,0h0.7l-0.5,0.4c0,0,0,0-0.1,0.1c-0.1,0-0.2,0.1-0.3,0.1
	c-0.3,0.1-0.6,0.2-0.9,0.2c-0.1,0-0.2,0-0.4,0c0.1,0.1,0.2,0.1,0.4,0.2c0.3,0,0.6,0.1,0.9,0l0,0c0,0,0,0,0.1-0.1l0.2-0.1l0,0
	c0,0,0,0,0.1-0.1l0.1-0.1c0.1-0.1,0.2-0.1,0.2-0.2c0.1-0.1,0.1-0.1,0.2-0.1l0.1-0.1L5.8,28v0.5v0.1c0,0.1,0,0.1-0.1,0.2
	c-0.1,0.2-0.3,0.4-0.5,0.6l-0.1,0.1c0.1,0,0.3,0,0.4,0c0.6,0,1.1-0.1,1.1-0.1l0.3-0.1v0.3c0,0.3,0.3,3-0.5,3.8
	c-0.3,0.4-0.9,0.8-1.5,1.3c-0.5,0.4-1.2,1-1.3,1.2c-0.1,0.3,0,1,0.1,1.2l0.1,0.5l-0.5-0.2c0,0-0.1,0-0.1,0.1
	c-0.1,0.1-0.3,0.1-0.5,0.1l0,0h0.1c0.1,0,0.2,0,0.2,0.1c0.1,0,0.2,0.1,0.2,0.1c0.1,0,0.1,0.1,0.2,0.1c0.2,0,0.3,0.1,0.4,0.1
	s0.1,0.1,0.1,0.1l0.4,0.4H3.7c0,0,0,0-0.1,0c0,0-0.1,0-0.2,0H3.3H3.2H3.1H3l0,0c-0.1,0.1-0.2,0.1-0.2,0.1s-0.1,0.1-0.2,0.2l0.1,0.1
	c0,0,0.1,0,0.1,0.1l0,0l0,0c0,0,0.1,0,0.1-0.1l0,0c0.1,0,0.1-0.1,0.2-0.1h0.1h0.1c0.1,0,0.1,0,0.2,0h0.1l0,0c0.1,0,0.1,0,0.1,0
	L4.2,39l-0.5,0.3l-0.1,0.1l0,0c0,0-0.1,0-0.1,0.1l0,0l0,0l0,0l0,0l0,0l-0.1,0.1v0.1c-0.1,0.1-0.1,0.1-0.2,0.2V40
	c0.1-0.1,0.3-0.1,0.5-0.1C3.9,40,4,40.2,4,40.3l0,0l0.1-0.1c0,0,0,0,0-0.1c0,0,0.1-0.1,0.1-0.2l0.1-0.2c0.1-0.1,0.1-0.3,0.1-0.4
	c0-0.1,0.1-0.2,0.1-0.3s0.1-0.1,0.1-0.1l0.3-0.5L5,39c0,0,0,0,0,0.1s0,0.2,0,0.3s0,0.3-0.1,0.4c0,0.1,0,0.2-0.1,0.2
	c0,0.1-0.1,0.2-0.1,0.3l-0.1,0.1l-0.1,0.1l-0.1,0.1l-0.1,0.1c-0.1,0.1-0.1,0.1-0.2,0.2c0.1,0.3,0.1,0.7,0.1,1.1
	c0.1,0.7,0.2,1.6,0.4,1.9c0.1,0.2,0.3,0.4,0.5,0.5v-0.2l0,0l0,0v-0.1l0,0V44c0,0,0,0,0-0.1s0-0.1,0.1-0.2l0,0c0-0.1,0.1-0.1,0.1-0.2
	v-0.1l0.1-0.1c0-0.1,0.1-0.1,0.1-0.1l0.1-0.1l0,0h0.1L6.2,43L6,43.6c0,0,0,0,0,0.1v0.1v0.1l0,0V44c0,0,0,0,0,0.1l0,0c0,0,0,0,0,0.1
	v0.1v0.1v0.1v0.2v0.1v0.1v0.2c0.2,0.1,0.5,0.1,0.7,0.1c0.5,0,0.8-0.2,1-0.3v-0.1v-0.1v-0.1v-0.1v-0.1v-0.1v-0.1v-0.1l0,0V44l0,0
	v-0.1v-0.1l0,0c0,0,0,0,0-0.1l0,0c0,0,0,0,0-0.1l0,0l-0.8-1.5l1.1,1c0,0,0.1,0,0.1,0.1c0.1,0,0.1,0.1,0.2,0.1l0,0
	c0,0,0.1,0.1,0.1,0.2c0,0.1,0.1,0.2,0.1,0.2c0,0.1,0,0.1,0,0.2V44v0.1v0.1v0.1c0,0.1,0,0.1,0,0.2c0,0,0,0,0,0.1s0,0.2-0.1,0.2l0,0
	l0,0c0,0,0.1,0,0.1,0.1C8.7,45,9.4,45,9.7,44.8c0.2-0.1,0.6-0.6,0.4-1.5c-0.1-0.7-0.7-0.7-0.8-0.8H9.1L9,42.3c0,0-0.1-0.4-0.4-0.8
	c-0.1-0.1-0.2-0.3-0.4-0.4c-0.3-0.3-0.7-0.6-0.8-1.2c-0.2-0.7,0.2-1.5,0.4-2c0-0.1,0.1-0.1,0.1-0.2c0.1-0.2,0.2-0.3,0.3-0.5H8.1
	c-0.1,0-0.2,0-0.3,0l-0.4-0.1l0,0c-0.1,0-0.2-0.1-0.3-0.1l0,0c-0.1,0-0.2-0.1-0.3-0.1c-0.1-0.1-0.2-0.1-0.2-0.1
	c-0.2-0.1-0.3-0.2-0.4-0.3s-0.1-0.1-0.1-0.1l-0.6-0.7L6.4,36c0,0,0.1,0,0.1,0.1L7,36.3h0.1c0.1,0,0.1,0,0.2,0.1l0.3,0.1
	c0.1,0,0.2,0,0.3,0.1h0.2h0.1c0.1,0,0.2,0,0.3,0s0.1,0,0.2,0c0.1,0,0.1,0,0.2,0c0.1,0,0.2,0,0.3,0h0.2c0.3-0.1,0.7-0.1,0.9-0.1
	c0.1-0.2,0.5-0.6,0.7-0.9c0.2-0.3,0.6-0.5,0.9-0.7c0.2-0.1,0.4-0.2,0.6-0.4c0.5-0.3,0.8-0.8,0.9-1.4c0.1-0.3,0.3-0.6,0.7-0.7v-0.1
	v-0.1c0-0.1,0.1-0.1,0.1-0.2v-0.1c0-0.1,0.1-0.1,0.1-0.2v-0.1l0.1-0.2l0.1-0.1l0,0l0,0l0,0l0.1-0.1c0.1-0.1,0.2-0.2,0.2-0.2
	c0.1-0.1,0.1-0.1,0.2-0.2l0,0c0,0,0.1,0,0.1-0.1l0,0c0.1,0,0.1-0.1,0.2-0.1c0.1-0.1,0.2-0.1,0.3-0.2c0.1,0,0.2-0.1,0.3-0.1
	s0.2-0.1,0.3-0.1c0,0,0,0,0.1,0c0-0.1,0-0.2,0-0.3l0.1-0.3v-0.1c0-0.1,0-0.1,0.1-0.2l0,0c0.1-0.2,0.3-0.4,0.4-0.6
	c0.2-0.2,0.3-0.3,0.5-0.4l0.4-0.3l-0.4-0.1l0.8-0.4c0,0,0.1,0,0.1-0.1c0,0,0,0,0.1,0h0.1c0.1,0,0.1,0,0.2-0.1c0.1,0,0.1-0.1,0.2-0.1
	H19h0.1c0,0,0.1,0,0.1-0.1h0.1l0,0h0.1c0,0,0.1,0,0.1-0.1c0.1,0,0.2-0.1,0.2-0.1l0,0c0.1-0.1,0.2-0.3,0.3-0.4
	c0.2-0.3,0.4-0.8,0.4-0.9v-0.1h0.1c0.5-0.2,1.9-0.9,2.2-1.2c0.1-0.1,0.2-0.3,0.2-0.4h-0.1c-0.2,0-0.3,0-0.5,0h-0.1
	c-0.1,0-0.3,0-0.4,0h-0.3c-0.1,0-0.2,0-0.3,0L21,23.6c-0.1,0-0.1,0-0.2-0.1h-0.1c-0.1-0.1-0.3-0.1-0.4-0.2c0,0-0.1,0-0.1-0.1
	c-0.1-0.1-0.2-0.1-0.3-0.2c-0.1,0-0.1-0.1-0.2-0.1c-0.1-0.1-0.2-0.1-0.3-0.2c0,0-0.1,0-0.1-0.1c-0.1-0.1-0.3-0.2-0.4-0.2l0,0
	c-0.1-0.1-0.2-0.2-0.3-0.2l0,0c-0.1-0.1-0.2-0.1-0.2-0.2c-0.1-0.1-0.2-0.2-0.2-0.2L17,20.7l1.5,0.7c0,0,0.1,0,0.2,0.1
	c0,0,0.1,0,0.1,0.1c0,0,0.1,0,0.1,0.1c0.1,0,0.1,0.1,0.2,0.1l1,0.5l0.6,0.3c0.1,0.1,0.2,0.1,0.4,0.2h0.1c0,0,0.1,0,0.1,0.1l0.2,0.1
	c0.1,0,0.1,0,0.2,0l1.3,0.2c0.1,0,0.2,0,0.3,0c0.1-0.1,0.3-0.2,0.5-0.3c0.1,0,0.1-0.1,0.2-0.1l0,0c0,0,0,0-0.1-0.1l-0.2-0.2
	c-0.1-0.1-0.1-0.2-0.2-0.2c-0.1-0.2-0.3-0.3-0.4-0.4c0,0,0-0.1-0.1-0.1c0,0,0-0.1-0.1-0.1l-0.1-0.1l0,0c-0.1-0.1-0.1-0.1-0.1-0.1
	l-0.5-0.7l0.8,0.4c0,0,0.1,0,0.2,0.1l0,0c0.1,0,0.2,0.1,0.3,0.2c0.1,0.1,0.3,0.2,0.4,0.3c0.1,0.1,0.2,0.1,0.2,0.2l0.2,0.2l0.1,0.1
	l0.1,0.1c0.1,0.1,0.2,0.1,0.2,0.2c0.1,0,0.1,0.1,0.2,0.1c0.6,0,1.1,0.1,1.4,0c0.2,0,0.4-0.1,0.5-0.2l0,0c-0.1,0-0.1-0.1-0.1-0.1
	s0,0-0.1,0l-0.1-0.1c0,0,0,0-0.1-0.1l0,0c0-0.1-0.1-0.1-0.1-0.2s-0.1-0.1-0.1-0.2s-0.1-0.1-0.1-0.2v-0.1c0,0,0,0,0-0.1l0,0v-0.1l0,0
	v-0.1L26,20.5l0.5,0.5l0,0l0,0c0,0,0.1,0,0.1,0.1c0,0,0.1,0,0.1,0.1l0.1,0.1l0,0c0,0,0,0,0.1,0.1l0,0c0.1,0,0.1,0.1,0.2,0.1l0,0
	c0,0,0,0,0.1,0.1h0.1c0,0,0,0,0.1,0.1c0,0,0,0,0.1,0.1l0.1,0.1l0,0l0.1,0.1c0.5,0,1.6-0.1,2-0.1c0.2,0,0.3-0.1,0.4-0.2
	c0,0,0,0-0.1,0c0,0-0.1,0-0.1-0.1l0,0c0,0,0,0-0.1,0h-0.1h-0.1h-0.1h-0.1h-0.1l-0.4-0.2c-0.1-0.1-0.2-0.1-0.3-0.1
	c-0.1,0-0.1-0.1-0.1-0.1l-0.6-0.3l0.6-0.1h0.1c0.1,0,0.2,0,0.3,0c0.1,0,0.1,0,0.2,0l0,0c0.1,0,0.1,0,0.2,0l0,0c0.1,0,0.2,0,0.2,0.1
	l0,0c0.1,0,0.1,0,0.2,0.1c0,0,0,0,0.1,0l0,0c0,0,0.1,0,0.1,0.1H30c0,0,0.1,0,0.1,0.1l0.1,0.1l0.1,0.1l0,0c0,0.1,0.1,0.1,0.1,0.2l0,0
	c0,0,0,0.1,0.1,0.1s0.2,0,0.3,0.1c0.4,0.1,1.8-0.3,2-0.5c0.2-0.3,0-0.6,0-0.6l0,0l0,0l-0.1-0.1L32.6,20l-0.1-0.1l0,0
	c-0.1-0.1-0.1-0.1-0.2-0.1l0,0c0,0,0,0-0.1-0.1l0,0l0,0h-0.1H32h-0.1h-0.1c-0.1,0-0.1,0-0.1,0h-0.1c0,0,0,0-0.1,0c0,0,0,0-0.1,0
	h-0.1l0,0c-0.1,0-0.1,0-0.1,0l0,0l0,0l-0.8,0.4l0.5-0.7c0,0,0,0,0.1-0.1l0.1-0.1c0.1,0,0.1-0.1,0.2-0.1l0,0c0.1,0,0.1-0.1,0.2-0.1
	l0,0h0.1h0.1c0.1,0,0.2,0,0.3,0h0.1h0.2l0,0h0.1l0.1,0.1h0.1l0,0c0.1,0,0.1,0.1,0.2,0.1c0.1,0.1,0.2,0.1,0.3,0.3
	c0.1,0.1,0.1,0.2,0.2,0.3c0.1-0.2,0.2-0.4,0.2-0.6c0-0.3-0.1-0.6-0.2-0.7l0,0h-0.1h-0.1H33h-0.1h-0.1c-0.1,0-0.1,0-0.2,0h-0.2h-0.1
	l0,0c-0.1,0-0.2,0-0.2,0c-0.1,0-0.1,0-0.2,0c-0.1,0-0.2,0-0.2,0c-0.1,0-0.3,0.1-0.3,0.1l-1,0.3l0.6-0.6c0,0,0.2-0.2,0.5-0.4
	c0.1,0,0.2-0.1,0.3-0.1c0.1,0,0.2-0.1,0.3-0.1c0.1,0,0.2,0,0.4,0c0,0,0,0,0.1,0h0.3c0.1,0,0.2,0,0.3,0.1l0,0
	c-0.4-0.5-1.4-0.5-2.3-0.2c-0.4,0.1-0.8,0.4-1.2,0.6c-0.5,0.3-0.9,0.5-1.2,0.5c-0.3,0-0.5-0.1-0.6-0.1c-0.3,0.1-0.6,0.2-1,0.3l0,0
	l0,0l0,0c0,0,0,0-0.1,0.1v0.1c-0.1,0.1-0.1,0.2-0.2,0.3c-0.1,0.1-0.2,0.3-0.4,0.4c-0.1,0.1-0.1,0.1-0.2,0.2l-0.1,0.1l-0.1,0.1
	c-0.1,0-0.2,0.1-0.3,0.1c-0.1,0-0.1,0-0.2,0h-0.1l0,0c-0.1,0-0.1,0-0.2,0h-0.1c-0.1,0-0.1,0-0.2,0c-0.3,0-0.7,0-1,0
	c-0.2,0-0.4,0-0.5-0.1H23l0,0l-0.1,0.2c-0.1,0.1-0.2,0.3-0.3,0.4c-0.1,0.1-0.2,0.3-0.4,0.4c-0.1,0.1-0.2,0.1-0.3,0.1l0,0h-0.2l0,0
	l0,0l0,0l0,0l0,0h-0.1h-0.1c0,0-0.1,0-0.1-0.1l-0.1-0.1C21.2,21,21.2,21,21.1,21c-0.1-0.1-0.2-0.2-0.3-0.3c-0.1-0.1-0.2-0.1-0.2-0.2
	c-0.1-0.1-0.2-0.2-0.3-0.2c-0.1-0.1-0.3-0.2-0.4-0.3c-0.1-0.1-0.2-0.1-0.2-0.1h-0.1l0.1-0.5h0.1l0,0l0,0L19,18.1c0,0,0-0.1-0.1-0.2
	c0-0.1-0.1-0.1-0.1-0.2c0,0,0,0,0-0.1l0,0l0,0c0,0,0,0,0-0.1l0,0c0,0,0,0-0.1-0.1l-0.1-0.1c-0.1-0.1-0.2-0.1-0.3-0.1h-0.1h-0.1H18
	h-0.1h-0.1h-0.1h-0.1h-0.1c-0.1,0-0.2,0-0.4,0H17c-0.1,0-0.2,0-0.3,0h-0.1c-0.2,0-0.3,0-0.5,0c-0.1,0-0.3,0-0.4-0.1
	c-0.1,0-0.1,0-0.2-0.1h-0.1c0,0-0.1,0-0.1-0.1l0,0c0,0.1,0,0.2,0,0.2s0,0,0,0.1v0.1c0,0.1,0,0.1,0,0.2c0,0.2-0.1,0.4-0.1,0.5
	c-0.1,0.3-0.2,0.6-0.4,0.8c-0.1,0.2-0.2,0.3-0.3,0.5l-0.1,0.1c-0.1,0.2-0.2,0.3-0.3,0.5c0,0.1,0,0.2,0,0.3c0,0,0.1,0.1,0.2,0.2
	c0.1,0,0.1,0,0.2,0c0.1,0,0.2-0.1,0.3-0.1s0.2-0.1,0.3-0.1s0.3-0.1,0.4-0.1c0.1,0,0.2-0.1,0.3-0.1c0.1-0.1,0.2-0.1,0.3-0.2
	c0,0,0,0,0.1,0c0,0,0.1,0,0.1-0.1l0.2-0.1c0.1,0,0.1-0.1,0.2-0.1h0.1h0.1l0,0H17l0,0h0.1l0,0c0.1,0,0.2,0,0.2,0l0,0
	c0.2,0,0.4,0.1,0.4,0.3V20h-0.2l0,0l0,0c0,0,0,0-0.1,0h-0.1l0,0l0,0l0,0c0,0,0,0-0.1,0l0,0c0,0,0,0-0.1,0H17l0,0c0,0,0,0-0.1,0l0,0
	c0,0,0,0-0.1,0l0,0l-0.3,0.2c-0.1,0.1-0.3,0.2-0.4,0.2c-0.1,0.1-0.2,0.1-0.4,0.2s-0.3,0.1-0.4,0.1c-0.1,0-0.1,0-0.2,0.1
	c-0.1,0-0.1,0-0.2,0c-0.1,0-0.3,0-0.4,0.1h-0.2l0,0C14,21.6,13.4,22.6,13,23c-0.4,0.3-1.2,0.5-1.9,0.6c-0.3,0.1-0.6,0.1-0.8,0.2
	C10,24,9.4,24.7,9.1,25.2c-0.5,0.7-0.7,1-1,1.1l0,0C6.4,27,5.2,27,4.7,26.5c-0.3-0.3-0.4-0.7-0.3-1.1c0.1-0.9,0.9-1.9,1.8-2.6
	c1.3-0.8,3.9-3.2,4.2-4.6c0.3-1.3-0.4-2.6-1.6-3c-1-0.3-1.4,0-1.4,0l-0.1,0.1l-0.3,0c0,0-0.5-0.3-1.6,0C4.5,15.5,4.2,16.4,4,17
	c0,0.1-0.1,0.3-0.1,0.3c0,0.1-0.1,0.1-0.1,0.2l0,0h0.1c0,0,0.1,0,0.1-0.1l0.2-0.1c0,0,0.1,0,0.1-0.1c0,0,0,0,0.1,0c0,0,0,0,0.1,0
	c0,0,0,0,0.1-0.1L4.7,17l0.1-0.1L5,16.4l-0.1,0.7c0,0,0,0.1,0,0.2l0,0c0,0,0,0.1-0.1,0.1c0,0.1-0.1,0.1-0.1,0.2l0,0
	c0,0.1-0.1,0.1-0.1,0.2l-0.1,0.1c0,0,0,0-0.1,0.1l0,0c-0.1,0-0.2,0-0.2,0.1H4.1c-0.1,0-0.2,0.1-0.3,0.1l0,0c0,0,0,0-0.1,0
	c-0.1,0.1-0.8,0.4-1,0.5C3.1,19,4,19.3,5.4,19c2.1-0.4,1.9-2.4,1.9-2.5v-0.1l0.1-0.1c0,0,0.3-0.3,0.7-0.3c0.3,0,0.9,0.3,1.1,0.6
	c0,0,0,0,0,0.1c0.2,0.3,0.6,1,0,2.2c-0.5,0.9-2.3,1.9-3.7,2.8C5,22,4.6,22.2,4.3,22.4c-0.7,0.5-2.2,1.6-2.3,3c0,0.7,0.1,1,0.2,1.2
	c0.2,0.1,0.4,0.2,0.6,0.3C2.8,27,2.9,27,3.1,27.1L3.1,27.1z M11.3,25.4c0-0.1-0.1-0.1-0.1-0.1l-0.3-0.6l0.6,0.3c0,0,0.1,0,0.1,0.1
	l0,0l0,0l0,0l0,0l0,0l0.1,0.1l0,0c0,0,0.1,0.1,0.1,0.2s0.1,0.1,0.1,0.2s0.1,0.2,0.1,0.3c0,0.1,0.1,0.2,0.1,0.3
	c0.1,0.3,0.1,0.7,0.1,1c0,0.2,0,0.3,0,0.3c0,0.1,0,0.1,0,0.1L12,28.3l-0.2-0.7c0,0,0,0,0-0.1s-0.1-0.2-0.1-0.3
	c0-0.2-0.1-0.3-0.1-0.4c0,0,0-0.1,0-0.2v-0.1v-0.1v-0.1c0-0.1,0-0.2,0-0.2L11.5,26v-0.1v-0.1v-0.1c0,0,0,0,0-0.1v-0.1
	C11.3,25.5,11.3,25.5,11.3,25.4L11.3,25.4C11.3,25.5,11.3,25.5,11.3,25.4C11.3,25.5,11.3,25.5,11.3,25.4L11.3,25.4z M10.2,25.1
	l0.4,0.1h0.1l0.1,0.1l0,0l0.1,0.1l0,0l0.1,0.1l0,0c0,0,0,0.1,0.1,0.2c0,0.1,0.1,0.3,0.1,0.4c0,0.2,0,0.5-0.1,0.7
	c0,0.1-0.1,0.2-0.1,0.2c0,0.1-0.1,0.1-0.1,0.1l-0.3,0.3L10.5,27c0,0,0,0,0-0.1s0-0.1,0-0.2s0-0.2,0-0.3v-0.1l0,0v-0.1c0,0,0,0,0-0.1
	l0,0c0-0.1,0-0.2,0-0.3l0,0c0,0,0,0,0-0.1c0,0,0,0,0-0.1l0,0c0,0,0,0,0-0.1l0,0c0,0,0,0,0-0.1l0,0l0,0c0-0.1,0-0.1,0-0.1L10.2,25.1z
	 M8.4,29.5L8.4,29.5L8.4,29.5c0-0.1,0-0.2,0-0.2c0-0.1,0-0.2,0-0.3v-0.2c0-0.1,0-0.2,0-0.2v-0.1c0-0.1,0.1-0.2,0.1-0.3l0,0
	c0-0.1,0.1-0.2,0.1-0.3c0.2-0.4,0.3-0.6,0.3-0.6l0.7-0.9l-0.4,1.7v0.1c0,0.1,0,0.1,0,0.2s0,0.1,0,0.2s0,0.1,0,0.2s0,0.1,0,0.2
	s0,0.1,0,0.2v0.1v0.3v0.3c0,0.1,0,0.2,0,0.3l0,0c0,0.2,0,0.5,0,0.6c0,0.2,0,0.4,0,0.5s0,0.2,0,0.2l-0.1,1l-0.4-1c0,0,0-0.1-0.1-0.2
	c0-0.2-0.1-0.3-0.1-0.5s-0.1-0.5-0.1-0.7l0,0c0-0.1,0-0.2,0-0.4V29.5z"/>
<path class="st1" d="M18.7,4.9L18.7,4.9L18.7,4.9z"/>
<path class="st1" d="M11.5,4.1L11.5,4.1l-0.7,0.1h-0.1c-0.1,0-0.1,0-0.1,0c-0.1,0-0.2,0.1-0.3,0.2S10.1,4.6,10,4.7
	C9.8,4.9,9.7,5.1,9.5,5.4c0,0.1-0.1,0.1-0.1,0.1v0.1L9.3,5.7C9.2,5.7,9.1,5.8,9,5.8S8.8,5.9,8.7,5.9C8.7,6,8.6,6,8.5,6
	c0,0,0,0-0.1,0l0,0c0.1-0.1,0.1-0.1,0.2-0.2c0.1-0.1,0.1-0.2,0.2-0.2C8.9,5.5,8.9,5.4,9,5.3c0-0.1,0.1-0.1,0.1-0.2l0,0
	C9.2,5,9.2,4.9,9.3,4.8c0-0.1,0.1-0.1,0.1-0.1L9.6,4l0.2-0.1l0,0H10c0.1,0,0.2,0,0.2-0.1l0,0h0.1h0.1c0,0,0.1,0,0.2,0c0,0,0,0,0.1,0
	h0.2H11h0.1h0.1c0,0,0,0,0.1,0h0.2h0.1h0.1h0.1C11.7,3.9,11.7,4,11.6,4C11.6,3.9,11.5,4,11.5,4.1z"/>
<path class="st1" d="M12.9,4.8L12.9,4.8L12.9,4.8L12.9,4.8l-0.2-0.1h-0.1l0,0l0,0l0,0l0,0l0,0l-0.1-0.1l-0.1-0.1c0,0,0-0.1-0.1-0.1
	l0,0l0.1-0.1l0,0l0,0l0,0l0,0l0.1-0.1c0-0.1,0.1-0.1,0.2-0.2l0.1-0.1l0,0c0.1,0,0.1-0.1,0.2-0.1l0.1-0.1l0,0l0,0c0,0,0.1,0,0.1-0.1
	h0.1l0,0l0,0l0,0l0,0l0,0h0.1l0,0c0,0,0,0,0.1,0c0,0,0,0,0.1,0c0,0,0,0,0.1,0l0,0c0.1,0,0.1,0,0.2,0l0,0c0,0,0,0,0.1,0l0,0h0.1l0,0
	c0.1,0,0.1,0.1,0.2,0.1c0.1,0.1,0.3,0.2,0.4,0.3l0.4,0.3c0,0-0.1,0-0.1,0.1l0-0.2c-0.1,0-0.1,0.1-0.2,0.1l0,0c0,0-0.1,0-0.1,0.1
	l-0.1,0.1c-0.1,0.1-0.1,0.1-0.2,0.2c0,0,0,0-0.1,0.1l0,0c0,0,0,0-0.1,0.1l0,0L12.9,4.8C13,4.8,12.9,4.8,12.9,4.8z"/>
<g>
	<path class="st1" d="M7.7,8.8c0-0.6,0-1.1,0-1.3l0,0l0.5-0.4l0,0l0,0L8.3,7l0,0c0.1-0.1,0.2-0.1,0.4-0.2c0.1,0,0.1,0,0.2-0.1
		c0.1,0,0.2-0.1,0.3-0.1c0.2-0.1,0.4-0.2,0.5-0.3l0,0l0.1-0.1l0,0L10.1,6c0-0.1,0.1-0.2,0.1-0.3l0.2-0.4c0.1-0.1,0.1-0.2,0.2-0.3
		c0.1-0.1,0.1-0.2,0.2-0.2c0.1-0.1,0.1-0.1,0.1-0.1H11l0.6-0.2l0,0c0,0.1,0.1,0.1,0.1,0.2c0.1,0.1,0.1,0.1,0.1,0.2
		C11.9,5,11.9,5,12,5.1L12.1,5c0,0,0,0,0.1,0.1l0,0l0.1,0.1l0,0h0.1h0.1h0.1h0.1l0,0h0.1h0.1H13l1.1-0.3l0,0C14.1,5,14,5.1,14,5.2
		l-0.1,0.1c0,0.1,0,0.1,0,0.1l-0.1,0.3c0,0.1,0,0.1,0,0.2V6c0,0.1,0,0.2-0.1,0.3v0.1c0,0.1,0,0.1,0,0.2s0,0.2,0,0.3
		c0,0.1,0,0.1,0,0.2l0,0v0.1l0,0v0.1L14,8.5l0.4-1l0,0c0,0.1,0,0.1,0.1,0.2l0.1,0.1l0.2,0.3l0.1,0.1c0,0,0,0,0,0.1l0,0L15,8.4
		l0.1,0.2l0.1,0.1l0,0c0,0.1,0.1,0.1,0.2,0.2c0.1,0.1,0.2,0.2,0.3,0.3L16,9.1c-0.1-0.1-0.2-0.2-0.2-0.3s-0.1-0.1-0.1-0.2
		c0,0,0-0.1-0.1-0.1c0,0,0-0.1-0.1-0.1l-0.1-0.2c0,0,0-0.1-0.1-0.1V8c0,0,0,0,0-0.1c0,0,0-0.1-0.1-0.1l-0.1-0.3V7.4V7.3l0,0l0,0V7.2
		l0,0V7.1c0-0.1,0-0.1,0-0.1C15,7,15,7,15,6.9s0-0.1,0.1-0.1l0.1-0.1l1-1.2L15,6l0,0l-0.2,0.1h-0.1h-0.1l0,0l0,0l0.1-0.3V5.7V5.6
		c0,0,0-0.1,0.1-0.1c0,0,0,0,0-0.1c0,0,0-0.1,0.1-0.1c0,0,0,0,0-0.1L15,5.1c0,0,0-0.1,0.1-0.1l0.1-0.1l0,0l0,0l0.1-0.1
		c0,0,0,0,0.1-0.1h0.1c0.1,0,0.1-0.1,0.2-0.1c0.1,0,0.1-0.1,0.2-0.1H16h0.1c0.2-0.1,0.3-0.1,0.4-0.2l-0.1-0.5c-0.1,0-0.2,0-0.3,0.1
		l0,0C16,3.9,15.9,4,15.8,4c0,0,0,0-0.1,0l-0.3-0.5c-0.1-0.2-0.2-0.3-0.4-0.4l0,0C14.9,3,14.9,3,14.8,2.9l-0.1-0.1l0,0
		c0,0-0.1,0-0.1-0.1l0,0h-0.1h-0.1h-0.1l0,0c-0.1,0-0.1,0-0.2,0l0,0H14h-0.1c-0.1,0-0.1,0-0.1,0l0,0l0,0l0,0h-0.1c0,0,0,0-0.1,0
		s-0.1,0-0.2,0.1l0,0h-0.1l-0.1,0.1C13.1,3,13,3,13,3.1c-0.1,0.1-0.1,0.1-0.2,0.2h-0.5h-0.1c0,0-0.1,0-0.2-0.1c-0.1,0-0.1,0-0.2-0.1
		l0,0c-0.1,0-0.2,0-0.3,0s-0.1,0-0.2,0l0,0h-0.2c-0.1,0-0.2,0-0.3,0l0,0c-0.1,0-0.2,0-0.3,0.1l0,0C9.9,3,9.9,3.1,9.8,3.1L9.6,3.2
		H9.5C9.3,3.3,9.2,3.4,9,3.5L8.9,3.6H8.8c0,0-0.1,0-0.2,0.1c0.1-0.4,0.3-0.8,0.6-1.1c0.4-0.3,1.1-0.7,1.7-1l0,0l0,0L11,1.7l0,0
		c0,0,0.1,0,0.1,0.1l0,0c0,0,0.1,0,0.1,0.1l0,0L11.5,2c0.1,0,0.1,0,0.2,0.1c0.1,0,0.1,0,0.2,0.1l0,0c0.2,0,0.3,0.1,0.5,0.1
		c0.1,0,0.2,0,0.3,0s0.1,0,0.1,0l0.7-0.1l-0.6-0.3c0,0,0,0-0.1-0.1c-0.1,0-0.2-0.1-0.3-0.1h-0.1c-0.1,0-0.2-0.1-0.3-0.1H12h-0.1
		c-0.1,0-0.1,0-0.2-0.1l-0.3-0.1h-0.1h-0.1l-0.1-0.1C11.2,1.1,11.2,1,11.2,1s0.1-0.1,0.1-0.2C11.4,0.9,11.5,1,11.6,1
		c0.2,0.1,0.5,0,0.9-0.1s0.8-0.3,1.1-0.2c0.4,0,0.8,0.2,1,0.3l0.1,0.1c0,0,0,0.1,0.1,0.1v0.1c0,0,0,0,0,0.1l0.1,0.2L15,1.8
		c0,0.1,0.1,0.1,0.2,0.2c0.1,0.1,0.1,0.1,0.2,0.1h0.1c0.1,0,0.1,0.1,0.2,0.1C16.1,1.9,16.2,2,16.3,2h0.1h0.1l0.1,0.1h0.1l0,0l0,0
		l0.1,0.1c0.1,0.1,0.1,0.1,0.2,0.2c0.1,0.1,0.2,0.3,0.2,0.4c0,0.1,0.1,0.2,0.1,0.2l0.4,0.9h-0.2l0.4,0.7c0,0,0,0.1,0.1,0.1l0.1,0.1
		c0.1,0.1,0.1,0.1,0.2,0.2c0,0,0.1,0,0.1,0.1c0.1,0,0.1,0,0.2,0c0,0,0.1,0,0.2,0l0,0c0,0.1,0.1,0.2,0.1,0.3l0.3,0.8l0.1-0.8
		c0-0.1,0-0.3,0-0.4s-0.1-0.2-0.1-0.3c0,0,0,0,0-0.1l0,0l0,0c0,0,0,0,0-0.1V4.4l0,0c0-0.1,0-0.2,0-0.3c0-0.1-0.1-0.1-0.1-0.2
		c-0.1,0-0.1-0.1-0.2-0.1c-0.1-0.1-0.3-0.2-0.4-0.2l-0.8-0.1V3c0,0,0-0.1,0-0.2c0-0.1,0-0.2,0-0.2c0-0.1,0-0.2-0.1-0.3
		c0-0.1-0.1-0.2-0.2-0.4c0-0.1-0.1-0.1-0.1-0.2c-0.1-0.1-0.1-0.1-0.2-0.2L17,1.4h-0.1c-0.1,0-0.1-0.1-0.2-0.1l0,0
		c-0.1,0-0.1,0-0.2-0.1c-0.1,0-0.1,0-0.2-0.1c0,0-0.1,0-0.1-0.1c0,0,0,0-0.1,0l0,0c0,0,0,0-0.1-0.1l0,0l-0.1-0.1
		c0.1,0,0.3,0.1,0.5,0.1c0.9,0.2,1.6,0.7,1.7,1.2s0.1,0.8,0.1,0.8v0.3h0.3c0,0,0.5,0,0.8,0.2C19.6,3.7,19.8,4,19.8,4l0.1,0.1L20,4
		c0,0,0.6-0.1,1.2,0.4c0.7,0.6,0.9,0.8,0.9,1c0,0.1,0,0.2-0.1,0.3c0-0.1,0-0.1,0-0.2s0-0.1-0.1-0.2c0-0.1-0.1-0.1-0.2-0.2
		c0,0-0.1,0-0.2-0.1h-0.1c-0.1,0-0.2,0-0.2,0h-0.1l0,0l0,0l0,0l0,0l0,0l0,0C21,5,21,4.9,21,4.9l-0.1-0.1l-0.4-0.2V5c0,0,0,0,0,0.1
		s0,0.1,0.1,0.2c0,0,0,0.1,0.1,0.1c0,0.1,0.1,0.1,0.1,0.1l0,0l0,0c0,0,0,0,0.1,0.1C21,5.6,21,5.7,21,5.7c0.1,0,0.1,0,0.2,0h0.1h0.2
		l0,0l0,0l0,0v0.1l0.2,0.3c0,0.1-0.1,0.1-0.1,0.2l-0.1,0.1l0.1,0.1c0,0,0.1,0.2,0.1,0.3c0,0,0,0.1-0.1,0.2c0,0-0.1,0-0.2,0
		s-0.2,0-0.3,0c0,0-0.1,0-0.2,0h-0.1l0,0h-0.1c0,0-0.1,0-0.2,0.1l-0.2,0.2c0,0,0,0-0.1,0h-0.1H20h-0.1l0,0c-0.1,0-0.1,0-0.2,0
		s-0.1,0-0.1,0l0,0h-0.1l-0.2,0.1l-0.1,0.1l0,0C19.1,7.8,19,7.9,18.9,8l-0.8,0.7l1-0.3c0.1,0,0.2,0,0.2-0.1h0.1h0.1c0,0,0,0,0.1,0
		h0.2l0,0l0,0l0,0l0,0l0,0l0,0L20.2,9l0.5-0.6l0,0l0,0l0,0l0,0l0,0l0,0L21.1,8l0,0l0,0l0,0l0,0l0,0h0.1c0.1,0,0.2,0,0.2-0.1
		c0.1,0,0.1,0,0.2,0c0.2,0.1,0.2,0.3,0.2,0.4c0,0.3-0.1,0.6-0.2,0.8c-0.1,0-0.1,0-0.2,0s-0.2,0.1-0.3,0.1c0,0,0,0-0.1,0l0,0
		C21.1,9,20.8,8.8,20.5,9c-0.1,0-0.1,0.1-0.2,0.2c-0.2,0.1-0.4,0.3-0.5,0.3s-0.2,0-0.2-0.1c-0.2-0.1-0.5-0.2-0.8,0
		c-0.5,0.3-0.7,0.7-0.6,1.1c0.2,0.4,1,0.8,1.5,0.8c0,0,0.1,0,0.2,0c0.4,0,1.1-0.1,1.4,0.2c0.2,0.1,0.3,0.3,0.4,0.6
		c-0.1,0-0.1,0-0.2,0h-0.1c-0.1,0-0.2,0-0.3,0.1l-1.9,0.4c-0.1,0-0.2,0-0.2,0c-0.1,0-0.2,0-0.3,0.1h-0.1h-0.1l0,0h-0.1l-1.5-0.1
		l1.5,0.6h0.1c0.1,0,0.2,0,0.3,0l0,0c0.1,0,0.2,0,0.4,0c0.2,0,0.5,0,0.8-0.1h0.1c0.1,0,0.2,0,0.3-0.1c0.1,0,0.3-0.1,0.5-0.1l0.5-0.1
		c0.1,0,0.2,0,0.3-0.1c0.1,0,0.1,0,0.2,0H22c0.1,0,0.2,0,0.3-0.1c0.1,0,0.1,0,0.1,0c0.1,0,0.1,0,0.2,0h0.1c0.1,0,0.1,0,0.2,0.1
		s0.3,0.2,0.5,0.4c0.7,0.6,1,0.8,1.2,0.7c0.5-0.2,0.3-1.6,0.3-1.7c0-0.1,0-0.2,0-0.3c0,0,0,0.1,0.1,0.1c0.1,0.1,0.2,0.2,0.2,0.3
		c0.1,0.1,0.2,0.1,0.2,0.2c0.1,0,0.1,0.1,0.1,0.1l0.4,0.2l-0.1-0.5c0,0,0,0,0-0.1s0-0.1-0.1-0.2c0-0.1-0.1-0.2-0.1-0.3
		c0,0,0-0.1-0.1-0.1v-0.1c0,0,0,0,0-0.1v-0.1l0,0l0,0c0-0.3-0.1-0.8,0-1.1c0-0.6,0.3-1.7,0.6-2.1C26,7.4,27,6.7,27.4,6.5
		c0,0,0,0-0.1,0.1c-0.1,0-0.1,0.1-0.2,0.2c0,0-0.1,0.1-0.1,0.3c-0.1,0.1-0.1,0.2-0.1,0.3c0,0.1-0.1,0.1-0.1,0.1L26.6,8l0.5-0.2
		c0,0,0,0,0.1-0.1c0.1,0,0.1-0.1,0.2-0.1c0.1-0.1,0.2-0.1,0.3-0.2l0,0l0.1-0.1l0,0c0.1,0,0.1-0.1,0.2-0.1L28.1,7c0,0,0,0,0.1,0l0,0
		c0.1,0,0.1-0.1,0.2-0.1l0,0c0.2,0,0.4,0,0.5,0.1s0.2,0.3,0.3,0.6l0,0c-0.1,0-0.1,0-0.2,0c0,0,0,0-0.1,0s-0.2,0-0.2,0
		c-0.1,0-0.2,0-0.2,0c-0.1,0-0.1,0-0.2,0l0,0c-0.1,0-0.1,0-0.2,0s-0.2,0.1-0.4,0.1c-0.1,0-0.2,0.1-0.3,0.2c-0.1,0-0.3,0.1-0.4,0.2
		s-0.1,0.2-0.2,0.2l-0.6,0.9l0.9-0.5c0,0,0.1,0,0.1-0.1c0.1,0,0.2-0.1,0.4-0.1c0.2-0.1,0.4-0.1,0.6-0.1c0.1,0,0.2,0,0.3,0h0.2h0.1
		h0.1H29l0.4,0.1h0.1l0,0c0.1,0.2,0.1,0.6,0,1c-0.1,0.3-0.2,0.6-0.5,0.8h-0.1c-0.1,0-0.1,0-0.2,0L28,10.4c-0.1,0-0.2,0-0.3,0l0,0
		c-0.2,0-0.3,0-0.4,0.1l0,0c-0.1,0-0.2,0-0.2,0l-1,0.2l1,0.3c0,0,0.1,0,0.2,0s0.2,0,0.5,0.1c0.2,0,0.4,0,0.6,0c0.1,0,0.1,0,0.2,0
		c0,0.2,0.1,0.5,0,0.8c-0.2,0.5-0.8,1.2-0.8,1.2l-0.1,0.1l0.1,0.1c0,0,0.2,0.7,0.2,1.1c0,0.5,0,1.3,0.2,1.6c0,0.1,0.1,0.1,0.1,0.2
		c-0.1,0-0.1,0-0.2,0l0,0l0,0L28,16.1l0,0l0,0c0,0,0,0-0.1-0.1l0,0l0,0l0,0l-0.1-0.1l0,0c0,0,0-0.1-0.1-0.1l-0.2-0.2
		c0-0.1-0.1-0.1-0.1-0.1L27,15.1v0.6v0.1c0,0.1,0,0.2,0.1,0.3c0,0.1,0,0.1,0.1,0.2c0,0.1,0.1,0.1,0.1,0.2s0.1,0.1,0.1,0.2l0,0
		c0,0,0,0.1,0.1,0.1l0.1,0.1l0,0l0,0c0,0,0,0,0.1,0l0,0h0.1l0,0c0,0,0.1,0,0.1,0.1c-0.1,0.1-0.1,0.1-0.2,0.2s-0.2,0.2-0.3,0.3
		c-0.3,0.1-0.5,0.1-0.8,0.2l-0.2,0.1l0,0l0,0h-0.1h-0.1l0,0C26.1,17.9,26,17.9,26,18l-0.1,0.1c-0.1,0.1-0.1,0.1-0.2,0.2
		s-0.2,0.2-0.3,0.2l-0.1,0.1l-0.2,0.1H25h-0.1l0,0h-0.1h-0.1h-0.1h-0.1h-0.2c-0.3,0-0.6,0-0.9,0l-0.1-0.2l0,0l-0.1-0.4
		c0-0.1-0.1-0.3-0.1-0.4l0,0c0-0.1,0-0.1-0.1-0.2v-0.1c0,0,0-0.1-0.1-0.1l-0.1-0.2c0,0,0-0.1-0.1-0.1l-0.1-0.2l-0.1-0.2l0.2,0.1
		c0.1,0,0.2,0.1,0.3,0.1l1.5,0.9l-0.5-1c-0.1-0.1-0.1-0.3-0.2-0.4s-0.2-0.3-0.2-0.4c-0.1-0.1-0.2-0.2-0.3-0.4
		c-0.1-0.1-0.2-0.3-0.3-0.4v0c-0.1-0.1-0.2-0.2-0.3-0.3l-0.2-0.2l-0.2-0.2l-0.1-0.1l0,0c0,0,0,0-0.1,0L22,14.2L21.9,14l-0.1-0.1
		c0,0,0,0-0.1,0l-0.1-0.1h-0.1l0,0c0,0,0,0-0.1,0c0,0-0.1,0-0.1-0.1c-0.1-0.1-0.3-0.1-0.5-0.2c-0.1,0-0.2-0.1-0.4-0.1h-0.1
		c-0.1,0-0.3,0-0.4,0s-0.2,0-0.2,0h-0.1c-0.1,0-0.1,0-0.2,0s-0.3,0-0.4,0s-0.3,0-0.5,0.1c-0.2,0-0.3,0.1-0.4,0.1l0.1,0.5
		c0.2,0,0.5-0.1,0.8-0.1c0.1,0,0.3,0,0.4,0s0.1,0,0.2,0h0.1c0.1,0,0.1,0,0.2,0s0.3,0,0.4,0.1h0.1c0.1,0,0.2,0,0.3,0.1l0,0
		c0.1,0,0.2,0.1,0.3,0.1h0.1c0,0,0.1,0,0.1,0.1c0,0,0,0,0.1,0h0.1l0.1,0.1c0,0,0,0,0.1,0c0,0,0.1,0,0.1,0.1l0.2,0.1l0.1,0.1
		c0,0,0,0,0.1,0.1c0,0,0,0,0.1,0l0.1,0.1l0.2,0.2l0.1,0.1c0.1,0.1,0.1,0.2,0.2,0.3v0.1l0.1,0.1l-0.3-0.1h-0.1l-0.2-0.1
		c-0.1,0-0.1-0.1-0.2-0.1L22,15.4c-0.1,0-1.2-0.7-2.1-0.7c-0.2,0-0.4,0-0.6,0h-0.1h-0.1H19c-0.1,0-0.2,0-0.3,0c-0.2,0-0.4,0-0.7,0
		c-0.3,0-0.5-0.1-0.7-0.1s-0.5-0.1-0.7-0.2c-0.3-0.1-0.4-0.2-0.6-0.3l0,0l0,0L15.9,14l-0.2-0.2l-0.1-0.1L15,13.5
		c-0.1-0.1-0.1-0.1-0.2-0.2c0,0-0.1-0.1-0.1-0.2L14.6,13c-0.1-0.1-0.2-0.2-0.2-0.3s-0.1-0.1-0.1-0.2L12,9.7l1,2.1
		c0,0,0.1,0.1,0.2,0.3c0.1,0.2,0.3,0.5,0.5,0.8l0.1,0.1c0.1,0.1,0.2,0.3,0.3,0.4l0.1,0.1c0,0.1,0.1,0.1,0.1,0.2
		c0.1,0.1,0.1,0.1,0.2,0.2l0.1,0.1c0,0,0.1,0.1,0.1,0.2l0.3,0.3l0.1,0.1c0,0,0.1,0,0.1,0.1l0,0c0.2,0.1,0.5,0.3,0.8,0.4
		c0.3,0.1,0.5,0.1,0.8,0.2c0.3,0,0.5,0.1,0.8,0.1s0.5,0,0.7,0c0.1,0,0.1,0,0.2,0h0.1h0.1h0.1h0.1c0.1,0,0.2,0,0.2,0h0.1h0.1l0.2,0.1
		l0.2,0.1c0.1,0,0.1,0,0.2,0.1c0.1,0,0.1,0,0.1,0l0.1-0.3l0.8,0.7c0.1,0.1,0.2,0.2,0.3,0.2l0,0c0,0,0,0,0.1,0l0.1,0.1l0.3,0.3
		l0.1,0.1l0.3,0.3l0.1,0.2v0.1c0,0,0,0,0,0.1l0,0c0,0,0,0-0.1,0H22l-0.1-0.1h-0.1c0,0-0.1,0-0.1-0.1l-0.2-0.1l-0.2,0.4l0.2,0.1
		c0,0,0.1,0,0.1,0.1h0.1l0.1,0.1l0.1,0.1c0.1,0,0.1,0.1,0.2,0.1c0.3,0.2,0.5,0.4,0.7,0.5l0.4,0.3c-0.1,0-0.2,0-0.2,0l-0.4-0.1l0,0
		l0,0l-0.2,0.1l0,0c0,0-0.1,0-0.1,0.1l0,0c-0.3,0-0.3,0.1-0.4,0.2l-0.1,0.3c-0.1,0.1-0.1,0.2-0.2,0.4c-0.1,0.1-0.2,0.2-0.2,0.3
		c0,0,0,0-0.1,0l0,0l0,0l0,0h-0.1l-0.1-0.1C21,20,20.9,20,20.8,19.9l0,0c-0.2-0.1-0.4-0.3-0.5-0.4c-0.2-0.1-0.3-0.2-0.5-0.3
		c-0.1,0-0.2-0.1-0.2-0.1l0.1-1c0,0,0,0,0-0.1l0,0c0,0,0-0.1,0-0.2s0-0.2-0.1-0.3c0,0,0-0.1-0.1-0.1l0,0l0,0c0,0-0.1-0.1-0.1-0.2
		l0,0l-0.1-0.1L19.2,17l0,0c-0.1-0.1-0.3-0.2-0.5-0.3c-0.1,0-0.1,0-0.2-0.1c0,0,0,0-0.1,0l0,0c-0.1,0-0.2,0-0.2,0l0,0
		c-0.1,0-0.1,0-0.2,0h-0.1c-0.1,0-0.1,0-0.2,0h-0.1c-0.2,0-0.3,0-0.5,0c-0.1,0-0.2,0-0.3,0c-0.1,0-0.1,0-0.2,0s-0.1,0-0.2,0
		s-0.2,0-0.3,0c-0.1,0-0.2,0-0.3,0h-0.1c0,0,0,0-0.1,0c0,0,0,0-0.1,0l0,0h-0.1l0,0l0,0c0,0,0,0-0.1,0l0,0l0,0l-1.1-0.9v0.1l-0.1-0.1
		L13.8,15c-0.2-0.2-0.5-0.4-0.7-0.7c-0.1-0.1-0.2-0.2-0.2-0.3l0,0v-0.1l-0.1-0.3c-0.2-0.7-0.4-1.2-0.6-1.7c-0.2-0.5-0.4-0.9-0.6-1.2
		c-0.1-0.2-0.2-0.3-0.3-0.3C11,10.2,10.5,10,10.5,10l0.3,0.6l0.1,0.1v0.1c0,0,0,0,0,0.1c0,0,0.1,0.1,0.2,0.2
		c0.1,0.2,0.3,0.6,0.5,1.1c0.1,0.2,0.1,0.5,0.2,0.8c0.1,0.2,0.1,0.4,0.2,0.6l0.2,0.6c0,0.1,0,0.1,0.1,0.2c0,0.1,0.1,0.2,0.1,0.2
		s0,0,0,0.1l0,0c0,0,0,0,0,0.1s0.1,0.1,0.1,0.2c0.2,0.3,0.5,0.5,0.7,0.7l0.1,0.1c0.2,0.2,0.5,0.4,0.7,0.7l0.1,0.1l0.1,0.1l0.1,0.1
		c0,0,0,0,0,0.1l0,0l0,0V17c0,0.1,0,0.1,0.1,0.1l0,0v0.1c0,0,0,0,0,0.1c0,0,0,0,0,0.1v0.1l0,0c0,0.1,0,0.2-0.1,0.4
		c-0.1,0.3-0.2,0.5-0.3,0.7l-0.3,0.6c-0.1,0.1-0.1,0.2-0.2,0.4c-0.1,0-0.3,0-0.4,0c-0.1,0-0.3-0.1-0.4-0.1c0.1-0.2,0.1-0.6,0-0.9
		c-0.1-0.5-0.5-1.6-1.2-2.2c-0.4-0.3-0.5-0.6-0.5-0.8v-0.1c0-0.1,0.1-0.2,0.1-0.4c0-0.1,0.1-0.3,0.1-0.4l0,0c0-0.1,0-0.1,0-0.2
		c0-0.1,0-0.2,0-0.2c0-0.2,0-0.3-0.1-0.5c-0.1-0.3-0.2-0.6-0.3-0.9c-0.1-0.1-0.1-0.3-0.2-0.4c-0.1-0.1-0.1-0.2-0.2-0.3
		c-0.1-0.2-0.2-0.3-0.3-0.4C10,11.7,10,11.6,10,11.6l-0.8-0.8l0.7,1.8c0.1,0.2,0.2,0.4,0.2,0.6c0.1,0.3,0.2,0.5,0.2,0.8
		c0,0.1,0.1,0.3,0.1,0.4c0,0.1,0,0.1,0,0.2c0,0,0,0.1,0,0.2c0,0.1,0,0.2,0,0.4c0,0.1,0,0.2,0,0.3v0.1l0,0c0,0,0,0-0.1,0
		c0-0.2,0-0.5-0.2-0.9c-0.2-0.5-0.6-1-0.8-1.3v-0.1c0-0.1,0-0.1,0-0.2l0,0c0,0,0-0.1,0-0.2c0-0.1,0-0.2,0-0.3l0,0c0-0.1,0-0.2,0-0.3
		s0-0.2-0.1-0.3c-0.1-0.2-0.1-0.4-0.2-0.5c-0.1-0.1-0.2-0.2-0.2-0.3c-0.1-0.1-0.1-0.1-0.1-0.1l-0.6-0.4l0.2,0.7c0,0,0,0,0,0.1
		s0,0.2,0.1,0.3l0.1,0.5c0,0.1,0,0.1,0,0.2c0,0.1,0,0.2,0,0.2l0,0c0,0.1,0,0.1,0,0.2l0,0c0,0,0,0,0,0.1c0,0,0,0,0,0.1v0.1l0,0
		c-0.1,0-0.2,0-0.4-0.1c-0.3-0.1-0.5-0.3-0.6-0.4c0.5-0.7,0.7-1,0.7-1.4c0-0.3-0.1-0.6-0.2-1C7.9,9.8,7.7,9.3,7.7,8.8z"/>
	<path class="st1" d="M18.3,4l-0.7-0.1l0.1-0.5L18.3,4L18.3,4z"/>
</g>
<path class="st1" d="M15.4,32.4c-0.3,0-0.6,0-0.8,0l0,0c0-0.1,0.1-0.1,0.1-0.2l0.1-0.1L15,32l0,0l0,0l0,0l0,0l0,0
	c0.1-0.1,0.1-0.1,0.2-0.1l0,0c0,0,0.1-0.1,0.2-0.1l0,0c0.1-0.1,0.2-0.1,0.2-0.1c0.1-0.1,0.2-0.1,0.2-0.1c0.1,0,0.2-0.1,0.3-0.1
	c0,0,0.1,0,0.1-0.1c0.1,0,0.1,0,0.1-0.1c0.1,0,0.2-0.1,0.3-0.1l0.3-0.1v-0.3c0-0.2,0-0.4,0-0.6v-0.3c0,0,0,0,0-0.1c0,0,0,0,0-0.1
	l0,0c0,0,0,0,0-0.1l0,0v-0.1c0,0,0-0.1,0.1-0.1c0-0.1,0.1-0.1,0.1-0.2c0.1-0.1,0.1-0.1,0.2-0.2s0.1-0.1,0.2-0.2l0.5-0.6
	c0.1,0,0.2,0,0.3,0c0.1,0,0.1,0,0.2,0l0,0c0.1,0,0.1,0,0.2,0l0.2-0.1H19c0.1,0,0.1-0.1,0.2-0.1h0.1c0.1,0,0.1-0.1,0.2-0.1
	s0.1-0.1,0.2-0.1c0,0,0.1,0,0.1-0.1c1.1,0,1.7,0.1,1.9,0.2c0.4,0.3,0.9,0.7,0.7,2.1c-0.1,0.8-0.5,1.9-0.9,2.7
	c-0.3,0.7-0.5,1.2-0.5,1.5c0,0.7,1.1,2,1.6,2.1c0.2,0,0.4-0.1,0.8-0.2c0.7-0.2,1.7-0.6,2.3-0.3c1.1,0.5,1.3,1.3,1.3,1.9
	c0,0.2-0.1,0.5-0.3,0.8c0,0,0,0,0-0.1c-0.1-0.1-0.1-0.2-0.2-0.3c0-0.1-0.1-0.1-0.1-0.2c0-0.1-0.1-0.1-0.1-0.2c0-0.1-0.1-0.1-0.1-0.2
	l-0.1-0.1L26,37.3c0,0,0,0-0.1-0.1l0.1-0.3l-0.1-0.1c-0.1,0-0.1-0.1-0.2-0.1c0,0,0,0-0.1,0l0,0h-0.1c-0.1,0-0.1,0-0.2,0
	s-0.3,0-0.4,0s-0.3,0-0.4,0s-0.2,0.1-0.3,0.1c-0.1,0-0.2,0.1-0.2,0.1c0,0-0.1,0.1-0.1,0.1L23,37.6l1.1-0.2c0,0,0.1,0,0.2,0h0.1h0.1
	c0.1,0,0.2,0,0.2,0c0.1,0,0.2,0,0.3,0h0.1l0,0h0.1l0,0c0,0,0,0,0.1,0l0,0c0,0,0,0,0.1,0c0,0,0,0,0.1,0l0.1,0.1l0.1,0.1l0,0l0,0
	l0.1,0.1l0.1,0.1c0.1,0.1,0.1,0.2,0.2,0.3s0.1,0.2,0.2,0.3l0.1,0.2c-0.1,0.1-0.2,0.2-0.3,0.2c-0.1,0-0.1,0.1-0.1,0.1
	c-0.3,0.3-1.1,0.4-1.6,0.4h-0.1c-0.2,0-0.9-0.2-1.5-0.4c-0.4-0.2-0.8-0.3-1.1-0.4c-0.7-0.2-2.5-0.3-3-0.3c-0.1-0.3-0.3-0.7-0.6-0.9
	c-0.2-0.1-0.4-0.2-0.9-0.6c-0.1-0.1-0.2-0.2-0.2-0.2c0.1-0.2,0.2-0.8,0.2-1v-0.1c0,0,0-0.1,0.1-0.1c0.1-0.1,0.1-0.1,0.2-0.2l0.2-0.2
	l0.1-0.1c0,0,0.1,0,0.1-0.1c0,0,0.1,0,0.1-0.1c0,0,0.1,0,0.1-0.1l0.1-0.1c0.1,0,0.1-0.1,0.1-0.1l0.8-0.4h-0.9c0,0-0.1,0-0.2,0h-0.1
	c0,0-0.1,0-0.2,0h-0.1c-0.1,0-0.1,0-0.2,0.1c0,0,0,0-0.1,0s-0.1,0.1-0.2,0.1H17c-0.1,0-0.1,0.1-0.2,0.2l0,0
	c-0.1,0.1-0.2,0.2-0.2,0.2l0,0l0,0c-0.1,0.1-0.2,0.1-0.3,0.2c0,0,0,0-0.1,0c0-0.2,0.1-0.3,0.1-0.4c0.1-0.1,0.3-0.2,0.4-0.4l0.1-0.1
	l0.1-0.1l0.1-0.1c0.1-0.1,0.2-0.1,0.3-0.2l0.1-0.1c0.1-0.1,0.2-0.1,0.3-0.2l0,0c0.1-0.1,0.1-0.1,0.1-0.1l0.6-0.5l-0.8,0.1
	c0,0-0.1,0-0.2,0s-0.2,0.1-0.4,0.1c-0.1,0-0.2,0.1-0.2,0.1c-0.1,0-0.2,0.1-0.3,0.1c-0.1,0-0.2,0.1-0.3,0.1c-0.1,0-0.1,0.1-0.2,0.1
	c0-0.2,0-0.3,0.1-0.4c0-0.1,0.1-0.2,0.1-0.2l0.2-0.1c0.2-0.1,0.3-0.2,0.5-0.3c0.1-0.1,0.2-0.2,0.3-0.2c0.1-0.1,0.1-0.1,0.1-0.1
	l0.7-0.5l-0.9,0.1c0,0-0.1,0-0.2,0s-0.2,0.1-0.4,0.1c-0.1,0-0.2,0.1-0.2,0.1c-0.1,0-0.2,0.1-0.3,0.1c-0.1,0-0.2,0.1-0.2,0.1
	C16,32.4,15.7,32.4,15.4,32.4z"/>
<path class="st1" d="M32.3,17.5L32.3,17.5L32.3,17.5z"/>
<line class="st2" x1="19.9" y1="6.1" x2="19.9" y2="6.1"/>
<line class="st2" x1="22.5" y1="18.7" x2="22.5" y2="18.7"/>
</svg>
